{
.appVersion = "895";
DisplayStrings = (
"{}[]()",
"!\U00A1",
"\U00C5\U00D0/Hbar/Lslash \U00D8Q/Q.ss01/dcaron/dcroat/hbar/kcommaaccent/lcaron/ldot/lslash/tcaron/fi/fi.ss01/fl \U00B5!?\U00A2$/euro \U00F7",
"/fl fl",
/dcroat/hbar
);
classes = (
{
automatic = 1;

glyphs = (
{
glyphname = A;
lastChange = "2015-04-22 19:02:19 +0000";
layers = (
{
anchors = (
{
name = ogonek;
position = "{701, 10}";
},
{
name = top;
position = "{396, 699}";
}
);
background = {
paths = (
{
closed = 1;
nodes = (
"196 159 LINE",
"546 159 LINE",
"616 0 LINE",
"742 0 LINE",
"434 699 LINE",
"308 699 LINE",
"0 0 LINE",
"126 0 LINE"
);
},
{
closed = 1;
nodes = (
"498 268 LINE",
"244 268 LINE",
"371 556 LINE"
);
}
);
};
layerId = UUID0;
paths = (
{
closed = 1;
nodes = (
"383 699 LINE",
"-23 0 LINE",
"1 0 LINE",
"391 676 LINE",
"620 0 LINE",
"643 0 LINE",
"405 699 LINE"
);
},
{
closed = 1;
nodes = (
"121 233 LINE",
"118 213 LINE",
"552 213 LINE",
"555 233 LINE"
);
}
);
width = 686;
},
{
anchors = (
{
name = ogonek;
position = "{777, 10}";
},
{
name = top;
position = "{453, 701}";
}
);
background = {
paths = (
{
closed = 1;
nodes = (
"-11 0 LINE",
"239 0 LINE",
"275 94 LINE",
"520 94 LINE",
"557 0 LINE",
"811 0 LINE",
"516 705 LINE",
"284 705 LINE"
);
},
{
closed = 1;
nodes = (
"334 260 LINE",
"398 430 LINE",
"462 260 LINE"
);
}
);
};
layerId = "5DA6E103-6A94-47F2-987D-4952DB8EA68E";
paths = (
{
closed = 1;
nodes = (
"338 701 LINE",
"-44 0 LINE",
"196 0 LINE",
"425 470 LINE",
"530 0 LINE",
"775 0 LINE",
"576 701 LINE"
);
},
{
closed = 1;
nodes = (
"190 265 LINE",
"169 99 LINE SMOOTH",
"571 99 LINE",
"592 265 LINE"
);
}
);
width = 799;
},
{
anchors = (
{
name = ogonek;
position = "{736, 10}";
},
{
name = top;
position = "{422, 700}";
}
);
background = {
paths = (
{
closed = 1;
nodes = (
"309.692 699.923 LINE",
"0.769 0 LINE",
"123.539 0 LINE",
"367.307 580.923 LINE",
"611 0 LINE",
"737.385 0 LINE",
"431.385 699.923 LINE"
);
},
{
closed = 1;
nodes = (
"155.316 262.368 LINE",
"155.316 161.842 LINE",
"574.158 161.842 LINE",
"574.158 262.368 LINE"
);
}
);
};
layerId = "1C84A7F3-C40A-4DC1-B8B4-102D183C348F";
paths = (
{
closed = 1;
nodes = (
"362 700 LINE",
"-33 0 LINE",
"91 0 LINE",
"407 581 LINE",
"579 0 LINE",
"704 0 LINE",
"484 700 LINE"
);
},
{
closed = 1;
nodes = (
"155 262 LINE",
"142 162 LINE",
"561 162 LINE",
"573 262 LINE"
);
}
);
width = 738;
}
);
leftKerningGroup = A;
rightKerningGroup = A;
unicode = 0041;
},
{
glyphname = A.ss01;
lastChange = "2015-04-22 19:02:19 +0000";
layers = (
{
anchors = (
{
name = ogonek;
position = "{665, 10}";
},
{
name = top;
position = "{440, 699}";
}
);
background = {
paths = (
{
closed = 1;
nodes = (
"219 699 OFFCURVE",
"110 587 OFFCURVE",
"110 413 CURVE SMOOTH",
"110 0 LINE",
"130 0 LINE",
"130 225 LINE",
"644 225 LINE",
"644 0 LINE",
"664 0 LINE",
"664 413 LINE SMOOTH",
"664 587 OFFCURVE",
"555 699 OFFCURVE",
"387 699 CURVE SMOOTH"
);
},
{
closed = 1;
nodes = (
"543 679 OFFCURVE",
"644 575 OFFCURVE",
"644 413 CURVE SMOOTH",
"644 245 LINE",
"130 245 LINE",
"130 413 LINE SMOOTH",
"130 575 OFFCURVE",
"231 679 OFFCURVE",
"387 679 CURVE SMOOTH"
);
}
);
};
layerId = UUID0;
paths = (
{
closed = 1;
nodes = (
"265 699 OFFCURVE",
"150 594 OFFCURVE",
"128 415 CURVE SMOOTH",
"77 0 LINE",
"97 0 LINE",
"125 225 LINE",
"639 225 LINE",
"611 0 LINE",
"631 0 LINE",
"682 415 LINE SMOOTH",
"704 594 OFFCURVE",
"615 699 OFFCURVE",
"439 699 CURVE SMOOTH"
);
},
{
closed = 1;
nodes = (
"599 679 OFFCURVE",
"682 581 OFFCURVE",
"662 415 CURVE SMOOTH",
"641 245 LINE",
"127 245 LINE",
"148 415 LINE SMOOTH",
"168 581 OFFCURVE",
"275 679 OFFCURVE",
"438 679 CURVE SMOOTH"
);
}
);
width = 774;
},
{
anchors = (
{
name = ogonek;
position = "{691, 10}";
},
{
name = top;
position = "{433, 701}";
}
);
background = {
paths = (
{
closed = 1;
nodes = (
"160 713 OFFCURVE",
"45 606 OFFCURVE",
"45 394 CURVE SMOOTH",
"45 0 LINE",
"259 0 LINE",
"259 150 LINE",
"437 150 LINE",
"437 0 LINE",
"653 0 LINE",
"653 400 LINE SMOOTH",
"653 606 OFFCURVE",
"538 713 OFFCURVE",
"351 713 CURVE SMOOTH"
);
},
{
closed = 1;
nodes = (
"403 531 OFFCURVE",
"437 481 OFFCURVE",
"437 394 CURVE SMOOTH",
"437 332 LINE",
"259 332 LINE",
"259 399 LINE SMOOTH",
"259 485 OFFCURVE",
"294 531 OFFCURVE",
"349 531 CURVE SMOOTH"
);
}
);
};
layerId = "5DA6E103-6A94-47F2-987D-4952DB8EA68E";
paths = (
{
closed = 1;
nodes = (
"222 710 OFFCURVE",
"80 593 OFFCURVE",
"57 407 CURVE SMOOTH",
"7 0 LINE",
"239 0 LINE",
"257 149 LINE",
"472 149 LINE",
"454 0 LINE",
"686 0 LINE",
"735 397 LINE SMOOTH",
"758 583 OFFCURVE",
"635 710 OFFCURVE",
"423 710 CURVE SMOOTH"
);
},
{
closed = 1;
nodes = (
"478 517 OFFCURVE",
"512 476 OFFCURVE",
"504 407 CURVE SMOOTH",
"493 315 LINE",
"278 315 LINE",
"288 397 LINE SMOOTH",
"296 466 OFFCURVE",
"348 517 OFFCURVE",
"417 517 CURVE SMOOTH"
);
}
);
width = 759;
},
{
anchors = (
{
name = ogonek;
position = "{696, 10}";
},
{
name = top;
position = "{436, 700}";
}
);
layerId = "1C84A7F3-C40A-4DC1-B8B4-102D183C348F";
paths = (
{
closed = 1;
nodes = (
"244 704 OFFCURVE",
"118 594 OFFCURVE",
"96 412 CURVE SMOOTH",
"45 0 LINE",
"163 0 LINE",
"186 190 LINE",
"562 190 LINE",
"539 0 LINE",
"656 0 LINE",
"706 406 LINE SMOOTH",
"728 588 OFFCURVE",
"623 704 OFFCURVE",
"431 704 CURVE SMOOTH"
);
},
{
closed = 1;
nodes = (
"544 604 OFFCURVE",
"603 533 OFFCURVE",
"590 412 CURVE SMOOTH",
"575 290 LINE",
"198 290 LINE",
"213 406 LINE SMOOTH",
"227 527 OFFCURVE",
"309 604 OFFCURVE",
"429 604 CURVE SMOOTH"
);
}
);
width = 767;
}
);
leftKerningGroup = A.ss01;
leftMetricsKey = U;
rightKerningGroup = A.ss01;
rightMetricsKey = U;
},
{
color = 0;
glyphname = Aacute;
lastChange = "2015-04-22 19:02:19 +0000";
layers = (
{
background = {
components = (
{
name = A;
},
{
name = acute;
transform = "{1, 0, 0, 1, -15, 130}";
}
);
};
components = (
{
name = A;
},
{
name = acute;
transform = "{1, 0, 0, 1, 239, 182}";
}
);
layerId = UUID0;
width = 686;
},
{
background = {
paths = (
{
closed = 1;
nodes = (
"-11 0 LINE",
"239 0 LINE",
"275 94 LINE",
"520 94 LINE",
"557 0 LINE",
"811 0 LINE",
"516 705 LINE",
"284 705 LINE"
);
},
{
closed = 1;
nodes = (
"334 260 LINE",
"398 430 LINE",
"462 260 LINE"
);
},
{
closed = 1;
nodes = (
"306 740 LINE",
"458 740 LINE",
"623 875 LINE",
"402 932 LINE"
);
}
);
};
components = (
{
name = A;
},
{
name = acute;
transform = "{1, 0, 0, 1, 287, 154}";
}
);
layerId = "5DA6E103-6A94-47F2-987D-4952DB8EA68E";
width = 799;
},
{
components = (
{
name = A;
},
{
name = acute;
transform = "{1, 0, 0, 1, 261, 169}";
}
);
layerId = "1C84A7F3-C40A-4DC1-B8B4-102D183C348F";
width = 738;
}
);
leftKerningGroup = A;
leftMetricsKey = A;
rightKerningGroup = A;
rightMetricsKey = A;
unicode = 00C1;
},
{
color = 0;
glyphname = Acircumflex;
lastChange = "2015-04-22 19:02:19 +0000";
layers = (
{
components = (
{
name = A;
},
{
name = circumflex;
transform = "{1, 0, 0, 1, 191, 182}";
}
);
layerId = UUID0;
width = 686;
},
{
background = {
paths = (
{
closed = 1;
nodes = (
"-11 0 LINE",
"239 0 LINE",
"275 94 LINE",
"520 94 LINE",
"557 0 LINE",
"811 0 LINE",
"516 705 LINE",
"284 705 LINE"
);
},
{
closed = 1;
nodes = (
"334 260 LINE",
"398 430 LINE",
"462 260 LINE"
);
},
{
closed = 1;
nodes = (
"185 740 LINE",
"310 740 LINE",
"399 796 LINE",
"488 740 LINE",
"615 740 LINE",
"482 912 LINE",
"318 912 LINE"
);
}
);
};
components = (
{
name = A;
},
{
name = circumflex;
transform = "{1, 0, 0, 1, 244, 154}";
}
);
layerId = "5DA6E103-6A94-47F2-987D-4952DB8EA68E";
width = 799;
},
{
components = (
{
name = A;
},
{
name = circumflex;
transform = "{1, 0, 0, 1, 214, 166}";
}
);
layerId = "1C84A7F3-C40A-4DC1-B8B4-102D183C348F";
width = 738;
}
);
leftKerningGroup = A;
leftMetricsKey = A;
rightKerningGroup = A;
rightMetricsKey = A;
unicode = 00C2;
},
{
color = 0;
glyphname = Adieresis;
lastChange = "2015-04-22 19:02:19 +0000";
layers = (
{
components = (
{
name = A;
},
{
name = dieresis;
transform = "{1, 0, 0, 1, 191, 182}";
}
);
layerId = UUID0;
width = 686;
},
{
background = {
paths = (
{
closed = 1;
nodes = (
"-11 0 LINE",
"239 0 LINE",
"275 94 LINE",
"520 94 LINE",
"557 0 LINE",
"811 0 LINE",
"516 705 LINE",
"284 705 LINE"
);
},
{
closed = 1;
nodes = (
"334 260 LINE",
"398 430 LINE",
"462 260 LINE"
);
},
{
closed = 1;
nodes = (
"420 740 LINE",
"604 740 LINE",
"604 890 LINE",
"420 890 LINE"
);
},
{
closed = 1;
nodes = (
"196 740 LINE",
"380 740 LINE",
"380 890 LINE",
"196 890 LINE"
);
}
);
};
components = (
{
name = A;
},
{
name = dieresis;
transform = "{1, 0, 0, 1, 244, 154}";
}
);
layerId = "5DA6E103-6A94-47F2-987D-4952DB8EA68E";
width = 799;
},
{
components = (
{
name = A;
},
{
name = dieresis;
transform = "{1, 0, 0, 1, 215, 169}";
}
);
layerId = "1C84A7F3-C40A-4DC1-B8B4-102D183C348F";
width = 738;
}
);
leftKerningGroup = A;
leftMetricsKey = A;
rightKerningGroup = A;
rightMetricsKey = A;
unicode = 00C4;
},
{
color = 0;
glyphname = Agrave;
lastChange = "2015-04-22 19:02:19 +0000";
layers = (
{
components = (
{
name = A;
},
{
name = grave;
transform = "{1, 0, 0, 1, 142, 182}";
}
);
layerId = UUID0;
width = 686;
},
{
background = {
paths = (
{
closed = 1;
nodes = (
"-11 0 LINE",
"239 0 LINE",
"275 94 LINE",
"520 94 LINE",
"557 0 LINE",
"811 0 LINE",
"516 705 LINE",
"284 705 LINE"
);
},
{
closed = 1;
nodes = (
"334 260 LINE",
"398 430 LINE",
"462 260 LINE"
);
},
{
closed = 1;
nodes = (
"342 740 LINE",
"494 740 LINE",
"398 932 LINE",
"177 875 LINE"
);
}
);
};
components = (
{
name = A;
},
{
name = grave;
transform = "{1, 0, 0, 1, 207, 154}";
}
);
layerId = "5DA6E103-6A94-47F2-987D-4952DB8EA68E";
width = 799;
},
{
components = (
{
name = A;
},
{
name = grave;
transform = "{1, 0, 0, 1, 171, 169}";
}
);
layerId = "1C84A7F3-C40A-4DC1-B8B4-102D183C348F";
width = 738;
}
);
leftKerningGroup = A;
leftMetricsKey = A;
rightKerningGroup = A;
rightMetricsKey = A;
unicode = 00C0;
},
{
color = 0;
glyphname = Aogonek;
lastChange = "2015-04-22 19:02:19 +0000";
layers = (
{
layerId = UUID0;
paths = (
{
closed = 1;
nodes = (
"383 699 LINE",
"-23 0 LINE",
"1 0 LINE",
"124 213 LINE",
"548 213 LINE",
"620 0 LINE",
"621 0 LINE",
"571 -62 OFFCURVE",
"550 -99 OFFCURVE",
"546 -130 CURVE SMOOTH",
"541 -172 OFFCURVE",
"566 -199 OFFCURVE",
"603 -199 CURVE SMOOTH",
"629 -199 OFFCURVE",
"659 -181 OFFCURVE",
"680 -159 CURVE",
"668 -145 LINE",
"648 -165 OFFCURVE",
"626 -179 OFFCURVE",
"603 -179 CURVE SMOOTH",
"579 -179 OFFCURVE",
"562 -162 OFFCURVE",
"566 -132 CURVE SMOOTH",
"569 -102 OFFCURVE",
"583 -69 OFFCURVE",
"642 0 CURVE",
"643 0 LINE",
"405 699 LINE"
);
},
{
closed = 1;
nodes = (
"542 233 LINE",
"136 233 LINE",
"391 676 LINE"
);
}
);
width = 686;
},
{
layerId = "5DA6E103-6A94-47F2-987D-4952DB8EA68E";
paths = (
{
closed = 1;
nodes = (
"338 701 LINE",
"-44 0 LINE",
"196 0 LINE",
"244 99 LINE",
"508 99 LINE",
"530 0 LINE",
"602 5 LINE",
"573 -31 OFFCURVE",
"551 -70 OFFCURVE",
"547 -105 CURVE SMOOTH",
"538 -180 OFFCURVE",
"593 -204 OFFCURVE",
"639 -204 CURVE SMOOTH",
"684 -204 OFFCURVE",
"727 -184 OFFCURVE",
"762 -133 CURVE",
"711 -59 LINE",
"698 -78 OFFCURVE",
"681 -94 OFFCURVE",
"664 -94 CURVE SMOOTH",
"660 -94 OFFCURVE",
"658 -94 OFFCURVE",
"659 -90 CURVE SMOOTH",
"662 -68 OFFCURVE",
"683 -38 OFFCURVE",
"710 -5 CURVE",
"775 0 LINE",
"576 701 LINE"
);
},
{
closed = 1;
nodes = (
"471 265 LINE",
"325 265 LINE",
"425 470 LINE"
);
}
);
width = 799;
},
{
layerId = "1C84A7F3-C40A-4DC1-B8B4-102D183C348F";
paths = (
{
closed = 1;
nodes = (
"362 700 LINE",
"-33 0 LINE",
"92 0 LINE",
"180 162 LINE",
"532 162 LINE",
"580 0 LINE",
"612 2 LINE",
"573 -46 OFFCURVE",
"551 -84 OFFCURVE",
"547 -118 CURVE SMOOTH",
"540 -175 OFFCURVE",
"579 -201 OFFCURVE",
"619 -201 CURVE SMOOTH",
"654 -201 OFFCURVE",
"692 -182 OFFCURVE",
"718 -147 CURVE",
"687 -106 LINE",
"671 -125 OFFCURVE",
"652 -140 OFFCURVE",
"632 -140 CURVE SMOOTH",
"616 -140 OFFCURVE",
"607 -131 OFFCURVE",
"609 -113 CURVE SMOOTH",
"612 -86 OFFCURVE",
"633 -51 OFFCURVE",
"673 -2 CURVE",
"704 0 LINE",
"484 700 LINE"
);
},
{
closed = 1;
nodes = (
"502 262 LINE",
"234 262 LINE",
"407 581 LINE"
);
}
);
width = 738;
}
);
leftKerningGroup = A;
rightKerningGroup = A;
unicode = 0104;
},
{
color = 0;
glyphname = Aogonek.ss01;
lastChange = "2015-04-22 19:02:19 +0000";
layers = (
{
background = {
paths = (
{
closed = 1;
nodes = (
"212 699 OFFCURVE",
"110 594 OFFCURVE",
"110 415 CURVE SMOOTH",
"110 0 LINE",
"130 0 LINE",
"130 225 LINE",
"644 225 LINE",
"644 0 LINE",
"664 0 LINE",
"664 415 LINE SMOOTH",
"664 594 OFFCURVE",
"562 699 OFFCURVE",
"387 699 CURVE SMOOTH"
);
},
{
closed = 1;
nodes = (
"549 679 OFFCURVE",
"644 581 OFFCURVE",
"644 415 CURVE SMOOTH",
"644 245 LINE",
"130 245 LINE",
"130 415 LINE SMOOTH",
"130 581 OFFCURVE",
"225 679 OFFCURVE",
"387 679 CURVE SMOOTH"
);
}
);
};
layerId = UUID0;
paths = (
{
closed = 1;
nodes = (
"265 699 OFFCURVE",
"150 594 OFFCURVE",
"128 415 CURVE SMOOTH",
"77 0 LINE",
"97 0 LINE",
"125 225 LINE",
"639 225 LINE",
"611 0 LINE",
"612 0 LINE",
"560 -63 OFFCURVE",
"538 -99 OFFCURVE",
"534 -130 CURVE SMOOTH",
"529 -172 OFFCURVE",
"554 -199 OFFCURVE",
"591 -199 CURVE SMOOTH",
"617 -199 OFFCURVE",
"647 -181 OFFCURVE",
"668 -159 CURVE",
"656 -145 LINE",
"636 -165 OFFCURVE",
"614 -179 OFFCURVE",
"591 -179 CURVE SMOOTH",
"567 -179 OFFCURVE",
"550 -162 OFFCURVE",
"554 -132 CURVE SMOOTH",
"557 -102 OFFCURVE",
"571 -69 OFFCURVE",
"630 0 CURVE",
"631 0 LINE",
"682 415 LINE SMOOTH",
"704 594 OFFCURVE",
"615 699 OFFCURVE",
"439 699 CURVE SMOOTH"
);
},
{
closed = 1;
nodes = (
"599 679 OFFCURVE",
"682 581 OFFCURVE",
"662 415 CURVE SMOOTH",
"641 245 LINE",
"127 245 LINE",
"148 415 LINE SMOOTH",
"168 581 OFFCURVE",
"275 679 OFFCURVE",
"438 679 CURVE SMOOTH"
);
}
);
width = 774;
},
{
layerId = "5DA6E103-6A94-47F2-987D-4952DB8EA68E";
paths = (
{
closed = 1;
nodes = (
"222 710 OFFCURVE",
"80 593 OFFCURVE",
"57 407 CURVE SMOOTH",
"7 0 LINE",
"239 0 LINE",
"257 149 LINE",
"472 149 LINE",
"454 0 LINE",
"516 5 LINE",
"487 -31 OFFCURVE",
"465 -70 OFFCURVE",
"461 -105 CURVE SMOOTH",
"452 -180 OFFCURVE",
"507 -204 OFFCURVE",
"553 -204 CURVE SMOOTH",
"598 -204 OFFCURVE",
"641 -184 OFFCURVE",
"676 -133 CURVE",
"625 -59 LINE",
"612 -78 OFFCURVE",
"595 -94 OFFCURVE",
"578 -94 CURVE SMOOTH",
"574 -94 OFFCURVE",
"572 -94 OFFCURVE",
"573 -90 CURVE SMOOTH",
"576 -68 OFFCURVE",
"597 -38 OFFCURVE",
"624 -5 CURVE",
"686 0 LINE",
"735 397 LINE SMOOTH",
"758 583 OFFCURVE",
"635 710 OFFCURVE",
"423 710 CURVE SMOOTH"
);
},
{
closed = 1;
nodes = (
"478 517 OFFCURVE",
"512 476 OFFCURVE",
"504 407 CURVE SMOOTH",
"493 315 LINE",
"278 315 LINE",
"288 397 LINE SMOOTH",
"296 466 OFFCURVE",
"348 517 OFFCURVE",
"417 517 CURVE SMOOTH"
);
}
);
width = 759;
},
{
layerId = "1C84A7F3-C40A-4DC1-B8B4-102D183C348F";
paths = (
{
closed = 1;
nodes = (
"244 704 OFFCURVE",
"118 594 OFFCURVE",
"96 412 CURVE SMOOTH",
"45 0 LINE",
"163 0 LINE",
"186 190 LINE",
"562 190 LINE",
"539 0 LINE",
"572 2 LINE",
"533 -46 OFFCURVE",
"512 -84 OFFCURVE",
"508 -118 CURVE SMOOTH",
"501 -175 OFFCURVE",
"539 -201 OFFCURVE",
"580 -201 CURVE SMOOTH",
"614 -201 OFFCURVE",
"652 -182 OFFCURVE",
"679 -147 CURVE",
"648 -106 LINE",
"631 -125 OFFCURVE",
"612 -140 OFFCURVE",
"592 -140 CURVE SMOOTH",
"576 -140 OFFCURVE",
"567 -131 OFFCURVE",
"569 -113 CURVE SMOOTH",
"572 -86 OFFCURVE",
"594 -51 OFFCURVE",
"634 -2 CURVE",
"657 0 LINE",
"706 406 LINE SMOOTH",
"728 588 OFFCURVE",
"623 704 OFFCURVE",
"431 704 CURVE SMOOTH"
);
},
{
closed = 1;
nodes = (
"544 604 OFFCURVE",
"603 533 OFFCURVE",
"590 412 CURVE SMOOTH",
"574 290 LINE",
"198 290 LINE",
"212 406 LINE SMOOTH",
"227 527 OFFCURVE",
"309 604 OFFCURVE",
"429 604 CURVE SMOOTH"
);
}
);
width = 774;
}
);
leftKerningGroup = Aogonek.ss01;
rightKerningGroup = Aogonek.ss01;
},
{
glyphname = Aring;
lastChange = "2015-04-22 19:08:38 +0000";
layers = (
{
components = (
{
name = A;
transform = "{1, 0, 0, 1, -33, 0}";
}
);
layerId = UUID0;
paths = (
{
closed = 1;
nodes = (
"324 896 OFFCURVE",
"267 845 OFFCURVE",
"260 788 CURVE SMOOTH",
"253 729 OFFCURVE",
"297 679 OFFCURVE",
"359 679 CURVE SMOOTH",
"419 679 OFFCURVE",
"478 729 OFFCURVE",
"485 786 CURVE SMOOTH",
"492 845 OFFCURVE",
"446 896 OFFCURVE",
"384 896 CURVE SMOOTH"
);
},
{
closed = 1;
nodes = (
"433 876 OFFCURVE",
"471 835 OFFCURVE",
"465 788 CURVE SMOOTH",
"459 739 OFFCURVE",
"411 699 OFFCURVE",
"360 699 CURVE SMOOTH",
"311 699 OFFCURVE",
"274 739 OFFCURVE",
"280 786 CURVE SMOOTH",
"286 835 OFFCURVE",
"333 876 OFFCURVE",
"384 876 CURVE SMOOTH"
);
}
);
width = 686;
},
{
background = {
paths = (
{
closed = 1;
nodes = (
"-11 0 LINE",
"239 0 LINE",
"275 94 LINE",
"520 94 LINE",
"557 0 LINE",
"811 0 LINE",
"524 687 LINE",
"536 707 OFFCURVE",
"544 730 OFFCURVE",
"544 755 CURVE SMOOTH",
"544 757 LINE SMOOTH",
"544 831 OFFCURVE",
"476 892 OFFCURVE",
"400 892 CURVE SMOOTH",
"324 892 OFFCURVE",
"256 831 OFFCURVE",
"256 757 CURVE SMOOTH",
"256 755 LINE SMOOTH",
"256 730 OFFCURVE",
"264 707 OFFCURVE",
"276 687 CURVE"
);
},
{
closed = 1;
nodes = (
"361 684 OFFCURVE",
"329 716 OFFCURVE",
"329 754 CURVE SMOOTH",
"329 756 LINE SMOOTH",
"329 794 OFFCURVE",
"361 826 OFFCURVE",
"400 826 CURVE SMOOTH",
"439 826 OFFCURVE",
"471 794 OFFCURVE",
"471 756 CURVE SMOOTH",
"471 754 LINE SMOOTH",
"471 716 OFFCURVE",
"439 684 OFFCURVE",
"400 684 CURVE SMOOTH"
);
},
{
closed = 1;
nodes = (
"334 260 LINE",
"398 430 LINE",
"462 260 LINE"
);
}
);
};
components = (
{
name = A;
transform = "{1, 0, 0, 1, -33, 0}";
}
);
layerId = "5DA6E103-6A94-47F2-987D-4952DB8EA68E";
paths = (
{
closed = 1;
nodes = (
"362 895 OFFCURVE",
"300 841 OFFCURVE",
"292 772 CURVE SMOOTH",
"282 691 OFFCURVE",
"337 627 OFFCURVE",
"416 627 CURVE SMOOTH",
"487 627 OFFCURVE",
"549 681 OFFCURVE",
"557 750 CURVE SMOOTH",
"567 831 OFFCURVE",
"512 895 OFFCURVE",
"433 895 CURVE SMOOTH"
);
},
{
closed = 1;
nodes = (
"458 803 OFFCURVE",
"470 790 OFFCURVE",
"468 772 CURVE SMOOTH",
"464 742 OFFCURVE",
"439 719 OFFCURVE",
"411 719 CURVE SMOOTH",
"391 719 OFFCURVE",
"379 732 OFFCURVE",
"381 750 CURVE SMOOTH",
"385 780 OFFCURVE",
"410 803 OFFCURVE",
"438 803 CURVE SMOOTH"
);
}
);
width = 799;
},
{
components = (
{
name = A;
transform = "{1, 0, 0, 1, -33, 0}";
}
);
layerId = "1C84A7F3-C40A-4DC1-B8B4-102D183C348F";
paths = (
{
closed = 1;
nodes = (
"341 896 OFFCURVE",
"282 844 OFFCURVE",
"274 781 CURVE SMOOTH",
"265 712 OFFCURVE",
"315 655 OFFCURVE",
"384 655 CURVE SMOOTH",
"450 655 OFFCURVE",
"510 706 OFFCURVE",
"517 769 CURVE SMOOTH",
"526 838 OFFCURVE",
"475 896 OFFCURVE",
"406 896 CURVE SMOOTH"
);
},
{
closed = 1;
nodes = (
"443 842 OFFCURVE",
"470 815 OFFCURVE",
"466 781 CURVE SMOOTH",
"461 741 OFFCURVE",
"423 708 OFFCURVE",
"383 708 CURVE SMOOTH",
"347 708 OFFCURVE",
"321 735 OFFCURVE",
"325 769 CURVE SMOOTH",
"330 809 OFFCURVE",
"367 842 OFFCURVE",
"407 842 CURVE SMOOTH"
);
}
);
width = 738;
}
);
leftKerningGroup = A;
leftMetricsKey = A;
rightKerningGroup = A;
rightMetricsKey = A;
unicode = 00C5;
},
{
color = 0;
glyphname = Atilde;
lastChange = "2015-04-22 19:02:19 +0000";
layers = (
{
components = (
{
name = A;
},
{
name = tilde;
transform = "{1, 0, 0, 1, 190, 182}";
}
);
layerId = UUID0;
width = 686;
},
{
background = {
paths = (
{
closed = 1;
nodes = (
"-11 0 LINE",
"239 0 LINE",
"275 94 LINE",
"520 94 LINE",
"557 0 LINE",
"811 0 LINE",
"516 705 LINE",
"284 705 LINE"
);
},
{
closed = 1;
nodes = (
"334 260 LINE",
"398 430 LINE",
"462 260 LINE"
);
},
{
closed = 1;
nodes = (
"285 735 LINE",
"297 766 OFFCURVE",
"305 779 OFFCURVE",
"330 779 CURVE SMOOTH",
"359 779 OFFCURVE",
"434 740 OFFCURVE",
"492 740 CURVE SMOOTH",
"559 740 OFFCURVE",
"596 785 OFFCURVE",
"616 899 CURVE",
"515 924 LINE",
"503 893 OFFCURVE",
"495 880 OFFCURVE",
"470 880 CURVE SMOOTH",
"441 880 OFFCURVE",
"366 919 OFFCURVE",
"308 919 CURVE SMOOTH",
"241 919 OFFCURVE",
"204 874 OFFCURVE",
"184 760 CURVE"
);
}
);
};
components = (
{
name = A;
},
{
name = tilde;
transform = "{1, 0, 0, 1, 244, 154}";
}
);
layerId = "5DA6E103-6A94-47F2-987D-4952DB8EA68E";
width = 799;
},
{
components = (
{
name = A;
},
{
name = tilde;
transform = "{1, 0, 0, 1, 215, 169}";
}
);
layerId = "1C84A7F3-C40A-4DC1-B8B4-102D183C348F";
width = 738;
}
);
leftKerningGroup = A;
leftMetricsKey = A;
rightKerningGroup = A;
rightMetricsKey = A;
unicode = 00C3;
},
{
color = 0;
glyphname = AE;
lastChange = "2015-04-22 19:02:19 +0000";
layers = (
{
anchors = (
{
name = bottom;
position = "{632, 0}";
},
{
name = ogonek;
position = "{891, 10}";
},
{
name = top;
position = "{651, 699}";
}
);
background = {
paths = (
{
closed = 1;
nodes = (
"974 699 LINE",
"355 699 LINE",
"-11 0 LINE",
"134 0 LINE",
"219 159 LINE",
"472 159 LINE",
"472 0 LINE",
"986 0 LINE",
"986 110 LINE",
"601 110 LINE",
"601 294 LINE",
"936 294 LINE",
"936 397 LINE",
"601 397 LINE",
"601 589 LINE",
"974 589 LINE"
);
},
{
closed = 1;
nodes = (
"472 272 LINE",
"276 272 LINE",
"443 589 LINE",
"472 589 LINE"
);
}
);
};
layerId = UUID0;
paths = (
{
closed = 1;
nodes = (
"484 699 LINE",
"-23 0 LINE",
"1 0 LINE",
"492 679 LINE",
"780 679 LINE",
"789 699 LINE"
);
},
{
closed = 1;
nodes = (
"154 243 LINE",
"150 223 LINE",
"480 223 LINE",
"484 243 LINE"
);
},
{
closed = 1;
nodes = (
"524 699 LINE",
"438 0 LINE",
"889 0 LINE",
"891 20 LINE",
"460 20 LINE",
"501 350 LINE",
"872 350 LINE",
"874 370 LINE",
"503 370 LINE",
"541 679 LINE",
"958 679 LINE",
"961 699 LINE"
);
}
);
width = 987;
},
{
anchors = (
{
name = bottom;
position = "{775, 0}";
},
{
name = ogonek;
position = "{1069, 10}";
},
{
name = top;
position = "{711, 701}";
}
);
background = {
paths = (
{
closed = 1;
nodes = (
"-19 0 LINE",
"216 0 LINE",
"263 94 LINE",
"480 94 LINE",
"480 0 LINE",
"1057 0 LINE",
"1057 192 LINE",
"705 192 LINE",
"705 268 LINE",
"1027 268 LINE",
"1027 437 LINE",
"705 437 LINE",
"705 508 LINE",
"1052 508 LINE",
"1052 700 LINE",
"344 700 LINE"
);
},
{
closed = 1;
nodes = (
"346 260 LINE",
"474 515 LINE",
"480 515 LINE",
"480 260 LINE"
);
}
);
};
layerId = "5DA6E103-6A94-47F2-987D-4952DB8EA68E";
paths = (
{
closed = 1;
nodes = (
"431 701 LINE",
"-45 0 LINE",
"198 0 LINE",
"522 525 LINE",
"815 525 LINE",
"829 701 LINE"
);
},
{
closed = 1;
nodes = (
"227 288 LINE",
"202 122 LINE",
"605 122 LINE",
"630 288 LINE"
);
},
{
closed = 1;
nodes = (
"560 701 LINE",
"474 0 LINE",
"1076 0 LINE",
"1098 176 LINE",
"728 176 LINE",
"738 263 LINE",
"1066 263 LINE",
"1088 439 LINE",
"760 439 LINE",
"770 525 LINE",
"1131 525 LINE",
"1153 701 LINE"
);
}
);
width = 1147;
},
{
anchors = (
{
name = bottom;
position = "{694, 0}";
},
{
name = ogonek;
position = "{964, 10}";
},
{
name = top;
position = "{679, 700}";
}
);
layerId = "1C84A7F3-C40A-4DC1-B8B4-102D183C348F";
paths = (
{
closed = 1;
nodes = (
"460 700 LINE",
"-33 0 LINE",
"92 0 LINE",
"507 608 LINE",
"797 608 LINE",
"807 700 LINE"
);
},
{
closed = 1;
nodes = (
"187 264 LINE",
"174 176 LINE",
"538 176 LINE",
"551 264 LINE"
);
},
{
closed = 1;
nodes = (
"541 700 LINE",
"455 0 LINE",
"966 0 LINE",
"978 101 LINE",
"584 101 LINE",
"609 302 LINE",
"952 302 LINE",
"964 402 LINE",
"621 402 LINE",
"646 599 LINE",
"1028 599 LINE",
"1040 700 LINE"
);
}
);
width = 1052;
}
);
leftKerningGroup = A;
leftMetricsKey = A;
rightKerningGroup = E;
rightMetricsKey = E;
unicode = 00C6;
},
{
glyphname = B;
lastChange = "2015-04-22 19:02:19 +0000";
layers = (
{
background = {
paths = (
{
closed = 1;
nodes = (
"128 699 LINE",
"128 0 LINE",
"406 0 LINE SMOOTH",
"598 0 OFFCURVE",
"660 93 OFFCURVE",
"660 189 CURVE SMOOTH",
"660 282 OFFCURVE",
"603 343 OFFCURVE",
"497 364 CURVE",
"588 389 OFFCURVE",
"622 455 OFFCURVE",
"622 527 CURVE SMOOTH",
"622 630 OFFCURVE",
"564 699 OFFCURVE",
"416 699 CURVE SMOOTH"
);
},
{
closed = 1;
nodes = (
"562 353 OFFCURVE",
"640 295 OFFCURVE",
"640 189 CURVE SMOOTH",
"640 100 OFFCURVE",
"587 20 OFFCURVE",
"406 20 CURVE SMOOTH",
"148 20 LINE",
"148 353 LINE",
"406 353 LINE SMOOTH"
);
},
{
closed = 1;
nodes = (
"553 679 OFFCURVE",
"602 620 OFFCURVE",
"602 527 CURVE SMOOTH",
"602 443 OFFCURVE",
"556 372 OFFCURVE",
"406 372 CURVE SMOOTH",
"148 372 LINE",
"148 679 LINE",
"416 679 LINE SMOOTH"
);
}
);
};
layerId = UUID0;
paths = (
{
closed = 1;
nodes = (
"181 699 LINE",
"95 0 LINE",
"376 0 LINE SMOOTH",
"535 0 OFFCURVE",
"634 68 OFFCURVE",
"649 186 CURVE SMOOTH",
"661 286 OFFCURVE",
"605 351 OFFCURVE",
"496 364 CURVE",
"586 379 OFFCURVE",
"643 438 OFFCURVE",
"653 525 CURVE SMOOTH",
"667 636 OFFCURVE",
"597 699 OFFCURVE",
"462 699 CURVE SMOOTH"
);
},
{
closed = 1;
nodes = (
"566 353 OFFCURVE",
"643 293 OFFCURVE",
"630 189 CURVE SMOOTH",
"617 81 OFFCURVE",
"525 20 OFFCURVE",
"378 20 CURVE SMOOTH",
"117 20 LINE",
"158 353 LINE",
"419 353 LINE SMOOTH"
);
},
{
closed = 1;
nodes = (
"582 679 OFFCURVE",
"645 623 OFFCURVE",
"634 527 CURVE SMOOTH",
"622 428 OFFCURVE",
"545 372 OFFCURVE",
"422 372 CURVE SMOOTH",
"161 372 LINE",
"198 679 LINE",
"459 679 LINE SMOOTH"
);
}
);
width = 731;
},
{
background = {
paths = (
{
closed = 1;
nodes = (
"40 0 LINE",
"428 0 LINE SMOOTH",
"605 0 OFFCURVE",
"697 82 OFFCURVE",
"697 194 CURVE SMOOTH",
"697 196 LINE SMOOTH",
"697 292 OFFCURVE",
"639 340 OFFCURVE",
"549 366 CURVE",
"624 392 OFFCURVE",
"674 443 OFFCURVE",
"674 526 CURVE SMOOTH",
"674 528 LINE SMOOTH",
"674 576 OFFCURVE",
"656 612 OFFCURVE",
"631 637 CURVE SMOOTH",
"590 678 OFFCURVE",
"529 700 OFFCURVE",
"432 700 CURVE SMOOTH",
"40 700 LINE"
);
},
{
closed = 1;
nodes = (
"268 425 LINE",
"268 523 LINE",
"369 523 LINE SMOOTH",
"419 523 OFFCURVE",
"444 506 OFFCURVE",
"444 475 CURVE SMOOTH",
"444 473 LINE SMOOTH",
"444 442 OFFCURVE",
"420 425 OFFCURVE",
"370 425 CURVE SMOOTH"
);
},
{
closed = 1;
nodes = (
"268 177 LINE",
"268 281 LINE",
"386 281 LINE SMOOTH",
"437 281 OFFCURVE",
"462 260 OFFCURVE",
"462 230 CURVE SMOOTH",
"462 228 LINE SMOOTH",
"462 198 OFFCURVE",
"436 177 OFFCURVE",
"385 177 CURVE SMOOTH"
);
}
);
};
layerId = "5DA6E103-6A94-47F2-987D-4952DB8EA68E";
paths = (
{
closed = 1;
nodes = (
"103 701 LINE",
"17 0 LINE",
"393 0 LINE SMOOTH",
"564 0 OFFCURVE",
"680 72 OFFCURVE",
"694 186 CURVE SMOOTH",
"705 280 OFFCURVE",
"655 354 OFFCURVE",
"578 371 CURVE",
"656 394 OFFCURVE",
"705 450 OFFCURVE",
"713 513 CURVE SMOOTH",
"727 626 OFFCURVE",
"623 701 OFFCURVE",
"454 701 CURVE SMOOTH"
);
},
{
closed = 1;
nodes = (
"440 277 OFFCURVE",
"462 262 OFFCURVE",
"459 237 CURVE SMOOTH",
"454 197 OFFCURVE",
"419 170 OFFCURVE",
"376 170 CURVE SMOOTH",
"269 170 LINE",
"282 277 LINE",
"397 277 LINE SMOOTH"
);
},
{
closed = 1;
nodes = (
"460 531 OFFCURVE",
"475 517 OFFCURVE",
"473 493 CURVE SMOOTH",
"468 456 OFFCURVE",
"440 431 OFFCURVE",
"408 431 CURVE SMOOTH",
"301 431 LINE",
"313 531 LINE",
"428 531 LINE SMOOTH"
);
}
);
width = 724;
},
{
layerId = "1C84A7F3-C40A-4DC1-B8B4-102D183C348F";
paths = (
{
closed = 1;
nodes = (
"145 700 LINE",
"59 0 LINE",
"372 0 LINE SMOOTH",
"531 0 OFFCURVE",
"633 69 OFFCURVE",
"648 186 CURVE SMOOTH",
"660 283 OFFCURVE",
"610 352 OFFCURVE",
"520 368 CURVE",
"600 386 OFFCURVE",
"652 443 OFFCURVE",
"662 519 CURVE SMOOTH",
"675 631 OFFCURVE",
"592 700 OFFCURVE",
"447 700 CURVE SMOOTH"
);
},
{
closed = 1;
nodes = (
"489 308 OFFCURVE",
"538 273 OFFCURVE",
"530 212 CURVE SMOOTH",
"521 141 OFFCURVE",
"459 101 OFFCURVE",
"367 101 CURVE SMOOTH",
"189 101 LINE",
"214 308 LINE",
"397 308 LINE SMOOTH"
);
},
{
closed = 1;
nodes = (
"508 599 OFFCURVE",
"547 569 OFFCURVE",
"540 512 CURVE SMOOTH",
"532 447 OFFCURVE",
"480 409 OFFCURVE",
"405 409 CURVE SMOOTH",
"227 409 LINE",
"250 599 LINE",
"433 599 LINE SMOOTH"
);
}
);
width = 706;
}
);
leftKerningGroup = H;
rightKerningGroup = B;
unicode = 0042;
},
{
glyphname = C;
lastChange = "2015-04-22 19:02:19 +0000";
layers = (
{
anchors = (
{
name = bottom;
position = "{364, 0}";
},
{
name = top;
position = "{406, 699}";
}
);
background = {
paths = (
{
closed = 1;
nodes = (
"287 107 OFFCURVE",
"175 215 OFFCURVE",
"175 352 CURVE SMOOTH",
"175 504 OFFCURVE",
"287 600 OFFCURVE",
"425 600 CURVE SMOOTH",
"504 600 OFFCURVE",
"557 578 OFFCURVE",
"624 514 CURVE",
"699 596 LINE",
"641 660 OFFCURVE",
"554 716 OFFCURVE",
"420 716 CURVE SMOOTH",
"215 716 OFFCURVE",
"52 561 OFFCURVE",
"52 354 CURVE SMOOTH",
"52 142 OFFCURVE",
"211 -8 OFFCURVE",
"416 -8 CURVE SMOOTH",
"547 -8 OFFCURVE",
"631 51 OFFCURVE",
"689 115 CURVE",
"613 193 LINE",
"553 137 OFFCURVE",
"502 107 OFFCURVE",
"416 107 CURVE SMOOTH"
);
}
);
};
layerId = UUID0;
paths = (
{
closed = 1;
nodes = (
"265 699 OFFCURVE",
"84 542 OFFCURVE",
"60 351 CURVE SMOOTH",
"36 158 OFFCURVE",
"179 0 OFFCURVE",
"377 0 CURVE SMOOTH",
"468 0 OFFCURVE",
"557 35 OFFCURVE",
"628 91 CURVE",
"615 104 LINE",
"549 51 OFFCURVE",
"465 19 OFFCURVE",
"377 19 CURVE SMOOTH",
"191 19 OFFCURVE",
"57 168 OFFCURVE",
"79 349 CURVE SMOOTH",
"101 532 OFFCURVE",
"272 680 OFFCURVE",
"460 680 CURVE SMOOTH",
"546 680 OFFCURVE",
"623 649 OFFCURVE",
"676 596 CURVE",
"691 609 LINE",
"634 665 OFFCURVE",
"554 699 OFFCURVE",
"461 699 CURVE SMOOTH"
);
}
);
width = 705;
},
{
anchors = (
{
name = bottom;
position = "{335, 0}";
},
{
name = top;
position = "{447, 701}";
}
);
background = {
paths = (
{
closed = 1;
nodes = (
"561 -15 OFFCURVE",
"659 70 OFFCURVE",
"718 174 CURVE",
"525 283 LINE",
"496 231 OFFCURVE",
"459 195 OFFCURVE",
"393 195 CURVE SMOOTH",
"316 195 OFFCURVE",
"262 259 OFFCURVE",
"262 350 CURVE SMOOTH",
"262 352 LINE SMOOTH",
"262 436 OFFCURVE",
"314 505 OFFCURVE",
"393 505 CURVE SMOOTH",
"457 505 OFFCURVE",
"494 470 OFFCURVE",
"520 420 CURVE",
"713 533 LINE",
"654 640 OFFCURVE",
"550 715 OFFCURVE",
"396 715 CURVE SMOOTH",
"187 715 OFFCURVE",
"24 559 OFFCURVE",
"24 350 CURVE SMOOTH",
"24 348 LINE SMOOTH",
"24 131 OFFCURVE",
"193 -15 OFFCURVE",
"387 -15 CURVE SMOOTH"
);
}
);
};
layerId = "5DA6E103-6A94-47F2-987D-4952DB8EA68E";
paths = (
{
closed = 1;
nodes = (
"225 708 OFFCURVE",
"51 563 OFFCURVE",
"27 363 CURVE SMOOTH",
"0 148 OFFCURVE",
"141 -10 OFFCURVE",
"360 -10 CURVE SMOOTH",
"464 -10 OFFCURVE",
"588 41 OFFCURVE",
"676 126 CURVE",
"554 277 LINE",
"503 228 OFFCURVE",
"435 193 OFFCURVE",
"381 193 CURVE SMOOTH",
"301 193 OFFCURVE",
"251 256 OFFCURVE",
"262 344 CURVE SMOOTH",
"274 443 OFFCURVE",
"348 515 OFFCURVE",
"436 515 CURVE SMOOTH",
"486 515 OFFCURVE",
"543 482 OFFCURVE",
"578 425 CURVE",
"728 576 LINE",
"663 654 OFFCURVE",
"552 708 OFFCURVE",
"441 708 CURVE SMOOTH"
);
}
);
width = 688;
},
{
anchors = (
{
name = bottom;
position = "{350, 0}";
},
{
name = top;
position = "{425, 700}";
}
);
layerId = "1C84A7F3-C40A-4DC1-B8B4-102D183C348F";
paths = (
{
closed = 1;
nodes = (
"246 703 OFFCURVE",
"69 552 OFFCURVE",
"45 357 CURVE SMOOTH",
"20 154 OFFCURVE",
"161 -5 OFFCURVE",
"368 -5 CURVE SMOOTH",
"465 -5 OFFCURVE",
"572 38 OFFCURVE",
"651 107 CURVE",
"587 184 LINE",
"527 133 OFFCURVE",
"451 99 OFFCURVE",
"379 99 CURVE SMOOTH",
"241 99 OFFCURVE",
"147 208 OFFCURVE",
"163 346 CURVE SMOOTH",
"181 490 OFFCURVE",
"307 604 OFFCURVE",
"449 604 CURVE SMOOTH",
"518 604 OFFCURVE",
"586 572 OFFCURVE",
"630 517 CURVE",
"707 594 LINE",
"646 660 OFFCURVE",
"552 703 OFFCURVE",
"451 703 CURVE SMOOTH"
);
}
);
width = 697;
}
);
leftKerningGroup = O;
rightKerningGroup = C;
unicode = 0043;
},
{
color = 0;
glyphname = Ccedilla;
lastChange = "2015-04-22 19:02:19 +0000";
layers = (
{
components = (
{
name = C;
},
{
name = cedilla;
transform = "{1, 0, 0, 1, 222, 0}";
}
);
layerId = UUID0;
width = 705;
},
{
background = {
paths = (
{
closed = 1;
nodes = (
"388 -173 LINE",
"436 -13 LINE",
"580 2 OFFCURVE",
"665 80 OFFCURVE",
"718 174 CURVE",
"525 283 LINE",
"496 231 OFFCURVE",
"459 195 OFFCURVE",
"393 195 CURVE SMOOTH",
"316 195 OFFCURVE",
"262 259 OFFCURVE",
"262 350 CURVE SMOOTH",
"262 352 LINE SMOOTH",
"262 436 OFFCURVE",
"314 505 OFFCURVE",
"393 505 CURVE SMOOTH",
"457 505 OFFCURVE",
"494 470 OFFCURVE",
"520 420 CURVE",
"713 533 LINE",
"654 640 OFFCURVE",
"550 715 OFFCURVE",
"396 715 CURVE SMOOTH",
"187 715 OFFCURVE",
"24 559 OFFCURVE",
"24 350 CURVE SMOOTH",
"24 348 LINE SMOOTH",
"24 168 OFFCURVE",
"140 37 OFFCURVE",
"291 -3 CURVE",
"214 -98 LINE"
);
}
);
};
components = (
{
name = C;
},
{
name = cedilla;
transform = "{1, 0, 0, 1, 193, 0}";
}
);
layerId = "5DA6E103-6A94-47F2-987D-4952DB8EA68E";
width = 688;
},
{
components = (
{
name = C;
},
{
name = cedilla;
transform = "{1, 0, 0, 1, 208, 0}";
}
);
layerId = "1C84A7F3-C40A-4DC1-B8B4-102D183C348F";
width = 697;
}
);
leftKerningGroup = O;
leftMetricsKey = C;
rightKerningGroup = C;
rightMetricsKey = C;
unicode = 00C7;
},
{
glyphname = D;
lastChange = "2015-04-22 19:02:19 +0000";
layers = (
{
anchors = (
{
name = center;
position = "{416, 350}";
},
{
name = top;
position = "{439, 699}";
}
);
background = {
paths = (
{
closed = 1;
nodes = (
"727 569 OFFCURVE",
"590 699 OFFCURVE",
"337 699 CURVE SMOOTH",
"97 699 LINE",
"97 0 LINE",
"329 0 LINE SMOOTH",
"610 0 OFFCURVE",
"727 148 OFFCURVE",
"727 350 CURVE SMOOTH"
);
},
{
closed = 1;
nodes = (
"608 192 OFFCURVE",
"514 111 OFFCURVE",
"346 111 CURVE SMOOTH",
"215 111 LINE",
"215 590 LINE",
"333 590 LINE SMOOTH",
"525 590 OFFCURVE",
"608 499 OFFCURVE",
"608 350 CURVE SMOOTH"
);
}
);
};
layerId = UUID0;
paths = (
{
closed = 1;
nodes = (
"181 699 LINE",
"95 0 LINE",
"370 0 LINE SMOOTH",
"567 0 OFFCURVE",
"747 157 OFFCURVE",
"771 348 CURVE SMOOTH",
"795 542 OFFCURVE",
"653 699 OFFCURVE",
"456 699 CURVE SMOOTH"
);
},
{
closed = 1;
nodes = (
"639 679 OFFCURVE",
"773 531 OFFCURVE",
"751 350 CURVE SMOOTH",
"729 168 OFFCURVE",
"558 20 OFFCURVE",
"372 20 CURVE SMOOTH",
"117 20 LINE",
"198 679 LINE",
"453 679 LINE SMOOTH"
);
}
);
width = 811;
},
{
anchors = (
{
name = center;
position = "{382, 351}";
},
{
name = top;
position = "{405, 701}";
}
);
background = {
paths = (
{
closed = 1;
nodes = (
"40 0 LINE",
"300 0 LINE SMOOTH",
"583 0 OFFCURVE",
"725 147 OFFCURVE",
"725 354 CURVE SMOOTH",
"725 356 LINE SMOOTH",
"725 563 OFFCURVE",
"586 700 OFFCURVE",
"308 700 CURVE SMOOTH",
"40 700 LINE"
);
},
{
closed = 1;
nodes = (
"274 204 LINE",
"274 496 LINE",
"313 496 LINE SMOOTH",
"420 496 OFFCURVE",
"489 452 OFFCURVE",
"489 351 CURVE SMOOTH",
"489 349 LINE SMOOTH",
"489 248 OFFCURVE",
"420 204 OFFCURVE",
"313 204 CURVE SMOOTH"
);
}
);
};
layerId = "5DA6E103-6A94-47F2-987D-4952DB8EA68E";
paths = (
{
closed = 1;
nodes = (
"103 701 LINE",
"17 0 LINE",
"325 0 LINE SMOOTH",
"562 0 OFFCURVE",
"727 133 OFFCURVE",
"753 340 CURVE SMOOTH",
"780 559 OFFCURVE",
"643 701 OFFCURVE",
"412 701 CURVE SMOOTH"
);
},
{
closed = 1;
nodes = (
"483 521 OFFCURVE",
"530 458 OFFCURVE",
"518 360 CURVE SMOOTH",
"505 251 OFFCURVE",
"438 180 OFFCURVE",
"354 180 CURVE SMOOTH",
"271 180 LINE",
"313 521 LINE",
"393 521 LINE SMOOTH"
);
}
);
width = 759;
},
{
anchors = (
{
name = center;
position = "{395, 350}";
},
{
name = top;
position = "{418, 700}";
}
);
layerId = "1C84A7F3-C40A-4DC1-B8B4-102D183C348F";
paths = (
{
closed = 1;
nodes = (
"145 700 LINE",
"59 0 LINE",
"345 0 LINE SMOOTH",
"557 0 OFFCURVE",
"726 146 OFFCURVE",
"750 344 CURVE SMOOTH",
"776 550 OFFCURVE",
"639 700 OFFCURVE",
"430 700 CURVE SMOOTH"
);
},
{
closed = 1;
nodes = (
"558 599 OFFCURVE",
"650 498 OFFCURVE",
"633 355 CURVE SMOOTH",
"614 207 OFFCURVE",
"495 101 OFFCURVE",
"359 101 CURVE SMOOTH",
"189 101 LINE",
"250 599 LINE",
"421 599 LINE SMOOTH"
);
}
);
width = 775;
}
);
leftKerningGroup = H;
rightKerningGroup = O;
unicode = 0044;
},
{
color = 0;
glyphname = Eth;
lastChange = "2015-04-22 19:02:19 +0000";
layers = (
{
components = (
{
name = D;
transform = "{1, 0, 0, 1, -33, 0}";
}
);
layerId = UUID0;
paths = (
{
closed = 1;
nodes = (
"11 362 LINE",
"9 342 LINE",
"419 342 LINE",
"421 362 LINE"
);
}
);
width = 811;
},
{
background = {
paths = (
{
closed = 1;
nodes = (
"108 0 LINE",
"368 0 LINE SMOOTH",
"651 0 OFFCURVE",
"793 147 OFFCURVE",
"793 354 CURVE SMOOTH",
"793 356 LINE SMOOTH",
"793 563 OFFCURVE",
"654 700 OFFCURVE",
"376 700 CURVE SMOOTH",
"108 700 LINE",
"108 437 LINE",
"23 437 LINE",
"23 268 LINE",
"108 268 LINE"
);
},
{
closed = 1;
nodes = (
"332 194 LINE",
"332 268 LINE",
"418 268 LINE",
"418 437 LINE",
"332 437 LINE",
"332 506 LINE",
"381 506 LINE SMOOTH",
"493 506 OFFCURVE",
"557 457 OFFCURVE",
"557 351 CURVE SMOOTH",
"557 349 LINE SMOOTH",
"557 243 OFFCURVE",
"493 194 OFFCURVE",
"381 194 CURVE SMOOTH"
);
}
);
};
components = (
{
name = D;
transform = "{1, 0, 0, 1, 10, 0}";
}
);
layerId = "5DA6E103-6A94-47F2-987D-4952DB8EA68E";
paths = (
{
closed = 1;
nodes = (
"17 410 LINE",
"3 291 LINE",
"451 291 LINE",
"465 410 LINE"
);
}
);
width = 802;
},
{
components = (
{
name = D;
transform = "{1, 0, 0, 1, -13, 0}";
}
);
layerId = "1C84A7F3-C40A-4DC1-B8B4-102D183C348F";
paths = (
{
closed = 1;
nodes = (
"14 384 LINE",
"6 318 LINE",
"434 318 LINE",
"442 384 LINE"
);
}
);
width = 795;
}
);
leftKerningGroup = H;
rightKerningGroup = O;
rightMetricsKey = D;
unicode = 00D0;
},
{
color = 0;
glyphname = E;
lastChange = "2015-04-22 19:02:19 +0000";
layers = (
{
anchors = (
{
name = bottom;
position = "{289, 0}";
},
{
name = ogonek;
position = "{548, 10}";
},
{
name = top;
position = "{404, 699}";
}
);
background = {
paths = (
{
closed = 1;
nodes = (
"588 699 LINE",
"97 699 LINE",
"97 0 LINE",
"600 0 LINE",
"600 111 LINE",
"215 111 LINE",
"215 298 LINE",
"550 298 LINE",
"550 403 LINE",
"215 403 LINE",
"215 588 LINE",
"588 588 LINE"
);
}
);
};
layerId = UUID0;
paths = (
{
closed = 1;
nodes = (
"181 699 LINE",
"95 0 LINE",
"546 0 LINE",
"548 20 LINE",
"117 20 LINE",
"158 350 LINE",
"529 350 LINE",
"531 370 LINE",
"160 370 LINE",
"198 679 LINE",
"615 679 LINE",
"618 699 LINE"
);
}
);
width = 644;
},
{
anchors = (
{
name = bottom;
position = "{318, 0}";
},
{
name = ogonek;
position = "{612, 10}";
},
{
name = top;
position = "{401, 701}";
}
);
background = {
paths = (
{
closed = 1;
nodes = (
"40 0 LINE",
"642 0 LINE",
"642 192 LINE",
"270 192 LINE",
"270 268 LINE",
"612 268 LINE",
"612 437 LINE",
"270 437 LINE",
"270 508 LINE",
"637 508 LINE",
"637 700 LINE",
"40 700 LINE"
);
}
);
};
layerId = "5DA6E103-6A94-47F2-987D-4952DB8EA68E";
paths = (
{
closed = 1;
nodes = (
"103 701 LINE",
"17 0 LINE",
"619 0 LINE",
"641 176 LINE",
"271 176 LINE",
"281 263 LINE",
"609 263 LINE",
"631 439 LINE",
"303 439 LINE",
"313 525 LINE",
"674 525 LINE",
"696 701 LINE"
);
}
);
width = 690;
},
{
anchors = (
{
name = bottom;
position = "{298, 0}";
},
{
name = ogonek;
position = "{568, 10}";
},
{
name = top;
position = "{397, 700}";
}
);
layerId = "1C84A7F3-C40A-4DC1-B8B4-102D183C348F";
paths = (
{
closed = 1;
nodes = (
"145 700 LINE",
"59 0 LINE",
"571 0 LINE",
"583 101 LINE",
"189 101 LINE",
"214 302 LINE",
"556 302 LINE",
"569 402 LINE",
"226 402 LINE",
"250 599 LINE",
"632 599 LINE",
"644 700 LINE"
);
}
);
width = 656;
}
);
leftKerningGroup = H;
rightKerningGroup = E;
unicode = 0045;
},
{
color = 0;
glyphname = E.ss01;
lastChange = "2015-04-22 19:02:19 +0000";
layers = (
{
anchors = (
{
name = bottom;
position = "{236, 0}";
},
{
name = ogonek;
position = "{452, 10}";
},
{
name = top;
position = "{322, 699}";
}
);
background = {
paths = (
{
closed = 1;
nodes = (
"511.93 66.619 LINE",
"462.174 37.351 OFFCURVE",
"392.769 20 OFFCURVE",
"322 20 CURVE",
"174.457 20 OFFCURVE",
"89 86.932 OFFCURVE",
"89 179 CURVE",
"89 285.605 OFFCURVE",
"157.049 335.998 OFFCURVE",
"306.106 367.987 CURVE",
"173.376 403.4 OFFCURVE",
"119 450.729 OFFCURVE",
"119 528 CURVE",
"119 614.967 OFFCURVE",
"203.375 679 OFFCURVE",
"324 679 CURVE",
"375.955 679 OFFCURVE",
"444.623 664.493 OFFCURVE",
"480.432 646.104 CURVE",
"489.568 663.896 LINE",
"451.377 683.507 OFFCURVE",
"378.045 699 OFFCURVE",
"324 699 CURVE",
"194.657 699 OFFCURVE",
"99 626.989 OFFCURVE",
"99 528 CURVE",
"99 457.177 OFFCURVE",
"143.086 405.606 OFFCURVE",
"234.375 369.947 CURVE",
"125.674 335.067 OFFCURVE",
"69 276.835 OFFCURVE",
"69 179 CURVE",
"69 75.109 OFFCURVE",
"165.569 0 OFFCURVE",
"322 0 CURVE",
"395.231 0 OFFCURVE",
"469.826 18.649 OFFCURVE",
"522.07 49.381 CURVE"
);
},
{
closed = 1;
nodes = (
"245 360 LINE",
"435 360 LINE",
"435 380 LINE",
"245 380 LINE"
);
}
);
};
layerId = UUID0;
paths = (
{
closed = 1;
nodes = (
"238 699 OFFCURVE",
"134 627 OFFCURVE",
"122 529 CURVE SMOOTH",
"112 450 OFFCURVE",
"171 383 OFFCURVE",
"261 370 CURVE",
"151 358 OFFCURVE",
"62 282 OFFCURVE",
"50 190 CURVE SMOOTH",
"37 80 OFFCURVE",
"134 0 OFFCURVE",
"281 0 CURVE SMOOTH",
"347 0 OFFCURVE",
"435 21 OFFCURVE",
"486 49 CURVE",
"477 67 LINE",
"425 40 OFFCURVE",
"342 20 OFFCURVE",
"281 20 CURVE SMOOTH",
"147 20 OFFCURVE",
"58 91 OFFCURVE",
"70 188 CURVE SMOOTH",
"82 288 OFFCURVE",
"191 360 OFFCURVE",
"328 360 CURVE SMOOTH",
"437 360 LINE",
"440 380 LINE",
"331 380 LINE SMOOTH",
"211 380 OFFCURVE",
"131 442 OFFCURVE",
"142 527 CURVE SMOOTH",
"153 615 OFFCURVE",
"246 679 OFFCURVE",
"366 679 CURVE SMOOTH",
"419 679 OFFCURVE",
"484 665 OFFCURVE",
"517 646 CURVE",
"530 664 LINE",
"492 684 OFFCURVE",
"424 699 OFFCURVE",
"367 699 CURVE SMOOTH"
);
}
);
width = 538;
},
{
anchors = (
{
name = bottom;
position = "{285, 0}";
},
{
name = ogonek;
position = "{539, 10}";
},
{
name = top;
position = "{371, 701}";
}
);
background = {
paths = (
{
closed = 1;
nodes = (
"58 701 LINE",
"58 0 LINE",
"660 0 LINE",
"660 176 LINE",
"290 176 LINE",
"290 263 LINE",
"618 263 LINE",
"618 439 LINE",
"290 439 LINE",
"290 525 LINE",
"651 525 LINE",
"651 701 LINE"
);
}
);
};
layerId = "5DA6E103-6A94-47F2-987D-4952DB8EA68E";
paths = (
{
closed = 1;
nodes = (
"227 711 OFFCURVE",
"111 642 OFFCURVE",
"97 531 CURVE SMOOTH",
"89 462 OFFCURVE",
"117 399 OFFCURVE",
"160 374 CURVE",
"78 342 OFFCURVE",
"26 275 OFFCURVE",
"17 204 CURVE SMOOTH",
"1 74 OFFCURVE",
"119 -10 OFFCURVE",
"298 -10 CURVE SMOOTH",
"407 -10 OFFCURVE",
"528 20 OFFCURVE",
"603 64 CURVE",
"529 237 LINE",
"496 214 OFFCURVE",
"410 176 OFFCURVE",
"339 176 CURVE SMOOTH",
"291 176 OFFCURVE",
"256 192 OFFCURVE",
"259 219 CURVE SMOOTH",
"263 250 OFFCURVE",
"293 271 OFFCURVE",
"329 271 CURVE SMOOTH",
"507 271 LINE",
"528 438 LINE",
"342 438 LINE SMOOTH",
"317 438 OFFCURVE",
"306 451 OFFCURVE",
"308 465 CURVE SMOOTH",
"313 503 OFFCURVE",
"358 525 OFFCURVE",
"415 525 CURVE SMOOTH",
"458 525 OFFCURVE",
"510 513 OFFCURVE",
"560 489 CURVE",
"647 653 LINE",
"592 685 OFFCURVE",
"490 711 OFFCURVE",
"392 711 CURVE SMOOTH"
);
}
);
width = 635;
},
{
anchors = (
{
name = bottom;
position = "{259, 0}";
},
{
name = ogonek;
position = "{493, 10}";
},
{
name = top;
position = "{345, 700}";
}
);
layerId = "1C84A7F3-C40A-4DC1-B8B4-102D183C348F";
paths = (
{
closed = 1;
nodes = (
"233 705 OFFCURVE",
"124 634 OFFCURVE",
"111 532 CURVE SMOOTH",
"102 454 OFFCURVE",
"147 390 OFFCURVE",
"215 371 CURVE",
"114 350 OFFCURVE",
"45 277 OFFCURVE",
"35 196 CURVE SMOOTH",
"21 78 OFFCURVE",
"127 -5 OFFCURVE",
"287 -5 CURVE SMOOTH",
"375 -5 OFFCURVE",
"479 21 OFFCURVE",
"541 56 CURVE",
"501 145 LINE",
"456 120 OFFCURVE",
"368 94 OFFCURVE",
"297 94 CURVE SMOOTH",
"211 94 OFFCURVE",
"148 131 OFFCURVE",
"156 195 CURVE SMOOTH",
"164 263 OFFCURVE",
"238 314 OFFCURVE",
"329 314 CURVE SMOOTH",
"469 314 LINE",
"481 414 LINE",
"337 414 LINE SMOOTH",
"259 414 OFFCURVE",
"213 455 OFFCURVE",
"219 509 CURVE SMOOTH",
"227 572 OFFCURVE",
"295 606 OFFCURVE",
"380 606 CURVE SMOOTH",
"430 606 OFFCURVE",
"493 595 OFFCURVE",
"537 574 CURVE",
"584 659 LINE",
"536 686 OFFCURVE",
"451 705 OFFCURVE",
"379 705 CURVE SMOOTH"
);
}
);
width = 583;
}
);
leftKerningGroup = E.ss01;
leftMetricsKey = eight;
rightKerningGroup = E.ss01;
},
{
color = 0;
glyphname = Eacute;
lastChange = "2015-04-22 19:02:19 +0000";
layers = (
{
background = {
components = (
{
name = E;
},
{
name = acute;
transform = "{1, 0, 0, 1, -44, 129}";
}
);
};
components = (
{
name = E;
},
{
name = acute;
transform = "{1, 0, 0, 1, 247, 182}";
}
);
layerId = UUID0;
width = 644;
},
{
background = {
paths = (
{
closed = 1;
nodes = (
"40 0 LINE",
"642 0 LINE",
"642 192 LINE",
"270 192 LINE",
"270 268 LINE",
"612 268 LINE",
"612 437 LINE",
"270 437 LINE",
"270 508 LINE",
"637 508 LINE",
"637 700 LINE",
"40 700 LINE"
);
},
{
closed = 1;
nodes = (
"239 740 LINE",
"391 740 LINE",
"556 875 LINE",
"335 932 LINE"
);
}
);
};
components = (
{
name = E;
},
{
name = acute;
transform = "{1, 0, 0, 1, 235, 154}";
}
);
layerId = "5DA6E103-6A94-47F2-987D-4952DB8EA68E";
width = 690;
},
{
components = (
{
name = E;
},
{
name = acute;
transform = "{1, 0, 0, 1, 236, 169}";
}
);
layerId = "1C84A7F3-C40A-4DC1-B8B4-102D183C348F";
width = 656;
}
);
leftKerningGroup = H;
leftMetricsKey = E;
rightKerningGroup = E;
rightMetricsKey = E;
unicode = 00C9;
},
{
color = 0;
glyphname = Ecircumflex;
lastChange = "2015-04-22 19:02:19 +0000";
layers = (
{
components = (
{
name = E;
},
{
name = circumflex;
transform = "{1, 0, 0, 1, 199, 182}";
}
);
layerId = UUID0;
width = 644;
},
{
background = {
paths = (
{
closed = 1;
nodes = (
"40 0 LINE",
"642 0 LINE",
"642 192 LINE",
"270 192 LINE",
"270 268 LINE",
"612 268 LINE",
"612 437 LINE",
"270 437 LINE",
"270 508 LINE",
"637 508 LINE",
"637 700 LINE",
"40 700 LINE"
);
},
{
closed = 1;
nodes = (
"129 740 LINE",
"254 740 LINE",
"343 796 LINE",
"432 740 LINE",
"559 740 LINE",
"426 912 LINE",
"262 912 LINE"
);
}
);
};
components = (
{
name = E;
},
{
name = circumflex;
transform = "{1, 0, 0, 1, 192, 154}";
}
);
layerId = "5DA6E103-6A94-47F2-987D-4952DB8EA68E";
width = 690;
},
{
components = (
{
name = E;
},
{
name = circumflex;
transform = "{1, 0, 0, 1, 189, 166}";
}
);
layerId = "1C84A7F3-C40A-4DC1-B8B4-102D183C348F";
width = 656;
}
);
leftKerningGroup = H;
leftMetricsKey = E;
rightKerningGroup = E;
rightMetricsKey = E;
unicode = 00CA;
},
{
color = 0;
glyphname = Edieresis;
lastChange = "2015-04-22 19:02:19 +0000";
layers = (
{
components = (
{
name = E;
},
{
name = dieresis;
transform = "{1, 0, 0, 1, 199, 182}";
}
);
layerId = UUID0;
width = 644;
},
{
background = {
paths = (
{
closed = 1;
nodes = (
"40 0 LINE",
"642 0 LINE",
"642 192 LINE",
"270 192 LINE",
"270 268 LINE",
"612 268 LINE",
"612 437 LINE",
"270 437 LINE",
"270 508 LINE",
"637 508 LINE",
"637 700 LINE",
"40 700 LINE"
);
},
{
closed = 1;
nodes = (
"364 740 LINE",
"548 740 LINE",
"548 890 LINE",
"364 890 LINE"
);
},
{
closed = 1;
nodes = (
"140 740 LINE",
"324 740 LINE",
"324 890 LINE",
"140 890 LINE"
);
}
);
};
components = (
{
name = E;
},
{
name = dieresis;
transform = "{1, 0, 0, 1, 192, 154}";
}
);
layerId = "5DA6E103-6A94-47F2-987D-4952DB8EA68E";
width = 690;
},
{
components = (
{
name = E;
},
{
name = dieresis;
transform = "{1, 0, 0, 1, 190, 169}";
}
);
layerId = "1C84A7F3-C40A-4DC1-B8B4-102D183C348F";
width = 656;
}
);
leftKerningGroup = H;
leftMetricsKey = E;
rightKerningGroup = E;
rightMetricsKey = E;
unicode = 00CB;
},
{
color = 0;
glyphname = Egrave;
lastChange = "2015-04-22 19:02:19 +0000";
layers = (
{
components = (
{
name = E;
},
{
name = grave;
transform = "{1, 0, 0, 1, 150, 182}";
}
);
layerId = UUID0;
width = 644;
},
{
background = {
paths = (
{
closed = 1;
nodes = (
"40 0 LINE",
"642 0 LINE",
"642 192 LINE",
"270 192 LINE",
"270 268 LINE",
"612 268 LINE",
"612 437 LINE",
"270 437 LINE",
"270 508 LINE",
"637 508 LINE",
"637 700 LINE",
"40 700 LINE"
);
},
{
closed = 1;
nodes = (
"309 740 LINE",
"461 740 LINE",
"365 932 LINE",
"144 875 LINE"
);
}
);
};
components = (
{
name = E;
},
{
name = grave;
transform = "{1, 0, 0, 1, 155, 154}";
}
);
layerId = "5DA6E103-6A94-47F2-987D-4952DB8EA68E";
width = 690;
},
{
components = (
{
name = E;
},
{
name = grave;
transform = "{1, 0, 0, 1, 146, 169}";
}
);
layerId = "1C84A7F3-C40A-4DC1-B8B4-102D183C348F";
width = 656;
}
);
leftKerningGroup = H;
leftMetricsKey = E;
rightKerningGroup = E;
rightMetricsKey = E;
unicode = 00C8;
},
{
color = 0;
glyphname = Eogonek;
lastChange = "2015-04-22 19:02:19 +0000";
layers = (
{
layerId = UUID0;
paths = (
{
closed = 1;
nodes = (
"181 699 LINE",
"95 0 LINE",
"469 0 LINE",
"417 -62 OFFCURVE",
"397 -99 OFFCURVE",
"393 -130 CURVE SMOOTH",
"388 -172 OFFCURVE",
"413 -199 OFFCURVE",
"450 -199 CURVE SMOOTH",
"476 -199 OFFCURVE",
"506 -181 OFFCURVE",
"527 -159 CURVE",
"515 -145 LINE",
"495 -165 OFFCURVE",
"473 -179 OFFCURVE",
"450 -179 CURVE SMOOTH",
"426 -179 OFFCURVE",
"409 -162 OFFCURVE",
"413 -132 CURVE SMOOTH",
"417 -100 OFFCURVE",
"433 -66 OFFCURVE",
"489 0 CURVE",
"546 0 LINE",
"548 20 LINE",
"117 20 LINE",
"158 350 LINE",
"529 350 LINE",
"531 370 LINE",
"160 370 LINE",
"198 679 LINE",
"615 679 LINE",
"618 699 LINE"
);
}
);
width = 644;
},
{
layerId = "5DA6E103-6A94-47F2-987D-4952DB8EA68E";
paths = (
{
closed = 1;
nodes = (
"103 701 LINE",
"17 0 LINE",
"437 5 LINE",
"408 -31 OFFCURVE",
"386 -70 OFFCURVE",
"382 -105 CURVE SMOOTH",
"373 -180 OFFCURVE",
"428 -204 OFFCURVE",
"474 -204 CURVE SMOOTH",
"519 -204 OFFCURVE",
"562 -184 OFFCURVE",
"597 -133 CURVE",
"546 -59 LINE",
"533 -78 OFFCURVE",
"516 -94 OFFCURVE",
"499 -94 CURVE SMOOTH",
"495 -94 OFFCURVE",
"493 -94 OFFCURVE",
"494 -90 CURVE SMOOTH",
"497 -68 OFFCURVE",
"518 -38 OFFCURVE",
"545 -5 CURVE",
"619 0 LINE",
"641 176 LINE",
"271 176 LINE",
"281 263 LINE",
"609 263 LINE",
"631 439 LINE",
"303 439 LINE",
"313 525 LINE",
"674 525 LINE",
"696 701 LINE"
);
}
);
width = 690;
},
{
layerId = "1C84A7F3-C40A-4DC1-B8B4-102D183C348F";
paths = (
{
closed = 1;
nodes = (
"145 700 LINE",
"59 0 LINE",
"453 2 LINE",
"413 -48 OFFCURVE",
"393 -85 OFFCURVE",
"389 -118 CURVE SMOOTH",
"382 -175 OFFCURVE",
"420 -201 OFFCURVE",
"461 -201 CURVE SMOOTH",
"496 -201 OFFCURVE",
"533 -182 OFFCURVE",
"560 -147 CURVE",
"529 -106 LINE",
"513 -125 OFFCURVE",
"493 -140 OFFCURVE",
"473 -140 CURVE SMOOTH",
"458 -140 OFFCURVE",
"448 -131 OFFCURVE",
"450 -113 CURVE SMOOTH",
"453 -86 OFFCURVE",
"472 -53 OFFCURVE",
"515 -2 CURVE",
"580 0 LINE",
"591 92 LINE",
"188 92 LINE",
"215 310 LINE",
"566 310 LINE",
"577 402 LINE",
"226 402 LINE",
"251 608 LINE",
"643 608 LINE",
"654 700 LINE"
);
}
);
width = 665;
}
);
leftKerningGroup = H;
rightKerningGroup = E;
unicode = 0118;
},
{
color = 0;
glyphname = Eogonek.ss01;
lastChange = "2015-04-22 19:02:19 +0000";
layers = (
{
background = {
paths = (
{
closed = 1;
nodes = (
"185 699 OFFCURVE",
"90 627 OFFCURVE",
"90 528 CURVE SMOOTH",
"90 450 OFFCURVE",
"157 383 OFFCURVE",
"249 370 CURVE",
"140 358 OFFCURVE",
"60 282 OFFCURVE",
"60 189 CURVE SMOOTH",
"60 80 OFFCURVE",
"167 0 OFFCURVE",
"313 0 CURVE SMOOTH",
"380 0 OFFCURVE",
"465 21 OFFCURVE",
"513 49 CURVE",
"503 67 LINE",
"453 40 OFFCURVE",
"373 20 OFFCURVE",
"313 20 CURVE SMOOTH",
"178 20 OFFCURVE",
"80 91 OFFCURVE",
"80 189 CURVE SMOOTH",
"80 288 OFFCURVE",
"180 360 OFFCURVE",
"317 360 CURVE SMOOTH",
"426 360 LINE",
"426 380 LINE",
"317 380 LINE SMOOTH",
"197 380 OFFCURVE",
"110 442 OFFCURVE",
"110 528 CURVE SMOOTH",
"110 615 OFFCURVE",
"196 679 OFFCURVE",
"315 679 CURVE SMOOTH",
"369 679 OFFCURVE",
"435 665 OFFCURVE",
"471 646 CURVE",
"481 664 LINE",
"441 684 OFFCURVE",
"371 699 OFFCURVE",
"315 699 CURVE SMOOTH"
);
},
{
closed = 1;
nodes = (
"406 0 LINE",
"362 -62 OFFCURVE",
"346 -99 OFFCURVE",
"346 -131 CURVE SMOOTH",
"346 -172 OFFCURVE",
"374 -199 OFFCURVE",
"410 -199 CURVE SMOOTH",
"437 -199 OFFCURVE",
"465 -181 OFFCURVE",
"484 -159 CURVE",
"470 -145 LINE",
"452 -165 OFFCURVE",
"432 -179 OFFCURVE",
"410 -179 CURVE SMOOTH",
"385 -179 OFFCURVE",
"366 -162 OFFCURVE",
"366 -131 CURVE SMOOTH",
"366 -100 OFFCURVE",
"378 -66 OFFCURVE",
"426 0 CURVE"
);
}
);
};
layerId = UUID0;
paths = (
{
closed = 1;
nodes = (
"238 699 OFFCURVE",
"134 627 OFFCURVE",
"122 529 CURVE SMOOTH",
"112 450 OFFCURVE",
"171 383 OFFCURVE",
"261 370 CURVE",
"151 358 OFFCURVE",
"62 282 OFFCURVE",
"50 190 CURVE SMOOTH",
"37 80 OFFCURVE",
"134 0 OFFCURVE",
"281 0 CURVE SMOOTH",
"347 0 OFFCURVE",
"435 21 OFFCURVE",
"486 49 CURVE",
"477 67 LINE",
"425 40 OFFCURVE",
"342 20 OFFCURVE",
"281 20 CURVE SMOOTH",
"147 20 OFFCURVE",
"58 91 OFFCURVE",
"70 188 CURVE SMOOTH",
"82 288 OFFCURVE",
"191 360 OFFCURVE",
"328 360 CURVE SMOOTH",
"437 360 LINE",
"440 380 LINE",
"331 380 LINE SMOOTH",
"211 380 OFFCURVE",
"131 442 OFFCURVE",
"142 527 CURVE SMOOTH",
"153 615 OFFCURVE",
"246 679 OFFCURVE",
"366 679 CURVE SMOOTH",
"419 679 OFFCURVE",
"484 665 OFFCURVE",
"517 646 CURVE",
"530 664 LINE",
"492 684 OFFCURVE",
"424 699 OFFCURVE",
"367 699 CURVE SMOOTH"
);
},
{
closed = 1;
nodes = (
"396 28 LINE",
"328 -47 OFFCURVE",
"302 -92 OFFCURVE",
"297 -130 CURVE SMOOTH",
"292 -172 OFFCURVE",
"317 -199 OFFCURVE",
"354 -199 CURVE SMOOTH",
"380 -199 OFFCURVE",
"410 -181 OFFCURVE",
"431 -159 CURVE",
"419 -145 LINE",
"399 -165 OFFCURVE",
"377 -179 OFFCURVE",
"354 -179 CURVE SMOOTH",
"330 -179 OFFCURVE",
"313 -162 OFFCURVE",
"317 -132 CURVE SMOOTH",
"322 -93 OFFCURVE",
"344 -50 OFFCURVE",
"422 32 CURVE"
);
}
);
width = 538;
},
{
layerId = "5DA6E103-6A94-47F2-987D-4952DB8EA68E";
paths = (
{
closed = 1;
nodes = (
"227 711 OFFCURVE",
"111 642 OFFCURVE",
"97 531 CURVE SMOOTH",
"89 462 OFFCURVE",
"117 399 OFFCURVE",
"160 374 CURVE",
"78 342 OFFCURVE",
"26 275 OFFCURVE",
"17 204 CURVE SMOOTH",
"1 74 OFFCURVE",
"119 -10 OFFCURVE",
"298 -10 CURVE SMOOTH",
"407 -10 OFFCURVE",
"528 20 OFFCURVE",
"603 64 CURVE",
"529 237 LINE",
"496 214 OFFCURVE",
"410 176 OFFCURVE",
"339 176 CURVE SMOOTH",
"291 176 OFFCURVE",
"256 192 OFFCURVE",
"259 219 CURVE SMOOTH",
"263 250 OFFCURVE",
"293 271 OFFCURVE",
"329 271 CURVE SMOOTH",
"507 271 LINE",
"528 438 LINE",
"342 438 LINE SMOOTH",
"317 438 OFFCURVE",
"306 451 OFFCURVE",
"308 465 CURVE SMOOTH",
"313 503 OFFCURVE",
"358 525 OFFCURVE",
"415 525 CURVE SMOOTH",
"458 525 OFFCURVE",
"510 513 OFFCURVE",
"560 489 CURVE",
"647 653 LINE",
"592 685 OFFCURVE",
"490 711 OFFCURVE",
"392 711 CURVE SMOOTH"
);
},
{
closed = 1;
nodes = (
"383 28 LINE",
"347 -13 OFFCURVE",
"315 -61 OFFCURVE",
"309 -105 CURVE SMOOTH",
"300 -180 OFFCURVE",
"355 -204 OFFCURVE",
"401 -204 CURVE SMOOTH",
"446 -204 OFFCURVE",
"489 -184 OFFCURVE",
"524 -133 CURVE",
"473 -59 LINE",
"460 -78 OFFCURVE",
"443 -94 OFFCURVE",
"426 -94 CURVE SMOOTH",
"422 -94 OFFCURVE",
"420 -94 OFFCURVE",
"421 -90 CURVE SMOOTH",
"424 -64 OFFCURVE",
"455 -23 OFFCURVE",
"491 20 CURVE"
);
}
);
width = 635;
},
{
layerId = "1C84A7F3-C40A-4DC1-B8B4-102D183C348F";
paths = (
{
closed = 1;
nodes = (
"233 705 OFFCURVE",
"124 634 OFFCURVE",
"111 532 CURVE SMOOTH",
"102 454 OFFCURVE",
"147 390 OFFCURVE",
"215 371 CURVE",
"114 350 OFFCURVE",
"45 277 OFFCURVE",
"35 196 CURVE SMOOTH",
"21 78 OFFCURVE",
"127 -5 OFFCURVE",
"287 -5 CURVE SMOOTH",
"375 -5 OFFCURVE",
"479 21 OFFCURVE",
"541 56 CURVE",
"501 145 LINE",
"456 120 OFFCURVE",
"368 94 OFFCURVE",
"297 94 CURVE SMOOTH",
"211 94 OFFCURVE",
"148 131 OFFCURVE",
"156 195 CURVE SMOOTH",
"164 263 OFFCURVE",
"238 314 OFFCURVE",
"329 314 CURVE SMOOTH",
"469 314 LINE",
"481 414 LINE",
"337 414 LINE SMOOTH",
"259 414 OFFCURVE",
"213 455 OFFCURVE",
"219 509 CURVE SMOOTH",
"227 572 OFFCURVE",
"295 606 OFFCURVE",
"380 606 CURVE SMOOTH",
"430 606 OFFCURVE",
"493 595 OFFCURVE",
"537 574 CURVE",
"584 659 LINE",
"536 686 OFFCURVE",
"451 705 OFFCURVE",
"379 705 CURVE SMOOTH"
);
},
{
closed = 1;
nodes = (
"380 15 LINE",
"334 -38 OFFCURVE",
"308 -80 OFFCURVE",
"304 -118 CURVE SMOOTH",
"297 -175 OFFCURVE",
"335 -201 OFFCURVE",
"376 -201 CURVE SMOOTH",
"410 -201 OFFCURVE",
"448 -182 OFFCURVE",
"475 -147 CURVE",
"444 -106 LINE",
"428 -125 OFFCURVE",
"408 -140 OFFCURVE",
"388 -140 CURVE SMOOTH",
"373 -140 OFFCURVE",
"363 -131 OFFCURVE",
"365 -113 CURVE SMOOTH",
"369 -78 OFFCURVE",
"401 -31 OFFCURVE",
"464 38 CURVE"
);
}
);
width = 583;
}
);
leftKerningGroup = Eogonek.ss01;
rightKerningGroup = Eogonek.ss01;
},
{
glyphname = F;
lastChange = "2015-04-22 19:02:19 +0000";
layers = (
{
background = {
paths = (
{
closed = 1;
nodes = (
"563 699 LINE",
"97 699 LINE",
"97 0 LINE",
"215 0 LINE",
"215 288 LINE",
"525 288 LINE",
"525 397 LINE",
"215 397 LINE",
"215 589 LINE",
"562 589 LINE"
);
}
);
};
layerId = UUID0;
paths = (
{
closed = 1;
nodes = (
"181 699 LINE",
"95 0 LINE",
"115 0 LINE",
"155 323 LINE",
"496 323 LINE",
"498 343 LINE",
"157 343 LINE",
"198 679 LINE",
"585 679 LINE",
"588 699 LINE"
);
}
);
width = 545;
},
{
background = {
paths = (
{
closed = 1;
nodes = (
"40 0 LINE",
"274 0 LINE",
"274 229 LINE",
"601 229 LINE",
"601 411 LINE",
"274 411 LINE",
"274 500 LINE",
"626 500 LINE",
"626 700 LINE",
"40 700 LINE"
);
}
);
};
layerId = "5DA6E103-6A94-47F2-987D-4952DB8EA68E";
paths = (
{
closed = 1;
nodes = (
"103 701 LINE",
"17 0 LINE",
"249 0 LINE",
"277 228 LINE",
"588 228 LINE",
"610 404 LINE",
"299 404 LINE",
"313 525 LINE",
"645 525 LINE",
"667 701 LINE"
);
}
);
width = 631;
},
{
layerId = "1C84A7F3-C40A-4DC1-B8B4-102D183C348F";
paths = (
{
closed = 1;
nodes = (
"145 700 LINE",
"59 0 LINE",
"177 0 LINE",
"212 291 LINE",
"531 291 LINE",
"543 391 LINE",
"225 391 LINE",
"250 599 LINE",
"602 599 LINE",
"615 700 LINE"
);
}
);
width = 575;
}
);
leftKerningGroup = H;
rightKerningGroup = F;
unicode = 0046;
},
{
glyphname = F.ss01;
lastChange = "2015-04-22 19:02:19 +0000";
layers = (
{
background = {
paths = (
{
closed = 1;
nodes = (
"426 600 OFFCURVE",
"499 585 OFFCURVE",
"538 568 CURVE",
"562 680 LINE",
"518 701 OFFCURVE",
"418 716 OFFCURVE",
"358 716 CURVE SMOOTH",
"206 716 OFFCURVE",
"90 628 OFFCURVE",
"90 438 CURVE SMOOTH",
"90 0 LINE",
"208 0 LINE",
"208 257 LINE",
"455 257 LINE",
"455 367 LINE",
"208 367 LINE",
"208 450 LINE SMOOTH",
"208 530 OFFCURVE",
"247 600 OFFCURVE",
"370 600 CURVE SMOOTH"
);
}
);
};
layerId = UUID0;
paths = (
{
closed = 1;
nodes = (
"96 0 LINE",
"158 502 LINE",
"171 609 OFFCURVE",
"247 679 OFFCURVE",
"352 679 CURVE",
"405 679 OFFCURVE",
"468 663 OFFCURVE",
"511 639 CURVE",
"523 659 LINE",
"476 683 OFFCURVE",
"414 699 OFFCURVE",
"353 699 CURVE",
"238 699 OFFCURVE",
"153 622 OFFCURVE",
"139 502 CURVE",
"77 0 LINE"
);
},
{
closed = 1;
nodes = (
"134 342 LINE",
"132 322 LINE",
"430 322 LINE",
"432 342 LINE"
);
}
);
width = 490;
},
{
background = {
paths = (
{
closed = 1;
nodes = (
"-6 701 LINE",
"-6 0 LINE",
"226 0 LINE",
"226 228 LINE",
"517 228 LINE",
"517 404 LINE",
"226 404 LINE",
"226 525 LINE",
"538 525 LINE",
"538 701 LINE"
);
}
);
};
layerId = "5DA6E103-6A94-47F2-987D-4952DB8EA68E";
paths = (
{
closed = 1;
nodes = (
"240 0 LINE",
"295 444 LINE SMOOTH",
"300 486 OFFCURVE",
"336 518 OFFCURVE",
"382 518 CURVE SMOOTH",
"433 518 OFFCURVE",
"509 500 OFFCURVE",
"567 475 CURVE",
"635 661 LINE",
"575 690 OFFCURVE",
"471 711 OFFCURVE",
"367 711 CURVE SMOOTH",
"200 711 OFFCURVE",
"83 615 OFFCURVE",
"63 459 CURVE SMOOTH",
"7 0 LINE"
);
},
{
closed = 1;
nodes = (
"102 405 LINE",
"80 229 LINE SMOOTH",
"519 229 LINE",
"541 405 LINE"
);
}
);
width = 580;
},
{
layerId = "1C84A7F3-C40A-4DC1-B8B4-102D183C348F";
paths = (
{
closed = 1;
nodes = (
"162 0 LINE",
"220 475 LINE",
"230 552 OFFCURVE",
"288 605 OFFCURVE",
"366 605 CURVE",
"418 605 OFFCURVE",
"487 588 OFFCURVE",
"537 564 CURVE",
"575 660 LINE",
"521 686 OFFCURVE",
"441 705 OFFCURVE",
"360 705 CURVE",
"221 705 OFFCURVE",
"121 619 OFFCURVE",
"104 483 CURVE",
"45 0 LINE"
);
},
{
closed = 1;
nodes = (
"120 375 LINE",
"108 275 LINE",
"470 275 LINE",
"482 375 LINE"
);
}
);
width = 532;
}
);
leftKerningGroup = F.ss01;
leftMetricsKey = U;
rightKerningGroup = F.ss01;
},
{
glyphname = G;
lastChange = "2015-04-22 19:02:19 +0000";
layers = (
{
anchors = (
{
name = bottom;
position = "{347, 0}";
},
{
name = top;
position = "{433, 699}";
}
);
background = {
paths = (
{
closed = 1;
nodes = (
"581 340 LINE",
"581 148 LINE",
"534 118 OFFCURVE",
"478 105 OFFCURVE",
"417 105 CURVE SMOOTH",
"285 105 OFFCURVE",
"175 198 OFFCURVE",
"175 352 CURVE SMOOTH",
"175 504 OFFCURVE",
"287 600 OFFCURVE",
"425 600 CURVE SMOOTH",
"495 600 OFFCURVE",
"547 587 OFFCURVE",
"604 538 CURVE",
"667 628 LINE",
"610 678 OFFCURVE",
"531 716 OFFCURVE",
"420 716 CURVE SMOOTH",
"215 716 OFFCURVE",
"52 561 OFFCURVE",
"52 354 CURVE SMOOTH",
"52 142 OFFCURVE",
"211 -8 OFFCURVE",
"416 -8 CURVE SMOOTH",
"547 -8 OFFCURVE",
"641 37 OFFCURVE",
"699 101 CURVE",
"699 340 LINE"
);
}
);
};
layerId = UUID0;
paths = (
{
closed = 1;
nodes = (
"265 699 OFFCURVE",
"84 542 OFFCURVE",
"60 351 CURVE SMOOTH",
"36 158 OFFCURVE",
"179 0 OFFCURVE",
"377 0 CURVE SMOOTH",
"468 0 OFFCURVE",
"557 35 OFFCURVE",
"628 91 CURVE",
"615 104 LINE",
"549 51 OFFCURVE",
"465 19 OFFCURVE",
"377 19 CURVE SMOOTH",
"191 19 OFFCURVE",
"57 168 OFFCURVE",
"79 349 CURVE SMOOTH",
"101 532 OFFCURVE",
"272 680 OFFCURVE",
"460 680 CURVE SMOOTH",
"546 680 OFFCURVE",
"623 649 OFFCURVE",
"676 596 CURVE",
"691 609 LINE",
"634 665 OFFCURVE",
"554 699 OFFCURVE",
"461 699 CURVE SMOOTH"
);
},
{
closed = 1;
nodes = (
"639 343 LINE",
"608 91 LINE",
"628 91 LINE",
"659 343 LINE"
);
}
);
width = 760;
},
{
anchors = (
{
name = bottom;
position = "{363, 0}";
},
{
name = top;
position = "{449, 701}";
}
);
background = {
paths = (
{
closed = 1;
nodes = (
"544 -15 OFFCURVE",
"650 28 OFFCURVE",
"726 90 CURVE",
"726 414 LINE",
"387 414 LINE",
"387 264 LINE",
"507 264 LINE",
"507 194 LINE",
"489 184 OFFCURVE",
"467 178 OFFCURVE",
"427 178 CURVE SMOOTH",
"329 178 OFFCURVE",
"260 246 OFFCURVE",
"260 345 CURVE SMOOTH",
"260 347 LINE SMOOTH",
"260 442 OFFCURVE",
"326 512 OFFCURVE",
"417 512 CURVE SMOOTH",
"475 512 OFFCURVE",
"526 490 OFFCURVE",
"572 451 CURVE",
"703 609 LINE",
"627 675 OFFCURVE",
"530 715 OFFCURVE",
"410 715 CURVE SMOOTH",
"189 715 OFFCURVE",
"24 559 OFFCURVE",
"24 350 CURVE SMOOTH",
"24 348 LINE SMOOTH",
"24 131 OFFCURVE",
"199 -15 OFFCURVE",
"417 -15 CURVE SMOOTH"
);
}
);
};
layerId = "5DA6E103-6A94-47F2-987D-4952DB8EA68E";
paths = (
{
closed = 1;
nodes = (
"231 708 OFFCURVE",
"51 562 OFFCURVE",
"26 361 CURVE SMOOTH",
"0 147 OFFCURVE",
"145 -10 OFFCURVE",
"369 -10 CURVE SMOOTH",
"465 -10 OFFCURVE",
"597 25 OFFCURVE",
"681 77 CURVE",
"563 246 LINE",
"510 211 OFFCURVE",
"437 183 OFFCURVE",
"392 183 CURVE SMOOTH",
"305 183 OFFCURVE",
"250 248 OFFCURVE",
"262 339 CURVE SMOOTH",
"274 440 OFFCURVE",
"353 515 OFFCURVE",
"447 515 CURVE SMOOTH",
"501 515 OFFCURVE",
"565 490 OFFCURVE",
"607 445 CURVE",
"751 596 LINE",
"683 662 OFFCURVE",
"569 708 OFFCURVE",
"456 708 CURVE SMOOTH"
);
},
{
closed = 1;
nodes = (
"515 369 LINE",
"480 80 LINE",
"679 80 LINE",
"714 369 LINE"
);
}
);
width = 738;
},
{
anchors = (
{
name = bottom;
position = "{354, 0}";
},
{
name = top;
position = "{440, 700}";
}
);
layerId = "1C84A7F3-C40A-4DC1-B8B4-102D183C348F";
paths = (
{
closed = 1;
nodes = (
"248 703 OFFCURVE",
"69 552 OFFCURVE",
"45 356 CURVE SMOOTH",
"20 154 OFFCURVE",
"163 -5 OFFCURVE",
"372 -5 CURVE SMOOTH",
"466 -5 OFFCURVE",
"576 30 OFFCURVE",
"653 84 CURVE",
"592 170 LINE",
"530 125 OFFCURVE",
"452 95 OFFCURVE",
"385 95 CURVE SMOOTH",
"244 95 OFFCURVE",
"146 204 OFFCURVE",
"163 344 CURVE SMOOTH",
"181 489 OFFCURVE",
"309 604 OFFCURVE",
"454 604 CURVE SMOOTH",
"525 604 OFFCURVE",
"597 576 OFFCURVE",
"645 526 CURVE",
"718 603 LINE",
"655 663 OFFCURVE",
"560 703 OFFCURVE",
"458 703 CURVE SMOOTH"
);
},
{
closed = 1;
nodes = (
"580 342 LINE",
"549 86 LINE",
"652 86 LINE",
"683 342 LINE"
);
}
);
width = 749;
}
);
leftKerningGroup = O;
rightKerningGroup = G;
unicode = 0047;
},
{
glyphname = G.ss01;
lastChange = "2015-04-22 19:02:19 +0000";
layers = (
{
anchors = (
{
name = bottom;
position = "{347, 0}";
},
{
name = top;
position = "{433, 699}";
}
);
background = {
paths = (
{
closed = 1;
nodes = (
"581 340 LINE",
"581 148 LINE",
"534 118 OFFCURVE",
"478 105 OFFCURVE",
"417 105 CURVE SMOOTH",
"285 105 OFFCURVE",
"175 198 OFFCURVE",
"175 352 CURVE SMOOTH",
"175 504 OFFCURVE",
"287 600 OFFCURVE",
"425 600 CURVE SMOOTH",
"495 600 OFFCURVE",
"547 587 OFFCURVE",
"604 538 CURVE",
"667 628 LINE",
"610 678 OFFCURVE",
"531 716 OFFCURVE",
"420 716 CURVE SMOOTH",
"215 716 OFFCURVE",
"52 561 OFFCURVE",
"52 354 CURVE SMOOTH",
"52 142 OFFCURVE",
"211 -8 OFFCURVE",
"416 -8 CURVE SMOOTH",
"547 -8 OFFCURVE",
"641 37 OFFCURVE",
"699 101 CURVE",
"699 340 LINE"
);
}
);
};
layerId = UUID0;
paths = (
{
closed = 1;
nodes = (
"265 699 OFFCURVE",
"84 542 OFFCURVE",
"60 351 CURVE SMOOTH",
"36 158 OFFCURVE",
"179 0 OFFCURVE",
"377 0 CURVE SMOOTH",
"468 0 OFFCURVE",
"558 39 OFFCURVE",
"629 101 CURVE",
"616 114 LINE",
"550 55 OFFCURVE",
"465 19 OFFCURVE",
"377 19 CURVE SMOOTH",
"191 19 OFFCURVE",
"57 168 OFFCURVE",
"79 349 CURVE SMOOTH",
"101 532 OFFCURVE",
"272 680 OFFCURVE",
"460 680 CURVE SMOOTH",
"546 680 OFFCURVE",
"623 649 OFFCURVE",
"676 596 CURVE",
"691 609 LINE",
"634 665 OFFCURVE",
"554 699 OFFCURVE",
"461 699 CURVE SMOOTH"
);
},
{
closed = 1;
nodes = (
"639 343 LINE",
"608 87 LINE",
"607 83 LINE",
"597 0 LINE",
"617 0 LINE",
"659 343 LINE"
);
}
);
width = 760;
},
{
anchors = (
{
name = bottom;
position = "{339, 0}";
},
{
name = top;
position = "{425, 701}";
}
);
background = {
paths = (
{
closed = 1;
nodes = (
"173 708 OFFCURVE",
"7 557 OFFCURVE",
"7 350 CURVE SMOOTH",
"7 142 OFFCURVE",
"167 -10 OFFCURVE",
"387 -10 CURVE SMOOTH",
"487 -10 OFFCURVE",
"616 28 OFFCURVE",
"694 80 CURVE",
"563 243 LINE",
"512 208 OFFCURVE",
"444 183 OFFCURVE",
"403 183 CURVE SMOOTH",
"312 183 OFFCURVE",
"245 253 OFFCURVE",
"245 350 CURVE SMOOTH",
"245 445 OFFCURVE",
"311 515 OFFCURVE",
"401 515 CURVE SMOOTH",
"459 515 OFFCURVE",
"527 486 OFFCURVE",
"574 441 CURVE",
"705 600 LINE",
"630 666 OFFCURVE",
"511 708 OFFCURVE",
"402 708 CURVE SMOOTH"
);
},
{
closed = 1;
nodes = (
"495 369 LINE",
"495 80 LINE",
"694 80 LINE",
"694 369 LINE"
);
}
);
};
layerId = "5DA6E103-6A94-47F2-987D-4952DB8EA68E";
paths = (
{
closed = 1;
nodes = (
"230 708 OFFCURVE",
"51 562 OFFCURVE",
"26 361 CURVE SMOOTH",
"0 147 OFFCURVE",
"134 -10 OFFCURVE",
"343 -10 CURVE SMOOTH",
"447 -10 OFFCURVE",
"568 57 OFFCURVE",
"631 155 CURVE",
"533 288 LINE",
"509 230 OFFCURVE",
"442 183 OFFCURVE",
"377 183 CURVE SMOOTH",
"298 183 OFFCURVE",
"250 248 OFFCURVE",
"262 339 CURVE SMOOTH",
"274 440 OFFCURVE",
"353 515 OFFCURVE",
"447 515 CURVE SMOOTH",
"501 515 OFFCURVE",
"565 490 OFFCURVE",
"607 445 CURVE",
"751 596 LINE",
"682 662 OFFCURVE",
"566 708 OFFCURVE",
"452 708 CURVE SMOOTH"
);
},
{
closed = 1;
nodes = (
"515 369 LINE",
"486 123 LINE",
"513 98 LINE",
"500 0 LINE",
"669 0 LINE",
"714 369 LINE"
);
}
);
width = 738;
},
{
anchors = (
{
name = bottom;
position = "{343, 0}";
},
{
name = top;
position = "{429, 700}";
}
);
layerId = "1C84A7F3-C40A-4DC1-B8B4-102D183C348F";
paths = (
{
closed = 1;
nodes = (
"248 703 OFFCURVE",
"69 552 OFFCURVE",
"45 356 CURVE SMOOTH",
"20 154 OFFCURVE",
"158 -5 OFFCURVE",
"361 -5 CURVE SMOOTH",
"458 -5 OFFCURVE",
"563 48 OFFCURVE",
"630 126 CURVE",
"578 194 LINE",
"531 135 OFFCURVE",
"455 95 OFFCURVE",
"378 95 CURVE SMOOTH",
"241 95 OFFCURVE",
"146 204 OFFCURVE",
"163 344 CURVE SMOOTH",
"181 489 OFFCURVE",
"310 604 OFFCURVE",
"454 604 CURVE SMOOTH",
"526 604 OFFCURVE",
"597 576 OFFCURVE",
"645 526 CURVE",
"719 603 LINE",
"655 663 OFFCURVE",
"559 703 OFFCURVE",
"457 703 CURVE SMOOTH"
);
},
{
closed = 1;
nodes = (
"582 355 LINE",
"552 104 LINE",
"564 90 LINE",
"552 0 LINE",
"641 0 LINE",
"685 355 LINE"
);
}
);
width = 750;
}
);
leftKerningGroup = O;
leftMetricsKey = O;
rightKerningGroup = G;
},
{
glyphname = H;
lastChange = "2015-04-22 19:02:19 +0000";
layers = (
{
anchors = (
{
name = center;
position = "{410, 350}";
},
{
name = top;
position = "{453, 699}";
}
);
background = {
paths = (
{
closed = 1;
nodes = (
"97 0 LINE",
"215 0 LINE",
"215 286 LINE",
"562 286 LINE",
"562 0 LINE",
"680 0 LINE",
"680 699 LINE",
"562 699 LINE",
"562 396 LINE",
"215 396 LINE",
"215 699 LINE",
"97 699 LINE"
);
}
);
};
layerId = UUID0;
paths = (
{
closed = 1;
nodes = (
"704 699 LINE",
"663 363 LINE",
"160 363 LINE",
"201 699 LINE",
"181 699 LINE",
"95 0 LINE",
"115 0 LINE",
"157 343 LINE",
"660 343 LINE",
"618 0 LINE",
"638 0 LINE",
"724 699 LINE"
);
}
);
width = 799;
},
{
anchors = (
{
name = center;
position = "{401, 351}";
},
{
name = top;
position = "{454, 701}";
}
);
layerId = "5DA6E103-6A94-47F2-987D-4952DB8EA68E";
paths = (
{
closed = 1;
nodes = (
"552 701 LINE",
"519 429 LINE",
"302 429 LINE",
"335 701 LINE",
"103 701 LINE",
"17 0 LINE",
"249 0 LINE",
"280 253 LINE",
"497 253 LINE",
"466 0 LINE",
"698 0 LINE",
"784 701 LINE"
);
}
);
width = 781;
},
{
anchors = (
{
name = center;
position = "{406, 350}";
},
{
name = top;
position = "{453, 700}";
}
);
layerId = "1C84A7F3-C40A-4DC1-B8B4-102D183C348F";
paths = (
{
closed = 1;
nodes = (
"634 700 LINE",
"596 393 LINE",
"225 393 LINE",
"263 700 LINE",
"145 700 LINE",
"59 0 LINE",
"177 0 LINE",
"213 293 LINE",
"584 293 LINE",
"548 0 LINE",
"666 0 LINE",
"752 700 LINE"
);
}
);
width = 791;
}
);
leftKerningGroup = H;
rightKerningGroup = H;
unicode = 0048;
},
{
glyphname = Hbar;
lastChange = "2015-04-22 19:02:19 +0000";
layers = (
{
background = {
paths = (
{
closed = 1;
nodes = (
"681 699 LINE",
"661 699 LINE",
"661 547 LINE",
"158 547 LINE",
"158 699 LINE",
"138 699 LINE",
"138 547 LINE",
"88 547 LINE",
"88 527 LINE",
"138 527 LINE",
"138 0 LINE",
"158 0 LINE",
"158 343 LINE",
"661 343 LINE",
"661 0 LINE",
"681 0 LINE",
"681 527 LINE",
"731 527 LINE",
"731 547 LINE",
"681 547 LINE"
);
}
);
};
components = (
{
name = H;
transform = "{1, 0, 0, 1, -23, 0}";
}
);
layerId = UUID0;
paths = (
{
closed = 1;
nodes = (
"92 548 LINE",
"90 528 LINE",
"793 528 LINE",
"795 548 LINE"
);
}
);
width = 819;
},
{
components = (
{
name = H;
transform = "{1, 0, 0, 1, 17, 0}";
}
);
layerId = "5DA6E103-6A94-47F2-987D-4952DB8EA68E";
paths = (
{
closed = 1;
nodes = (
"64 627 LINE",
"49 508 LINE",
"890 508 LINE",
"905 627 LINE"
);
}
);
width = 881;
},
{
components = (
{
name = H;
transform = "{1, 0, 0, 1, -3, 0}";
}
);
layerId = "1C84A7F3-C40A-4DC1-B8B4-102D183C348F";
paths = (
{
closed = 1;
nodes = (
"72 596 LINE",
"62 516 LINE",
"849 516 LINE",
"859 596 LINE"
);
}
);
width = 851;
}
);
leftKerningGroup = H;
rightKerningGroup = H;
unicode = 0126;
},
{
glyphname = I;
lastChange = "2015-04-22 19:02:19 +0000";
layers = (
{
anchors = (
{
name = ogonek;
position = "{174, 10}";
},
{
name = top;
position = "{191, 699}";
}
);
background = {
paths = (
{
closed = 1;
nodes = (
"97 699 LINE",
"97 0 LINE",
"215 0 LINE",
"215 699 LINE"
);
}
);
};
layerId = UUID0;
paths = (
{
closed = 1;
nodes = (
"181 699 LINE",
"95 0 LINE",
"115 0 LINE",
"201 699 LINE"
);
}
);
width = 276;
},
{
anchors = (
{
name = ogonek;
position = "{267, 10}";
},
{
name = top;
position = "{219, 701}";
}
);
background = {
paths = (
{
closed = 1;
nodes = (
"42 0 LINE",
"276 0 LINE",
"276 700 LINE",
"42 700 LINE"
);
}
);
};
layerId = "5DA6E103-6A94-47F2-987D-4952DB8EA68E";
paths = (
{
closed = 1;
nodes = (
"103 701 LINE",
"17 0 LINE",
"249 0 LINE",
"335 701 LINE"
);
}
);
width = 332;
},
{
anchors = (
{
name = ogonek;
position = "{217, 10}";
},
{
name = top;
position = "{204, 700}";
}
);
layerId = "1C84A7F3-C40A-4DC1-B8B4-102D183C348F";
paths = (
{
closed = 1;
nodes = (
"145 700 LINE",
"59 0 LINE",
"177 0 LINE",
"263 700 LINE"
);
}
);
width = 302;
}
);
leftKerningGroup = H;
rightKerningGroup = H;
unicode = 0049;
},
{
glyphname = I.ss01;
lastChange = "2015-04-22 19:02:19 +0000";
layers = (
{
anchors = (
{
name = ogonek;
position = "{371, 10}";
},
{
name = top;
position = "{277, 699}";
}
);
background = {
paths = (
{
closed = 1;
nodes = (
"60 699 LINE",
"60 664 LINE",
"208 664 LINE",
"208 10 LINE",
"60 10 LINE",
"60 -25 LINE",
"386 -25 LINE",
"386 10 LINE",
"229 10 LINE",
"229 664 LINE",
"386 664 LINE",
"386 699 LINE"
);
}
);
};
layerId = UUID0;
paths = (
{
closed = 1;
nodes = (
"110 679 LINE",
"438 679 LINE",
"441 699 LINE",
"113 699 LINE"
);
},
{
closed = 1;
nodes = (
"27 0 LINE",
"355 0 LINE",
"357 20 LINE",
"29 20 LINE"
);
},
{
closed = 1;
nodes = (
"267 699 LINE",
"181 0 LINE",
"201 0 LINE",
"287 699 LINE"
);
}
);
width = 448;
},
{
anchors = (
{
name = ogonek;
position = "{440, 10}";
},
{
name = top;
position = "{315, 701}";
}
);
background = {
paths = (
{
closed = 1;
nodes = (
"44 699 LINE",
"44 522 LINE",
"152 522 LINE",
"152 188 LINE",
"44 188 LINE",
"44 11 LINE",
"478 11 LINE",
"478 188 LINE",
"367 188 LINE",
"367 522 LINE",
"478 522 LINE",
"478 699 LINE"
);
}
);
};
layerId = "5DA6E103-6A94-47F2-987D-4952DB8EA68E";
paths = (
{
closed = 1;
nodes = (
"71 525 LINE",
"515 525 LINE",
"537 701 LINE",
"93 701 LINE"
);
},
{
closed = 1;
nodes = (
"7 0 LINE",
"451 0 LINE",
"473 176 LINE",
"29 176 LINE"
);
},
{
closed = 1;
nodes = (
"199 701 LINE",
"113 0 LINE",
"345 0 LINE",
"431 701 LINE"
);
}
);
width = 524;
},
{
anchors = (
{
name = ogonek;
position = "{403, 10}";
},
{
name = top;
position = "{295, 700}";
}
);
layerId = "1C84A7F3-C40A-4DC1-B8B4-102D183C348F";
paths = (
{
closed = 1;
nodes = (
"92 599 LINE",
"474 599 LINE",
"486 700 LINE",
"104 700 LINE"
);
},
{
closed = 1;
nodes = (
"18 0 LINE",
"400 0 LINE",
"412 101 LINE",
"30 101 LINE"
);
},
{
closed = 1;
nodes = (
"236 700 LINE",
"150 0 LINE",
"268 0 LINE",
"354 700 LINE"
);
}
);
width = 484;
}
);
leftKerningGroup = I.ss01;
rightKerningGroup = I.ss01;
},
{
color = 0;
glyphname = Iacute;
lastChange = "2015-04-22 19:02:19 +0000";
layers = (
{
background = {
components = (
{
name = I;
},
{
name = acute;
transform = "{1, 0, 0, 1, -235, 129}";
}
);
};
components = (
{
name = I;
},
{
name = acute;
transform = "{1, 0, 0, 1, 34, 182}";
}
);
layerId = UUID0;
width = 276;
},
{
background = {
paths = (
{
closed = 1;
nodes = (
"42 0 LINE",
"276 0 LINE",
"276 700 LINE",
"42 700 LINE"
);
},
{
closed = 1;
nodes = (
"70 740 LINE",
"222 740 LINE",
"387 875 LINE",
"166 932 LINE"
);
}
);
};
components = (
{
name = I;
},
{
name = acute;
transform = "{1, 0, 0, 1, 53, 154}";
}
);
layerId = "5DA6E103-6A94-47F2-987D-4952DB8EA68E";
width = 332;
},
{
components = (
{
name = I;
},
{
name = acute;
transform = "{1, 0, 0, 1, 43, 169}";
}
);
layerId = "1C84A7F3-C40A-4DC1-B8B4-102D183C348F";
width = 302;
}
);
leftKerningGroup = H;
leftMetricsKey = I;
rightKerningGroup = H;
rightMetricsKey = I;
unicode = 00CD;
},
{
color = 0;
glyphname = Icircumflex;
lastChange = "2015-04-22 19:02:19 +0000";
layers = (
{
components = (
{
name = I;
},
{
name = circumflex;
transform = "{1, 0, 0, 1, -14, 182}";
}
);
layerId = UUID0;
width = 276;
},
{
background = {
paths = (
{
closed = 1;
nodes = (
"42 0 LINE",
"276 0 LINE",
"276 700 LINE",
"42 700 LINE"
);
},
{
closed = 1;
nodes = (
"-56 740 LINE",
"69 740 LINE",
"158 796 LINE",
"247 740 LINE",
"374 740 LINE",
"241 912 LINE",
"77 912 LINE"
);
}
);
};
components = (
{
name = I;
},
{
name = circumflex;
transform = "{1, 0, 0, 1, 10, 154}";
}
);
layerId = "5DA6E103-6A94-47F2-987D-4952DB8EA68E";
width = 332;
},
{
components = (
{
name = I;
},
{
name = circumflex;
transform = "{1, 0, 0, 1, -4, 166}";
}
);
layerId = "1C84A7F3-C40A-4DC1-B8B4-102D183C348F";
width = 302;
}
);
leftKerningGroup = H;
leftMetricsKey = I;
rightKerningGroup = H;
rightMetricsKey = I;
unicode = 00CE;
},
{
color = 0;
glyphname = Idieresis;
lastChange = "2015-04-22 19:02:19 +0000";
layers = (
{
components = (
{
name = I;
},
{
name = dieresis;
transform = "{1, 0, 0, 1, -14, 182}";
}
);
layerId = UUID0;
width = 276;
},
{
background = {
paths = (
{
closed = 1;
nodes = (
"42 0 LINE",
"276 0 LINE",
"276 700 LINE",
"42 700 LINE"
);
},
{
closed = 1;
nodes = (
"179 740 LINE",
"363 740 LINE",
"363 890 LINE",
"179 890 LINE"
);
},
{
closed = 1;
nodes = (
"-45 740 LINE",
"139 740 LINE",
"139 890 LINE",
"-45 890 LINE"
);
}
);
};
components = (
{
name = I;
},
{
name = dieresis;
transform = "{1, 0, 0, 1, 10, 154}";
}
);
layerId = "5DA6E103-6A94-47F2-987D-4952DB8EA68E";
width = 332;
},
{
components = (
{
name = I;
},
{
name = dieresis;
transform = "{1, 0, 0, 1, -3, 169}";
}
);
layerId = "1C84A7F3-C40A-4DC1-B8B4-102D183C348F";
width = 302;
}
);
leftKerningGroup = H;
leftMetricsKey = I;
rightKerningGroup = H;
rightMetricsKey = I;
unicode = 00CF;
},
{
color = 0;
glyphname = Igrave;
lastChange = "2015-04-22 19:02:19 +0000";
layers = (
{
components = (
{
name = I;
},
{
name = grave;
transform = "{1, 0, 0, 1, -63, 182}";
}
);
layerId = UUID0;
width = 276;
},
{
background = {
paths = (
{
closed = 1;
nodes = (
"42 0 LINE",
"276 0 LINE",
"276 700 LINE",
"42 700 LINE"
);
},
{
closed = 1;
nodes = (
"96 740 LINE",
"248 740 LINE",
"152 932 LINE",
"-69 875 LINE"
);
}
);
};
components = (
{
name = I;
},
{
name = grave;
transform = "{1, 0, 0, 1, -27, 154}";
}
);
layerId = "5DA6E103-6A94-47F2-987D-4952DB8EA68E";
width = 332;
},
{
components = (
{
name = I;
},
{
name = grave;
transform = "{1, 0, 0, 1, -47, 169}";
}
);
layerId = "1C84A7F3-C40A-4DC1-B8B4-102D183C348F";
width = 302;
}
);
leftKerningGroup = H;
leftMetricsKey = I;
rightKerningGroup = H;
rightMetricsKey = I;
unicode = 00CC;
},
{
color = 0;
glyphname = Iogonek;
lastChange = "2015-04-22 19:02:19 +0000";
layers = (
{
layerId = UUID0;
paths = (
{
closed = 1;
nodes = (
"141 -145 LINE",
"121 -165 OFFCURVE",
"99 -179 OFFCURVE",
"76 -179 CURVE SMOOTH",
"52 -179 OFFCURVE",
"35 -162 OFFCURVE",
"39 -132 CURVE SMOOTH",
"43 -100 OFFCURVE",
"58 -66 OFFCURVE",
"114 0 CURVE",
"115 0 LINE",
"201 699 LINE",
"181 699 LINE",
"95 4 LINE",
"96 4 LINE",
"45 -58 OFFCURVE",
"23 -99 OFFCURVE",
"19 -130 CURVE SMOOTH",
"14 -172 OFFCURVE",
"39 -199 OFFCURVE",
"76 -199 CURVE SMOOTH",
"102 -199 OFFCURVE",
"132 -181 OFFCURVE",
"153 -159 CURVE"
);
}
);
width = 276;
},
{
layerId = "5DA6E103-6A94-47F2-987D-4952DB8EA68E";
paths = (
{
closed = 1;
nodes = (
"201 -59 LINE",
"188 -78 OFFCURVE",
"171 -94 OFFCURVE",
"154 -94 CURVE SMOOTH",
"150 -94 OFFCURVE",
"148 -94 OFFCURVE",
"149 -90 CURVE SMOOTH",
"152 -68 OFFCURVE",
"173 -38 OFFCURVE",
"200 -5 CURVE",
"249 0 LINE",
"335 701 LINE",
"103 701 LINE",
"17 0 LINE",
"92 5 LINE",
"63 -31 OFFCURVE",
"41 -70 OFFCURVE",
"37 -105 CURVE SMOOTH",
"28 -180 OFFCURVE",
"83 -204 OFFCURVE",
"129 -204 CURVE SMOOTH",
"174 -204 OFFCURVE",
"217 -184 OFFCURVE",
"252 -133 CURVE"
);
}
);
width = 332;
},
{
layerId = "1C84A7F3-C40A-4DC1-B8B4-102D183C348F";
paths = (
{
closed = 1;
nodes = (
"168 -106 LINE",
"152 -125 OFFCURVE",
"133 -140 OFFCURVE",
"112 -140 CURVE SMOOTH",
"97 -140 OFFCURVE",
"88 -131 OFFCURVE",
"90 -113 CURVE SMOOTH",
"93 -86 OFFCURVE",
"114 -51 OFFCURVE",
"154 -2 CURVE",
"177 0 LINE",
"263 700 LINE",
"145 700 LINE",
"59 0 LINE",
"93 2 LINE",
"54 -46 OFFCURVE",
"32 -84 OFFCURVE",
"28 -118 CURVE SMOOTH",
"21 -175 OFFCURVE",
"59 -201 OFFCURVE",
"100 -201 CURVE SMOOTH",
"135 -201 OFFCURVE",
"172 -182 OFFCURVE",
"199 -147 CURVE"
);
}
);
width = 302;
}
);
leftKerningGroup = H;
rightKerningGroup = H;
unicode = 012E;
},
{
glyphname = J;
lastChange = "2015-04-22 19:02:19 +0000";
layers = (
{
anchors = (
{
name = top;
position = "{257, 699}";
}
);
background = {
paths = (
{
closed = 1;
nodes = (
"43 593 LINE",
"265 593 LINE",
"265 232 LINE SMOOTH",
"265 144 OFFCURVE",
"210 108 OFFCURVE",
"154 108 CURVE SMOOTH",
"104 108 OFFCURVE",
"61 135 OFFCURVE",
"21 173 CURVE",
"-46 80 LINE",
"14 20 OFFCURVE",
"87 -6 OFFCURVE",
"162 -6 CURVE SMOOTH",
"282 -6 OFFCURVE",
"383 66 OFFCURVE",
"383 238 CURVE SMOOTH",
"383 699 LINE",
"43 699 LINE"
);
}
);
};
layerId = UUID0;
paths = (
{
closed = 1;
nodes = (
"120 699 LINE",
"117 679 LINE",
"379 679 LINE",
"320 197 LINE",
"306 82 OFFCURVE",
"244 20 OFFCURVE",
"145 20 CURVE",
"83 20 OFFCURVE",
"31 52 OFFCURVE",
"-2 112 CURVE",
"-18 98 LINE",
"18 35 OFFCURVE",
"76 0 OFFCURVE",
"145 0 CURVE",
"255 0 OFFCURVE",
"325 70 OFFCURVE",
"340 197 CURVE",
"402 699 LINE"
);
}
);
width = 459;
},
{
anchors = (
{
name = top;
position = "{344, 701}";
}
);
background = {
paths = (
{
closed = 1;
nodes = (
"340 -14 OFFCURVE",
"410 14 OFFCURVE",
"458 62 CURVE SMOOTH",
"510 114 OFFCURVE",
"531 177 OFFCURVE",
"531 269 CURVE SMOOTH",
"531 700 LINE",
"303 700 LINE",
"303 265 LINE SMOOTH",
"303 216 OFFCURVE",
"277 184 OFFCURVE",
"238 184 CURVE SMOOTH",
"200 184 OFFCURVE",
"174 207 OFFCURVE",
"147 245 CURVE",
"-6 116 LINE",
"45 40 OFFCURVE",
"122 -14 OFFCURVE",
"256 -14 CURVE SMOOTH"
);
}
);
};
layerId = "5DA6E103-6A94-47F2-987D-4952DB8EA68E";
paths = (
{
closed = 1;
nodes = (
"111 701 LINE",
"89 518 LINE",
"327 518 LINE",
"293 247 LINE SMOOTH",
"288 207 OFFCURVE",
"260 183 OFFCURVE",
"224 183 CURVE SMOOTH",
"193 183 OFFCURVE",
"141 203 OFFCURVE",
"93 258 CURVE",
"-26 116 LINE",
"38 38 OFFCURVE",
"122 -10 OFFCURVE",
"239 -10 CURVE SMOOTH",
"396 -10 OFFCURVE",
"505 75 OFFCURVE",
"524 232 CURVE SMOOTH",
"582 701 LINE"
);
}
);
width = 569;
},
{
anchors = (
{
name = top;
position = "{291, 700}";
}
);
layerId = "1C84A7F3-C40A-4DC1-B8B4-102D183C348F";
paths = (
{
closed = 1;
nodes = (
"114 700 LINE",
"102 599 LINE",
"344 599 LINE",
"297 221 LINE",
"288 147 OFFCURVE",
"244 104 OFFCURVE",
"179 104 CURVE",
"133 104 OFFCURVE",
"82 129 OFFCURVE",
"42 179 CURVE",
"-22 97 LINE",
"22 34 OFFCURVE",
"88 -5 OFFCURVE",
"174 -5 CURVE",
"307 -5 OFFCURVE",
"398 72 OFFCURVE",
"415 212 CURVE",
"475 700 LINE"
);
}
);
width = 499;
}
);
leftKerningGroup = J;
rightKerningGroup = U;
unicode = 004A;
},
{
glyphname = J.ss01;
lastChange = "2015-04-22 19:02:19 +0000";
layers = (
{
anchors = (
{
name = top;
position = "{282, 699}";
}
);
background = {
paths = (
{
closed = 1;
nodes = (
"43 593 LINE",
"265 593 LINE",
"265 232 LINE SMOOTH",
"265 144 OFFCURVE",
"210 108 OFFCURVE",
"154 108 CURVE SMOOTH",
"104 108 OFFCURVE",
"61 135 OFFCURVE",
"21 173 CURVE",
"-46 80 LINE",
"14 20 OFFCURVE",
"87 -6 OFFCURVE",
"162 -6 CURVE SMOOTH",
"282 -6 OFFCURVE",
"383 66 OFFCURVE",
"383 238 CURVE SMOOTH",
"383 699 LINE",
"43 699 LINE"
);
}
);
};
layerId = UUID0;
paths = (
{
closed = 1;
nodes = (
"120 699 LINE",
"117 679 LINE",
"379 679 LINE",
"308 97 LINE",
"294 -18 OFFCURVE",
"232 -80 OFFCURVE",
"133 -80 CURVE",
"71 -80 OFFCURVE",
"19 -48 OFFCURVE",
"-15 12 CURVE",
"-30 -2 LINE",
"6 -65 OFFCURVE",
"64 -100 OFFCURVE",
"133 -100 CURVE",
"243 -100 OFFCURVE",
"311 -30 OFFCURVE",
"327 97 CURVE",
"401 699 LINE"
);
}
);
width = 458;
},
{
anchors = (
{
name = top;
position = "{338, 701}";
}
);
background = {
paths = (
{
closed = 1;
nodes = (
"112 565 LINE",
"319 565 LINE",
"319 237 LINE SMOOTH",
"319 165 OFFCURVE",
"279 135 OFFCURVE",
"239 135 CURVE SMOOTH",
"192 135 OFFCURVE",
"149 158 OFFCURVE",
"107 203 CURVE",
"26 91 LINE",
"92 23 OFFCURVE",
"169 -6 OFFCURVE",
"246 -6 CURVE SMOOTH",
"371 -6 OFFCURVE",
"476 67 OFFCURVE",
"476 243 CURVE SMOOTH",
"476 699 LINE",
"112 699 LINE"
);
}
);
};
layerId = "5DA6E103-6A94-47F2-987D-4952DB8EA68E";
paths = (
{
closed = 1;
nodes = (
"111 701 LINE",
"89 518 LINE",
"328 518 LINE",
"282 147 LINE SMOOTH",
"277 107 OFFCURVE",
"248 83 OFFCURVE",
"212 83 CURVE SMOOTH",
"181 83 OFFCURVE",
"129 103 OFFCURVE",
"80 158 CURVE",
"-38 16 LINE",
"25 -62 OFFCURVE",
"109 -110 OFFCURVE",
"226 -110 CURVE SMOOTH",
"383 -110 OFFCURVE",
"493 -25 OFFCURVE",
"512 132 CURVE SMOOTH",
"582 701 LINE"
);
}
);
width = 569;
},
{
anchors = (
{
name = top;
position = "{308, 700}";
}
);
layerId = "1C84A7F3-C40A-4DC1-B8B4-102D183C348F";
paths = (
{
closed = 1;
nodes = (
"114 700 LINE",
"102 599 LINE",
"344 599 LINE",
"285 121 LINE",
"276 47 OFFCURVE",
"231 4 OFFCURVE",
"166 4 CURVE",
"120 4 OFFCURVE",
"70 29 OFFCURVE",
"30 79 CURVE",
"-34 -3 LINE",
"10 -66 OFFCURVE",
"76 -105 OFFCURVE",
"161 -105 CURVE",
"295 -105 OFFCURVE",
"386 -28 OFFCURVE",
"403 112 CURVE",
"475 700 LINE"
);
}
);
width = 499;
}
);
leftKerningGroup = J.ss01;
leftMetricsKey = J;
rightKerningGroup = J.ss01;
rightMetricsKey = J;
},
{
glyphname = K;
lastChange = "2015-04-22 19:02:19 +0000";
layers = (
{
anchors = (
{
name = bottom;
position = "{302, 0}";
},
{
name = top;
position = "{388, 699}";
}
);
background = {
paths = (
{
closed = 1;
nodes = (
"97 699 LINE",
"97 0 LINE",
"215 0 LINE",
"215 196 LINE",
"317 306 LINE",
"549 0 LINE",
"689 0 LINE",
"404 393 LINE",
"685 699 LINE",
"535 699 LINE",
"215 358 LINE",
"215 699 LINE"
);
}
);
};
layerId = UUID0;
paths = (
{
closed = 1;
nodes = (
"643 699 LINE",
"142 220 LINE",
"201 699 LINE",
"181 699 LINE",
"95 0 LINE",
"115 0 LINE",
"138 191 LINE",
"671 699 LINE"
);
},
{
closed = 1;
nodes = (
"321 376 LINE",
"580 0 LINE",
"607 0 LINE",
"335 394 LINE"
);
}
);
width = 670;
},
{
anchors = (
{
name = bottom;
position = "{340, 0}";
},
{
name = top;
position = "{426, 701}";
}
);
background = {
paths = (
{
closed = 1;
nodes = (
"40 0 LINE",
"274 0 LINE",
"274 149 LINE",
"334 222 LINE",
"471 0 LINE",
"750 0 LINE",
"501 396 LINE",
"745 700 LINE",
"473 700 LINE",
"274 438 LINE",
"274 700 LINE",
"40 700 LINE"
);
}
);
};
layerId = "5DA6E103-6A94-47F2-987D-4952DB8EA68E";
paths = (
{
closed = 1;
nodes = (
"542 701 LINE",
"303 458 LINE",
"335 701 LINE",
"103 701 LINE",
"17 0 LINE",
"249 0 LINE",
"271 165 LINE",
"813 701 LINE"
);
},
{
closed = 1;
nodes = (
"336 262 LINE",
"465 0 LINE",
"738 0 LINE",
"511 444 LINE"
);
}
);
width = 773;
},
{
anchors = (
{
name = bottom;
position = "{320, 0}";
},
{
name = top;
position = "{405, 700}";
}
);
layerId = "1C84A7F3-C40A-4DC1-B8B4-102D183C348F";
paths = (
{
closed = 1;
nodes = (
"597 700 LINE",
"217 330 LINE",
"263 700 LINE",
"145 700 LINE",
"59 0 LINE",
"177 0 LINE",
"200 179 LINE",
"736 700 LINE"
);
},
{
closed = 1;
nodes = (
"328 323 LINE",
"527 0 LINE",
"668 0 LINE",
"416 417 LINE"
);
}
);
width = 718;
}
);
leftKerningGroup = H;
rightKerningGroup = X;
unicode = 004B;
},
{
glyphname = L;
lastChange = "2015-04-22 19:02:19 +0000";
layers = (
{
anchors = (
{
name = bottom;
position = "{255, 0}";
},
{
name = top;
position = "{201, 699}";
}
);
background = {
paths = (
{
closed = 1;
nodes = (
"97 0 LINE",
"534 0 LINE",
"534 112 LINE",
"215 112 LINE",
"215 699 LINE",
"97 699 LINE"
);
}
);
};
layerId = UUID0;
paths = (
{
closed = 1;
nodes = (
"181 699 LINE",
"95 0 LINE",
"428 0 LINE",
"430 20 LINE",
"117 20 LINE",
"201 699 LINE"
);
}
);
width = 491;
},
{
anchors = (
{
name = bottom;
position = "{259, 0}";
},
{
name = top;
position = "{212, 701}";
}
);
background = {
paths = (
{
closed = 1;
nodes = (
"40 0 LINE",
"603 0 LINE",
"603 200 LINE",
"274 200 LINE",
"274 700 LINE",
"40 700 LINE"
);
}
);
};
layerId = "5DA6E103-6A94-47F2-987D-4952DB8EA68E";
paths = (
{
closed = 1;
nodes = (
"103 701 LINE",
"17 0 LINE",
"541 0 LINE",
"565 193 LINE",
"273 193 LINE",
"335 701 LINE"
);
}
);
width = 584;
},
{
anchors = (
{
name = bottom;
position = "{257, 0}";
},
{
name = top;
position = "{206, 700}";
}
);
layerId = "1C84A7F3-C40A-4DC1-B8B4-102D183C348F";
paths = (
{
closed = 1;
nodes = (
"145 700 LINE",
"59 0 LINE",
"480 0 LINE",
"492 101 LINE",
"189 101 LINE",
"263 700 LINE"
);
}
);
width = 534;
}
);
leftKerningGroup = H;
rightKerningGroup = L;
unicode = 004C;
},
{
glyphname = Lslash;
lastChange = "2015-04-22 19:03:48 +0000";
layers = (
{
components = (
{
name = L;
}
);
layerId = UUID0;
paths = (
{
closed = 1;
nodes = (
"56 428 LINE",
"58 409 LINE",
"377 497 LINE",
"374 517 LINE"
);
}
);
width = 503;
},
{
background = {
paths = (
{
closed = 1;
nodes = (
"100 0 LINE",
"658 0 LINE",
"658 200 LINE",
"334 200 LINE",
"334 297 LINE",
"496 344 LINE",
"496 547 LINE",
"334 500 LINE",
"334 700 LINE",
"100 700 LINE",
"100 431 LINE",
"23 409 LINE",
"23 206 LINE",
"100 228 LINE"
);
}
);
};
components = (
{
name = L;
transform = "{1, 0, 0, 1, 3, 0}";
}
);
layerId = "5DA6E103-6A94-47F2-987D-4952DB8EA68E";
paths = (
{
closed = 1;
nodes = (
"-11 412 LINE",
"10 278 LINE",
"489 412 LINE",
"467 547 LINE"
);
}
);
width = 606;
},
{
components = (
{
name = L;
transform = "{1, 0, 0, 1, 10, 0}";
}
);
layerId = "1C84A7F3-C40A-4DC1-B8B4-102D183C348F";
paths = (
{
closed = 1;
nodes = (
"25 421 LINE",
"36 349 LINE",
"428 458 LINE",
"417 531 LINE"
);
}
);
width = 551;
}
);
leftKerningGroup = H;
rightKerningGroup = L;
rightMetricsKey = L;
unicode = 0141;
},
{
glyphname = M;
lastChange = "2015-04-22 19:02:19 +0000";
layers = (
{
background = {
paths = (
{
closed = 1;
nodes = (
"458 61 LINE",
"524 61 LINE",
"768 546 LINE",
"768 0 LINE",
"886 0 LINE",
"886 699 LINE",
"703 699 LINE",
"492 260 LINE",
"281 699 LINE",
"97 699 LINE",
"97 0 LINE",
"215 0 LINE",
"215 546 LINE"
);
}
);
};
layerId = UUID0;
paths = (
{
closed = 1;
nodes = (
"804 699 LINE",
"440 120 LINE SMOOTH",
"216 699 LINE",
"181 699 LINE",
"95 0 LINE",
"115 0 LINE",
"198 680 LINE",
"432 77 LINE",
"434 77 LINE",
"815 680 LINE",
"733 0 LINE",
"753 0 LINE",
"839 699 LINE"
);
}
);
width = 914;
},
{
background = {
paths = (
{
closed = 1;
nodes = (
"40 0 LINE",
"269 0 LINE",
"269 347 LINE",
"430 98 LINE",
"434 98 LINE",
"595 347 LINE",
"595 0 LINE",
"828 0 LINE",
"828 700 LINE",
"584 700 LINE",
"434 454 LINE",
"284 700 LINE",
"40 700 LINE"
);
}
);
};
layerId = "5DA6E103-6A94-47F2-987D-4952DB8EA68E";
paths = (
{
closed = 1;
nodes = (
"653 701 LINE",
"453 335 LINE",
"347 701 LINE",
"103 701 LINE",
"17 0 LINE",
"219 0 LINE",
"267 384 LINE",
"348 68 LINE",
"500 68 LINE",
"659 384 LINE",
"611 0 LINE",
"813 0 LINE",
"899 701 LINE"
);
}
);
width = 896;
},
{
layerId = "1C84A7F3-C40A-4DC1-B8B4-102D183C348F";
paths = (
{
closed = 1;
nodes = (
"745 700 LINE",
"456 228 LINE SMOOTH",
"284 700 LINE",
"145 700 LINE",
"59 0 LINE",
"170 0 LINE",
"236 533 LINE",
"401 73 LINE",
"478 73 LINE",
"755 533 LINE",
"690 0 LINE",
"799 0 LINE",
"885 700 LINE"
);
}
);
width = 925;
}
);
leftKerningGroup = H;
rightKerningGroup = H;
unicode = 004D;
},
{
glyphname = M.ss01;
lastChange = "2015-04-22 19:02:19 +0000";
layers = (
{
anchors = (
{
name = ogonek;
position = "{174, 10}";
},
{
name = top;
position = "{191, 699}";
}
);
background = {
paths = (
{
closed = 1;
nodes = (
"128 699 LINE",
"128 0 LINE",
"148 0 LINE",
"148 699 LINE"
);
},
{
closed = 1;
nodes = (
"247 696 OFFCURVE",
"129 581 OFFCURVE",
"129 425 CURVE",
"147 425 LINE",
"147 569 OFFCURVE",
"258 676 OFFCURVE",
"396 679 CURVE",
"522 679 OFFCURVE",
"609 587 OFFCURVE",
"609 445 CURVE",
"609 0 LINE SMOOTH",
"629 0 LINE",
"629 445 LINE",
"629 599 OFFCURVE",
"534 699 OFFCURVE",
"396 699 CURVE"
);
},
{
closed = 1;
nodes = (
"729 696 OFFCURVE",
"611 581 OFFCURVE",
"611 425 CURVE",
"629 425 LINE",
"629 569 OFFCURVE",
"740 676 OFFCURVE",
"878 679 CURVE",
"1004 679 OFFCURVE",
"1090 587 OFFCURVE",
"1090 445 CURVE",
"1090 0 LINE SMOOTH",
"1110 0 LINE",
"1110 445 LINE",
"1110 599 OFFCURVE",
"1016 699 OFFCURVE",
"878 699 CURVE"
);
}
);
};
layerId = UUID0;
paths = (
{
closed = 1;
nodes = (
"297 695 OFFCURVE",
"167 580 OFFCURVE",
"148 425 CURVE",
"166 425 LINE",
"184 568 OFFCURVE",
"305 675 OFFCURVE",
"453 679 CURVE",
"573 679 OFFCURVE",
"650 580 OFFCURVE",
"634 445 CURVE",
"579 0 LINE SMOOTH",
"599 0 LINE",
"654 445 LINE",
"672 592 OFFCURVE",
"588 699 OFFCURVE",
"454 699 CURVE"
);
},
{
closed = 1;
nodes = (
"782 695 OFFCURVE",
"652 580 OFFCURVE",
"633 425 CURVE",
"651 425 LINE",
"669 568 OFFCURVE",
"790 675 OFFCURVE",
"938 679 CURVE",
"1058 679 OFFCURVE",
"1135 580 OFFCURVE",
"1119 445 CURVE",
"1064 0 LINE SMOOTH",
"1084 0 LINE",
"1139 445 LINE",
"1157 592 OFFCURVE",
"1073 699 OFFCURVE",
"939 699 CURVE"
);
},
{
closed = 1;
nodes = (
"181 699 LINE",
"95 0 LINE",
"115 0 LINE",
"201 699 LINE"
);
}
);
width = 1227;
},
{
anchors = (
{
name = ogonek;
position = "{267, 10}";
},
{
name = top;
position = "{219, 701}";
}
);
background = {
paths = (
{
closed = 1;
nodes = (
"327 701 OFFCURVE",
"232 577 OFFCURVE",
"232 385 CURVE",
"282 380 LINE",
"282 448 OFFCURVE",
"321 493 OFFCURVE",
"379 493 CURVE SMOOTH",
"435 493 OFFCURVE",
"466 452 OFFCURVE",
"466 387 CURVE SMOOTH",
"466 0 LINE",
"701 0 LINE",
"701 443 LINE SMOOTH",
"701 600 OFFCURVE",
"612 701 OFFCURVE",
"477 701 CURVE SMOOTH"
);
}
);
};
layerId = "5DA6E103-6A94-47F2-987D-4952DB8EA68E";
paths = (
{
closed = 1;
nodes = (
"376 701 OFFCURVE",
"270 582 OFFCURVE",
"247 390 CURVE",
"295 375 LINE",
"303 443 OFFCURVE",
"353 493 OFFCURVE",
"415 493 CURVE SMOOTH",
"467 493 OFFCURVE",
"489 457 OFFCURVE",
"481 392 CURVE SMOOTH",
"433 0 LINE",
"668 0 LINE",
"722 438 LINE SMOOTH",
"741 595 OFFCURVE",
"661 701 OFFCURVE",
"522 701 CURVE SMOOTH"
);
},
{
closed = 1;
nodes = (
"795 701 OFFCURVE",
"689 582 OFFCURVE",
"666 390 CURVE",
"714 375 LINE",
"722 443 OFFCURVE",
"772 493 OFFCURVE",
"834 493 CURVE SMOOTH",
"886 493 OFFCURVE",
"908 457 OFFCURVE",
"900 392 CURVE SMOOTH",
"852 0 LINE",
"1087 0 LINE",
"1141 438 LINE SMOOTH",
"1160 595 OFFCURVE",
"1080 701 OFFCURVE",
"941 701 CURVE SMOOTH"
);
},
{
closed = 1;
nodes = (
"103 701 LINE",
"17 0 LINE",
"249 0 LINE",
"335 701 LINE"
);
}
);
width = 1160;
},
{
anchors = (
{
name = ogonek;
position = "{217, 10}";
},
{
name = top;
position = "{204, 700}";
}
);
layerId = "1C84A7F3-C40A-4DC1-B8B4-102D183C348F";
paths = (
{
closed = 1;
nodes = (
"319 698 OFFCURVE",
"195 582 OFFCURVE",
"174 410 CURVE",
"223 373 LINE",
"237 492 OFFCURVE",
"327 591 OFFCURVE",
"436 593 CURVE",
"525 593 OFFCURVE",
"576 524 OFFCURVE",
"564 421 CURVE",
"512 0 LINE SMOOTH",
"631 0 LINE",
"685 441 LINE",
"704 593 OFFCURVE",
"618 700 OFFCURVE",
"482 700 CURVE"
);
},
{
closed = 1;
nodes = (
"773 698 OFFCURVE",
"650 582 OFFCURVE",
"629 410 CURVE",
"678 373 LINE",
"691 492 OFFCURVE",
"782 591 OFFCURVE",
"890 593 CURVE",
"979 593 OFFCURVE",
"1030 524 OFFCURVE",
"1018 421 CURVE",
"966 0 LINE SMOOTH",
"1085 0 LINE",
"1139 441 LINE",
"1158 593 OFFCURVE",
"1072 700 OFFCURVE",
"936 700 CURVE"
);
},
{
closed = 1;
nodes = (
"145 700 LINE",
"59 0 LINE",
"177 0 LINE",
"263 700 LINE"
);
}
);
width = 1196;
}
);
leftKerningGroup = M.ss01;
leftMetricsKey = H;
rightKerningGroup = M.ss01;
rightMetricsKey = U;
},
{
color = 0;
glyphname = N;
lastChange = "2015-04-22 19:02:19 +0000";
layers = (
{
anchors = (
{
name = bottom;
position = "{367, 0}";
},
{
name = top;
position = "{453, 699}";
}
);
background = {
paths = (
{
closed = 1;
nodes = (
"621 177 LINE",
"215 699 LINE",
"97 699 LINE",
"97 0 LINE",
"215 0 LINE",
"215 510 LINE",
"611 0 LINE",
"739 0 LINE",
"739 699 LINE",
"621 699 LINE"
);
}
);
};
layerId = UUID0;
paths = (
{
closed = 1;
nodes = (
"704 699 LINE",
"620 20 LINE",
"211 699 LINE",
"181 699 LINE",
"95 0 LINE",
"115 0 LINE",
"198 679 LINE",
"608 0 LINE",
"638 0 LINE",
"724 699 LINE"
);
}
);
width = 799;
},
{
anchors = (
{
name = bottom;
position = "{358, 0}";
},
{
name = top;
position = "{444, 701}";
}
);
background = {
paths = (
{
closed = 1;
nodes = (
"40 0 LINE",
"272 0 LINE",
"272 323 LINE",
"532 0 LINE",
"740 0 LINE",
"740 700 LINE",
"508 700 LINE",
"508 391 LINE",
"259 700 LINE",
"40 700 LINE"
);
}
);
};
layerId = "5DA6E103-6A94-47F2-987D-4952DB8EA68E";
paths = (
{
closed = 1;
nodes = (
"574 701 LINE",
"528 341 LINE",
"295 701 LINE",
"103 701 LINE",
"17 0 LINE",
"228 0 LINE",
"274 358 LINE",
"506 0 LINE",
"698 0 LINE",
"784 701 LINE"
);
}
);
width = 781;
},
{
anchors = (
{
name = bottom;
position = "{363, 0}";
},
{
name = top;
position = "{449, 700}";
}
);
layerId = "1C84A7F3-C40A-4DC1-B8B4-102D183C348F";
paths = (
{
closed = 1;
nodes = (
"636 700 LINE",
"572 187 LINE",
"260 700 LINE",
"145 700 LINE",
"59 0 LINE",
"177 0 LINE",
"240 512 LINE",
"551 0 LINE",
"666 0 LINE",
"752 700 LINE"
);
}
);
width = 792;
}
);
leftKerningGroup = H;
rightKerningGroup = H;
unicode = 004E;
},
{
glyphname = N.ss01;
lastChange = "2015-04-22 19:02:19 +0000";
layers = (
{
anchors = (
{
name = bottom;
position = "{363, 0}";
},
{
name = ogonek;
position = "{174, 10}";
},
{
name = top;
position = "{449, 699}";
}
);
background = {
paths = (
{
closed = 1;
nodes = (
"105 517 LINE",
"105 0 LINE",
"125 0 LINE",
"125 517 LINE"
);
},
{
closed = 1;
nodes = (
"194 514 OFFCURVE",
"106 416 OFFCURVE",
"106 253 CURVE",
"124 253 LINE",
"124 403 OFFCURVE",
"205 494 OFFCURVE",
"343 497 CURVE",
"458 497 OFFCURVE",
"526 429 OFFCURVE",
"526 313 CURVE",
"526 0 LINE SMOOTH",
"546 0 LINE",
"546 313 LINE",
"546 441 OFFCURVE",
"471 517 OFFCURVE",
"343 517 CURVE"
);
}
);
};
layerId = UUID0;
paths = (
{
closed = 1;
nodes = (
"309 695 OFFCURVE",
"167 580 OFFCURVE",
"148 425 CURVE",
"166 425 LINE",
"184 568 OFFCURVE",
"317 675 OFFCURVE",
"483 679 CURVE",
"615 679 OFFCURVE",
"700 580 OFFCURVE",
"684 445 CURVE",
"629 0 LINE SMOOTH",
"649 0 LINE",
"704 445 LINE",
"722 592 OFFCURVE",
"630 699 OFFCURVE",
"484 699 CURVE"
);
},
{
closed = 1;
nodes = (
"181 699 LINE",
"95 0 LINE",
"115 0 LINE",
"201 699 LINE"
);
}
);
width = 792;
},
{
anchors = (
{
name = bottom;
position = "{348, 0}";
},
{
name = ogonek;
position = "{267, 10}";
},
{
name = top;
position = "{454, 701}";
}
);
layerId = "5DA6E103-6A94-47F2-987D-4952DB8EA68E";
leftMetricsKey = "=H";
paths = (
{
closed = 1;
nodes = (
"381 701 OFFCURVE",
"270 582 OFFCURVE",
"247 390 CURVE",
"295 375 LINE",
"304 444 OFFCURVE",
"357 493 OFFCURVE",
"429 493 CURVE SMOOTH",
"482 493 OFFCURVE",
"509 456 OFFCURVE",
"501 392 CURVE SMOOTH",
"453 0 LINE",
"688 0 LINE",
"742 438 LINE SMOOTH",
"761 595 OFFCURVE",
"678 701 OFFCURVE",
"531 701 CURVE SMOOTH"
);
},
{
closed = 1;
nodes = (
"103 701 LINE",
"17 0 LINE",
"249 0 LINE",
"335 701 LINE"
);
}
);
width = 761;
},
{
anchors = (
{
name = bottom;
position = "{352, 0}";
},
{
name = ogonek;
position = "{217, 10}";
},
{
name = top;
position = "{438, 700}";
}
);
layerId = "1C84A7F3-C40A-4DC1-B8B4-102D183C348F";
paths = (
{
closed = 1;
nodes = (
"325 698 OFFCURVE",
"194 582 OFFCURVE",
"173 410 CURVE",
"223 373 LINE",
"237 492 OFFCURVE",
"334 591 OFFCURVE",
"452 593 CURVE",
"547 593 OFFCURVE",
"604 524 OFFCURVE",
"592 421 CURVE",
"540 0 LINE SMOOTH",
"659 0 LINE",
"713 441 LINE",
"732 593 OFFCURVE",
"641 700 OFFCURVE",
"497 700 CURVE"
);
},
{
closed = 1;
nodes = (
"145 700 LINE",
"59 0 LINE",
"177 0 LINE",
"263 700 LINE"
);
}
);
width = 770;
}
);
leftKerningGroup = N.ss01;
leftMetricsKey = H;
rightKerningGroup = N.ss01;
rightMetricsKey = U;
},
{
glyphname = Eng;
lastChange = "2015-04-22 19:02:19 +0000";
layers = (
{
anchors = (
{
name = bottom;
position = "{367, 0}";
},
{
name = top;
position = "{453, 699}";
}
);
background = {
paths = (
{
closed = 1;
nodes = (
"671 699 LINE",
"651 699 LINE",
"651 20 LINE",
"158 699 LINE",
"128 699 LINE",
"128 0 LINE",
"148 0 LINE",
"148 679 LINE",
"641 0 LINE",
"651 0 LINE",
"650 -113 OFFCURVE",
"597 -175 OFFCURVE",
"500 -175 CURVE SMOOTH",
"437 -175 OFFCURVE",
"381 -143 OFFCURVE",
"340 -83 CURVE",
"326 -97 LINE",
"370 -160 OFFCURVE",
"432 -195 OFFCURVE",
"500 -195 CURVE SMOOTH",
"610 -195 OFFCURVE",
"671 -125 OFFCURVE",
"671 0 CURVE SMOOTH"
);
}
);
};
layerId = UUID0;
paths = (
{
closed = 1;
nodes = (
"604 -114 OFFCURVE",
"542 -176 OFFCURVE",
"443 -176 CURVE SMOOTH",
"381 -176 OFFCURVE",
"329 -144 OFFCURVE",
"296 -84 CURVE",
"280 -98 LINE",
"316 -161 OFFCURVE",
"374 -196 OFFCURVE",
"443 -196 CURVE SMOOTH",
"553 -196 OFFCURVE",
"623 -126 OFFCURVE",
"638 0 CURVE",
"618 3 LINE"
);
},
{
closed = 1;
nodes = (
"704 699 LINE",
"620 20 LINE",
"211 699 LINE",
"181 699 LINE",
"95 0 LINE",
"115 0 LINE",
"198 679 LINE",
"608 0 LINE",
"638 0 LINE",
"724 699 LINE"
);
}
);
width = 799;
},
{
anchors = (
{
name = bottom;
position = "{363, 0}";
},
{
name = top;
position = "{449, 700}";
}
);
background = {
paths = (
{
closed = 1;
nodes = (
"580 20 LINE",
"580 -54 OFFCURVE",
"543 -94 OFFCURVE",
"480 -94 CURVE",
"432 -94 OFFCURVE",
"377 -67 OFFCURVE",
"331 -17 CURVE",
"275 -103 LINE",
"327 -166 OFFCURVE",
"397 -203 OFFCURVE",
"481 -203 CURVE",
"616 -203 OFFCURVE",
"699 -123 OFFCURVE",
"699 17 CURVE"
);
}
);
};
layerId = "1C84A7F3-C40A-4DC1-B8B4-102D183C348F";
paths = (
{
closed = 1;
nodes = (
"541 -51 OFFCURVE",
"493 -94 OFFCURVE",
"430 -94 CURVE SMOOTH",
"390 -94 OFFCURVE",
"341 -77 OFFCURVE",
"301 -39 CURVE",
"238 -121 LINE",
"282 -172 OFFCURVE",
"345 -203 OFFCURVE",
"427 -203 CURVE SMOOTH",
"558 -203 OFFCURVE",
"651 -126 OFFCURVE",
"666 -2 CURVE",
"550 23 LINE"
);
},
{
closed = 1;
nodes = (
"636 700 LINE",
"572 187 LINE",
"260 700 LINE",
"145 700 LINE",
"59 0 LINE",
"177 0 LINE",
"240 512 LINE",
"551 0 LINE",
"666 0 LINE",
"752 700 LINE"
);
}
);
width = 792;
},
{
anchors = (
{
name = bottom;
position = "{358, 0}";
},
{
name = top;
position = "{444, 701}";
}
);
background = {
paths = (
{
closed = 1;
nodes = (
"522 19 LINE",
"522 3 LINE",
"515 -21 OFFCURVE",
"496 -32 OFFCURVE",
"471 -32 CURVE SMOOTH",
"452 -32 OFFCURVE",
"401 -25 OFFCURVE",
"373 -10 CURVE",
"298 -185 LINE",
"348 -211 OFFCURVE",
"403 -225 OFFCURVE",
"467 -225 CURVE SMOOTH",
"620 -225 OFFCURVE",
"722 -143 OFFCURVE",
"731 0 CURVE"
);
}
);
};
layerId = "5DA6E103-6A94-47F2-987D-4952DB8EA68E";
paths = (
{
closed = 1;
nodes = (
"491 -6 OFFCURVE",
"466 -32 OFFCURVE",
"422 -32 CURVE SMOOTH",
"403 -32 OFFCURVE",
"372 -27 OFFCURVE",
"335 -12 CURVE",
"245 -183 LINE",
"293 -209 OFFCURVE",
"346 -225 OFFCURVE",
"414 -225 CURVE SMOOTH",
"563 -225 OFFCURVE",
"671 -148 OFFCURVE",
"697 -5 CURVE",
"497 38 LINE"
);
},
{
closed = 1;
nodes = (
"574 701 LINE",
"528 341 LINE",
"295 701 LINE",
"103 701 LINE",
"17 0 LINE",
"228 0 LINE",
"274 358 LINE",
"506 0 LINE",
"698 0 LINE",
"784 701 LINE"
);
}
);
width = 781;
}
);
leftKerningGroup = H;
rightKerningGroup = H;
unicode = 014A;
},
{
glyphname = Eng.ss01;
lastChange = "2015-04-22 19:02:19 +0000";
layers = (
{
anchors = (
{
name = bottom;
position = "{363, 0}";
},
{
name = ogonek;
position = "{174, 10}";
},
{
name = top;
position = "{449, 699}";
}
);
layerId = UUID0;
paths = (
{
closed = 1;
nodes = (
"615 -114 OFFCURVE",
"553 -176 OFFCURVE",
"454 -176 CURVE SMOOTH",
"392 -176 OFFCURVE",
"340 -144 OFFCURVE",
"307 -84 CURVE",
"291 -98 LINE",
"327 -161 OFFCURVE",
"385 -196 OFFCURVE",
"454 -196 CURVE SMOOTH",
"564 -196 OFFCURVE",
"634 -126 OFFCURVE",
"649 0 CURVE",
"629 3 LINE"
);
},
{
closed = 1;
nodes = (
"309 695 OFFCURVE",
"167 580 OFFCURVE",
"148 425 CURVE",
"166 425 LINE",
"184 568 OFFCURVE",
"317 675 OFFCURVE",
"483 679 CURVE",
"615 679 OFFCURVE",
"700 580 OFFCURVE",
"684 445 CURVE",
"629 0 LINE SMOOTH",
"649 0 LINE",
"704 445 LINE",
"722 592 OFFCURVE",
"630 699 OFFCURVE",
"484 699 CURVE"
);
},
{
closed = 1;
nodes = (
"181 699 LINE",
"95 0 LINE",
"115 0 LINE",
"201 699 LINE"
);
}
);
width = 792;
},
{
anchors = (
{
name = bottom;
position = "{352, 0}";
},
{
name = ogonek;
position = "{217, 10}";
},
{
name = top;
position = "{438, 700}";
}
);
layerId = "1C84A7F3-C40A-4DC1-B8B4-102D183C348F";
paths = (
{
closed = 1;
nodes = (
"534 -51 OFFCURVE",
"486 -94 OFFCURVE",
"423 -94 CURVE SMOOTH",
"383 -94 OFFCURVE",
"334 -77 OFFCURVE",
"294 -39 CURVE",
"231 -121 LINE",
"275 -172 OFFCURVE",
"338 -203 OFFCURVE",
"420 -203 CURVE SMOOTH",
"551 -203 OFFCURVE",
"643 -127 OFFCURVE",
"659 -3 CURVE",
"543 23 LINE"
);
},
{
closed = 1;
nodes = (
"325 698 OFFCURVE",
"194 582 OFFCURVE",
"173 410 CURVE",
"223 373 LINE",
"237 492 OFFCURVE",
"334 591 OFFCURVE",
"452 593 CURVE",
"547 593 OFFCURVE",
"604 524 OFFCURVE",
"592 421 CURVE",
"540 0 LINE SMOOTH",
"659 0 LINE",
"713 441 LINE",
"732 593 OFFCURVE",
"641 700 OFFCURVE",
"497 700 CURVE"
);
},
{
closed = 1;
nodes = (
"145 700 LINE",
"59 0 LINE",
"177 0 LINE",
"263 700 LINE"
);
}
);
width = 770;
},
{
anchors = (
{
name = bottom;
position = "{348, 0}";
},
{
name = ogonek;
position = "{267, 10}";
},
{
name = top;
position = "{454, 701}";
}
);
layerId = "5DA6E103-6A94-47F2-987D-4952DB8EA68E";
paths = (
{
closed = 1;
nodes = (
"452 -12 OFFCURVE",
"430 -32 OFFCURVE",
"397 -32 CURVE SMOOTH",
"380 -32 OFFCURVE",
"353 -27 OFFCURVE",
"321 -12 CURVE",
"235 -183 LINE",
"283 -209 OFFCURVE",
"336 -225 OFFCURVE",
"404 -225 CURVE SMOOTH",
"553 -225 OFFCURVE",
"661 -148 OFFCURVE",
"687 -5 CURVE",
"455 17 LINE"
);
},
{
closed = 1;
nodes = (
"381 701 OFFCURVE",
"270 582 OFFCURVE",
"247 390 CURVE",
"295 375 LINE",
"304 444 OFFCURVE",
"357 493 OFFCURVE",
"429 493 CURVE SMOOTH",
"482 493 OFFCURVE",
"509 456 OFFCURVE",
"501 392 CURVE SMOOTH",
"453 0 LINE",
"688 0 LINE",
"742 438 LINE SMOOTH",
"761 595 OFFCURVE",
"678 701 OFFCURVE",
"531 701 CURVE SMOOTH"
);
},
{
closed = 1;
nodes = (
"103 701 LINE",
"17 0 LINE",
"249 0 LINE",
"335 701 LINE"
);
}
);
width = 761;
}
);
leftKerningGroup = H;
rightKerningGroup = H;
},
{
color = 0;
glyphname = Ntilde;
lastChange = "2015-04-22 19:02:19 +0000";
layers = (
{
background = {
components = (
{
name = N;
},
{
name = tilde;
transform = "{1, 0, 0, 1, 154, 15}";
}
);
};
components = (
{
name = N;
},
{
name = tilde;
transform = "{1, 0, 0, 1, 247, 182}";
}
);
layerId = UUID0;
width = 799;
},
{
background = {
paths = (
{
closed = 1;
nodes = (
"40 0 LINE",
"272 0 LINE",
"272 323 LINE",
"532 0 LINE",
"740 0 LINE",
"740 700 LINE",
"508 700 LINE",
"508 391 LINE",
"259 700 LINE",
"40 700 LINE"
);
},
{
closed = 1;
nodes = (
"275 735 LINE",
"287 766 OFFCURVE",
"295 779 OFFCURVE",
"320 779 CURVE SMOOTH",
"349 779 OFFCURVE",
"424 740 OFFCURVE",
"482 740 CURVE SMOOTH",
"549 740 OFFCURVE",
"586 785 OFFCURVE",
"606 899 CURVE",
"505 924 LINE",
"493 893 OFFCURVE",
"485 880 OFFCURVE",
"460 880 CURVE SMOOTH",
"431 880 OFFCURVE",
"356 919 OFFCURVE",
"298 919 CURVE SMOOTH",
"231 919 OFFCURVE",
"194 874 OFFCURVE",
"174 760 CURVE"
);
}
);
};
components = (
{
name = N;
},
{
name = tilde;
transform = "{1, 0, 0, 1, 235, 154}";
}
);
layerId = "5DA6E103-6A94-47F2-987D-4952DB8EA68E";
width = 781;
},
{
components = (
{
name = N;
},
{
name = tilde;
transform = "{1, 0, 0, 1, 242, 169}";
}
);
layerId = "1C84A7F3-C40A-4DC1-B8B4-102D183C348F";
width = 792;
}
);
leftKerningGroup = H;
leftMetricsKey = N;
rightKerningGroup = H;
rightMetricsKey = N;
unicode = 00D1;
},
{
glyphname = O;
lastChange = "2015-04-22 19:02:19 +0000";
layers = (
{
anchors = (
{
name = top;
position = "{462, 699}";
}
);
background = {
paths = (
{
closed = 1;
nodes = (
"560 608 OFFCURVE",
"667 494 OFFCURVE",
"667 354 CURVE SMOOTH",
"667 215 OFFCURVE",
"560 101 OFFCURVE",
"420 101 CURVE SMOOTH",
"280 101 OFFCURVE",
"173 215 OFFCURVE",
"173 354 CURVE SMOOTH",
"173 494 OFFCURVE",
"280 608 OFFCURVE",
"420 608 CURVE SMOOTH"
);
},
{
closed = 1;
nodes = (
"627 -7 OFFCURVE",
"788 148 OFFCURVE",
"788 355 CURVE SMOOTH",
"788 561 OFFCURVE",
"627 716 OFFCURVE",
"420 716 CURVE SMOOTH",
"213 716 OFFCURVE",
"52 561 OFFCURVE",
"52 355 CURVE SMOOTH",
"52 148 OFFCURVE",
"213 -7 OFFCURVE",
"420 -7 CURVE SMOOTH"
);
}
);
};
layerId = UUID0;
paths = (
{
closed = 1;
nodes = (
"265 699 OFFCURVE",
"84 542 OFFCURVE",
"60 351 CURVE SMOOTH",
"36 158 OFFCURVE",
"179 0 OFFCURVE",
"377 0 CURVE SMOOTH",
"573 0 OFFCURVE",
"754 158 OFFCURVE",
"778 349 CURVE SMOOTH",
"802 542 OFFCURVE",
"659 699 OFFCURVE",
"461 699 CURVE SMOOTH"
);
},
{
closed = 1;
nodes = (
"645 679 OFFCURVE",
"780 531 OFFCURVE",
"758 351 CURVE SMOOTH",
"736 169 OFFCURVE",
"564 20 OFFCURVE",
"377 20 CURVE SMOOTH",
"192 20 OFFCURVE",
"58 169 OFFCURVE",
"80 349 CURVE SMOOTH",
"102 531 OFFCURVE",
"273 679 OFFCURVE",
"460 679 CURVE SMOOTH"
);
}
);
width = 818;
},
{
anchors = (
{
name = top;
position = "{443, 701}";
}
);
background = {
paths = (
{
closed = 1;
nodes = (
"621 -15 OFFCURVE",
"788 147 OFFCURVE",
"788 350 CURVE SMOOTH",
"788 352 LINE SMOOTH",
"788 555 OFFCURVE",
"623 715 OFFCURVE",
"407 715 CURVE SMOOTH",
"191 715 OFFCURVE",
"24 553 OFFCURVE",
"24 350 CURVE SMOOTH",
"24 348 LINE SMOOTH",
"24 145 OFFCURVE",
"189 -15 OFFCURVE",
"405 -15 CURVE SMOOTH"
);
},
{
closed = 1;
nodes = (
"317 192 OFFCURVE",
"260 267 OFFCURVE",
"260 350 CURVE SMOOTH",
"260 352 LINE SMOOTH",
"260 434 OFFCURVE",
"316 508 OFFCURVE",
"405 508 CURVE SMOOTH",
"495 508 OFFCURVE",
"552 433 OFFCURVE",
"552 350 CURVE SMOOTH",
"552 348 LINE SMOOTH",
"552 266 OFFCURVE",
"496 192 OFFCURVE",
"407 192 CURVE SMOOTH"
);
}
);
};
layerId = "5DA6E103-6A94-47F2-987D-4952DB8EA68E";
paths = (
{
closed = 1;
nodes = (
"227 708 OFFCURVE",
"51 564 OFFCURVE",
"26 362 CURVE SMOOTH",
"0 147 OFFCURVE",
"147 -10 OFFCURVE",
"374 -10 CURVE SMOOTH",
"593 -10 OFFCURVE",
"769 138 OFFCURVE",
"794 340 CURVE SMOOTH",
"820 553 OFFCURVE",
"673 708 OFFCURVE",
"446 708 CURVE SMOOTH"
);
},
{
closed = 1;
nodes = (
"517 515 OFFCURVE",
"569 451 OFFCURVE",
"558 361 CURVE SMOOTH",
"546 259 OFFCURVE",
"468 183 OFFCURVE",
"384 183 CURVE SMOOTH",
"308 183 OFFCURVE",
"251 249 OFFCURVE",
"262 339 CURVE SMOOTH",
"274 441 OFFCURVE",
"356 515 OFFCURVE",
"441 515 CURVE SMOOTH"
);
}
);
width = 800;
},
{
anchors = (
{
name = top;
position = "{453, 700}";
}
);
layerId = "1C84A7F3-C40A-4DC1-B8B4-102D183C348F";
paths = (
{
closed = 1;
nodes = (
"247 703 OFFCURVE",
"69 553 OFFCURVE",
"45 356 CURVE SMOOTH",
"20 154 OFFCURVE",
"164 -5 OFFCURVE",
"375 -5 CURVE SMOOTH",
"582 -5 OFFCURVE",
"761 148 OFFCURVE",
"785 344 CURVE SMOOTH",
"810 546 OFFCURVE",
"665 703 OFFCURVE",
"454 703 CURVE SMOOTH"
);
},
{
closed = 1;
nodes = (
"586 603 OFFCURVE",
"683 495 OFFCURVE",
"666 356 CURVE SMOOTH",
"648 211 OFFCURVE",
"520 95 OFFCURVE",
"381 95 CURVE SMOOTH",
"246 95 OFFCURVE",
"146 205 OFFCURVE",
"163 344 CURVE SMOOTH",
"181 489 OFFCURVE",
"311 603 OFFCURVE",
"451 603 CURVE SMOOTH"
);
}
);
width = 810;
}
);
leftKerningGroup = O;
rightKerningGroup = O;
unicode = 004F;
},
{
color = 0;
glyphname = Oacute;
lastChange = "2015-04-22 19:02:19 +0000";
layers = (
{
background = {
components = (
{
name = O;
},
{
name = acute;
transform = "{1, 0, 0, 1, -2, 129}";
}
);
};
components = (
{
name = O;
},
{
name = acute;
transform = "{1, 0, 0, 1, 305, 182}";
}
);
layerId = UUID0;
width = 818;
},
{
background = {
paths = (
{
closed = 1;
nodes = (
"621 -15 OFFCURVE",
"788 147 OFFCURVE",
"788 350 CURVE SMOOTH",
"788 352 LINE SMOOTH",
"788 555 OFFCURVE",
"623 715 OFFCURVE",
"407 715 CURVE SMOOTH",
"191 715 OFFCURVE",
"24 553 OFFCURVE",
"24 350 CURVE SMOOTH",
"24 348 LINE SMOOTH",
"24 145 OFFCURVE",
"189 -15 OFFCURVE",
"405 -15 CURVE SMOOTH"
);
},
{
closed = 1;
nodes = (
"317 192 OFFCURVE",
"260 267 OFFCURVE",
"260 350 CURVE SMOOTH",
"260 352 LINE SMOOTH",
"260 434 OFFCURVE",
"316 508 OFFCURVE",
"405 508 CURVE SMOOTH",
"495 508 OFFCURVE",
"552 433 OFFCURVE",
"552 350 CURVE SMOOTH",
"552 348 LINE SMOOTH",
"552 266 OFFCURVE",
"496 192 OFFCURVE",
"407 192 CURVE SMOOTH"
);
},
{
closed = 1;
nodes = (
"322 740 LINE",
"474 740 LINE",
"639 875 LINE",
"418 932 LINE"
);
}
);
};
components = (
{
name = O;
},
{
name = acute;
transform = "{1, 0, 0, 1, 277, 154}";
}
);
layerId = "5DA6E103-6A94-47F2-987D-4952DB8EA68E";
width = 800;
},
{
components = (
{
name = O;
},
{
name = acute;
transform = "{1, 0, 0, 1, 292, 169}";
}
);
layerId = "1C84A7F3-C40A-4DC1-B8B4-102D183C348F";
width = 810;
}
);
leftKerningGroup = O;
leftMetricsKey = O;
rightKerningGroup = O;
rightMetricsKey = O;
unicode = 00D3;
},
{
color = 0;
glyphname = Ocircumflex;
lastChange = "2015-04-22 19:02:19 +0000";
layers = (
{
components = (
{
name = O;
},
{
name = circumflex;
transform = "{1, 0, 0, 1, 257, 182}";
}
);
layerId = UUID0;
width = 818;
},
{
background = {
paths = (
{
closed = 1;
nodes = (
"621 -15 OFFCURVE",
"788 147 OFFCURVE",
"788 350 CURVE SMOOTH",
"788 352 LINE SMOOTH",
"788 555 OFFCURVE",
"623 715 OFFCURVE",
"407 715 CURVE SMOOTH",
"191 715 OFFCURVE",
"24 553 OFFCURVE",
"24 350 CURVE SMOOTH",
"24 348 LINE SMOOTH",
"24 145 OFFCURVE",
"189 -15 OFFCURVE",
"405 -15 CURVE SMOOTH"
);
},
{
closed = 1;
nodes = (
"317 192 OFFCURVE",
"260 267 OFFCURVE",
"260 350 CURVE SMOOTH",
"260 352 LINE SMOOTH",
"260 434 OFFCURVE",
"316 508 OFFCURVE",
"405 508 CURVE SMOOTH",
"495 508 OFFCURVE",
"552 433 OFFCURVE",
"552 350 CURVE SMOOTH",
"552 348 LINE SMOOTH",
"552 266 OFFCURVE",
"496 192 OFFCURVE",
"407 192 CURVE SMOOTH"
);
},
{
closed = 1;
nodes = (
"191 735 LINE",
"316 735 LINE",
"405 791 LINE",
"494 735 LINE",
"621 735 LINE",
"488 907 LINE",
"324 907 LINE"
);
}
);
};
components = (
{
name = O;
},
{
name = circumflex;
transform = "{1, 0, 0, 1, 234, 154}";
}
);
layerId = "5DA6E103-6A94-47F2-987D-4952DB8EA68E";
width = 800;
},
{
components = (
{
name = O;
},
{
name = circumflex;
transform = "{1, 0, 0, 1, 245, 166}";
}
);
layerId = "1C84A7F3-C40A-4DC1-B8B4-102D183C348F";
width = 810;
}
);
leftKerningGroup = O;
leftMetricsKey = O;
rightKerningGroup = O;
rightMetricsKey = O;
unicode = 00D4;
},
{
color = 0;
glyphname = Odieresis;
lastChange = "2015-04-22 19:02:19 +0000";
layers = (
{
components = (
{
name = O;
},
{
name = dieresis;
transform = "{1, 0, 0, 1, 257, 182}";
}
);
layerId = UUID0;
width = 818;
},
{
background = {
paths = (
{
closed = 1;
nodes = (
"621 -15 OFFCURVE",
"788 147 OFFCURVE",
"788 350 CURVE SMOOTH",
"788 352 LINE SMOOTH",
"788 555 OFFCURVE",
"623 715 OFFCURVE",
"407 715 CURVE SMOOTH",
"191 715 OFFCURVE",
"24 553 OFFCURVE",
"24 350 CURVE SMOOTH",
"24 348 LINE SMOOTH",
"24 145 OFFCURVE",
"189 -15 OFFCURVE",
"405 -15 CURVE SMOOTH"
);
},
{
closed = 1;
nodes = (
"317 192 OFFCURVE",
"260 267 OFFCURVE",
"260 350 CURVE SMOOTH",
"260 352 LINE SMOOTH",
"260 434 OFFCURVE",
"316 508 OFFCURVE",
"405 508 CURVE SMOOTH",
"495 508 OFFCURVE",
"552 433 OFFCURVE",
"552 350 CURVE SMOOTH",
"552 348 LINE SMOOTH",
"552 266 OFFCURVE",
"496 192 OFFCURVE",
"407 192 CURVE SMOOTH"
);
},
{
closed = 1;
nodes = (
"426 740 LINE",
"610 740 LINE",
"610 890 LINE",
"426 890 LINE"
);
},
{
closed = 1;
nodes = (
"202 740 LINE",
"386 740 LINE",
"386 890 LINE",
"202 890 LINE"
);
}
);
};
components = (
{
name = O;
},
{
name = dieresis;
transform = "{1, 0, 0, 1, 234, 154}";
}
);
layerId = "5DA6E103-6A94-47F2-987D-4952DB8EA68E";
width = 800;
},
{
components = (
{
name = O;
},
{
name = dieresis;
transform = "{1, 0, 0, 1, 246, 169}";
}
);
layerId = "1C84A7F3-C40A-4DC1-B8B4-102D183C348F";
width = 810;
}
);
leftKerningGroup = O;
leftMetricsKey = O;
rightKerningGroup = O;
rightMetricsKey = O;
unicode = 00D6;
},
{
color = 0;
glyphname = Ograve;
lastChange = "2015-04-22 19:02:19 +0000";
layers = (
{
components = (
{
name = O;
},
{
name = grave;
transform = "{1, 0, 0, 1, 208, 182}";
}
);
layerId = UUID0;
width = 818;
},
{
background = {
paths = (
{
closed = 1;
nodes = (
"621 -15 OFFCURVE",
"788 147 OFFCURVE",
"788 350 CURVE SMOOTH",
"788 352 LINE SMOOTH",
"788 555 OFFCURVE",
"623 715 OFFCURVE",
"407 715 CURVE SMOOTH",
"191 715 OFFCURVE",
"24 553 OFFCURVE",
"24 350 CURVE SMOOTH",
"24 348 LINE SMOOTH",
"24 145 OFFCURVE",
"189 -15 OFFCURVE",
"405 -15 CURVE SMOOTH"
);
},
{
closed = 1;
nodes = (
"317 192 OFFCURVE",
"260 267 OFFCURVE",
"260 350 CURVE SMOOTH",
"260 352 LINE SMOOTH",
"260 434 OFFCURVE",
"316 508 OFFCURVE",
"405 508 CURVE SMOOTH",
"495 508 OFFCURVE",
"552 433 OFFCURVE",
"552 350 CURVE SMOOTH",
"552 348 LINE SMOOTH",
"552 266 OFFCURVE",
"496 192 OFFCURVE",
"407 192 CURVE SMOOTH"
);
},
{
closed = 1;
nodes = (
"338 740 LINE",
"490 740 LINE",
"394 932 LINE",
"173 875 LINE"
);
}
);
};
components = (
{
name = O;
},
{
name = grave;
transform = "{1, 0, 0, 1, 197, 154}";
}
);
layerId = "5DA6E103-6A94-47F2-987D-4952DB8EA68E";
width = 800;
},
{
components = (
{
name = O;
},
{
name = grave;
transform = "{1, 0, 0, 1, 202, 169}";
}
);
layerId = "1C84A7F3-C40A-4DC1-B8B4-102D183C348F";
width = 810;
}
);
leftKerningGroup = O;
leftMetricsKey = O;
rightKerningGroup = O;
rightMetricsKey = O;
unicode = 00D2;
},
{
glyphname = Oslash;
lastChange = "2015-04-22 19:02:19 +0000";
layers = (
{
anchors = (
{
name = top;
position = "{462, 699}";
}
);
components = (
{
name = O;
transform = "{1, 0, 0, 1, -33, 0}";
}
);
layerId = UUID0;
paths = (
{
closed = 1;
nodes = (
"605 816 LINE",
"182 -140 LINE",
"203 -140 LINE",
"626 816 LINE"
);
}
);
width = 818;
},
{
anchors = (
{
name = top;
position = "{435, 701}";
}
);
background = {
paths = (
{
closed = 1;
nodes = (
"621 -15 OFFCURVE",
"788 147 OFFCURVE",
"788 350 CURVE SMOOTH",
"788 352 LINE SMOOTH",
"788 445 OFFCURVE",
"753 529 OFFCURVE",
"695 592 CURVE",
"796 705 LINE",
"649 705 LINE",
"610 661 LINE",
"552 695 OFFCURVE",
"482 715 OFFCURVE",
"407 715 CURVE SMOOTH",
"191 715 OFFCURVE",
"24 553 OFFCURVE",
"24 350 CURVE SMOOTH",
"24 348 LINE SMOOTH",
"24 255 OFFCURVE",
"59 171 OFFCURVE",
"117 107 CURVE",
"16 -5 LINE",
"163 -5 LINE",
"202 39 LINE",
"260 5 OFFCURVE",
"330 -15 OFFCURVE",
"405 -15 CURVE SMOOTH"
);
},
{
closed = 1;
nodes = (
"270 278 LINE",
"261 301 OFFCURVE",
"256 325 OFFCURVE",
"256 350 CURVE SMOOTH",
"256 352 LINE SMOOTH",
"256 437 OFFCURVE",
"313 513 OFFCURVE",
"405 513 CURVE SMOOTH",
"429 513 OFFCURVE",
"450 508 OFFCURVE",
"468 499 CURVE"
);
},
{
closed = 1;
nodes = (
"383 187 OFFCURVE",
"362 192 OFFCURVE",
"343 201 CURVE",
"542 421 LINE",
"551 399 OFFCURVE",
"556 375 OFFCURVE",
"556 350 CURVE SMOOTH",
"556 348 LINE SMOOTH",
"556 263 OFFCURVE",
"499 187 OFFCURVE",
"407 187 CURVE SMOOTH"
);
}
);
};
components = (
{
name = O;
transform = "{1, 0, 0, 1, -33, 0}";
}
);
layerId = "5DA6E103-6A94-47F2-987D-4952DB8EA68E";
paths = (
{
closed = 1;
nodes = (
"563 805 LINE",
"122 -105 LINE",
"251 -105 LINE",
"692 805 LINE"
);
}
);
width = 800;
},
{
anchors = (
{
name = top;
position = "{449, 700}";
}
);
components = (
{
name = O;
transform = "{1, 0, 0, 1, -33, 0}";
}
);
layerId = "1C84A7F3-C40A-4DC1-B8B4-102D183C348F";
paths = (
{
closed = 1;
nodes = (
"583 811 LINE",
"152 -123 LINE",
"223 -123 LINE",
"655 811 LINE"
);
}
);
width = 810;
}
);
leftKerningGroup = O;
leftMetricsKey = O;
rightKerningGroup = O;
rightMetricsKey = O;
unicode = 00D8;
},
{
color = 0;
glyphname = Otilde;
lastChange = "2015-04-22 19:02:19 +0000";
layers = (
{
components = (
{
name = O;
},
{
name = tilde;
transform = "{1, 0, 0, 1, 256, 182}";
}
);
layerId = UUID0;
width = 818;
},
{
background = {
paths = (
{
closed = 1;
nodes = (
"621 -15 OFFCURVE",
"788 147 OFFCURVE",
"788 350 CURVE SMOOTH",
"788 352 LINE SMOOTH",
"788 555 OFFCURVE",
"623 715 OFFCURVE",
"407 715 CURVE SMOOTH",
"191 715 OFFCURVE",
"24 553 OFFCURVE",
"24 350 CURVE SMOOTH",
"24 348 LINE SMOOTH",
"24 145 OFFCURVE",
"189 -15 OFFCURVE",
"405 -15 CURVE SMOOTH"
);
},
{
closed = 1;
nodes = (
"317 192 OFFCURVE",
"260 267 OFFCURVE",
"260 350 CURVE SMOOTH",
"260 352 LINE SMOOTH",
"260 434 OFFCURVE",
"316 508 OFFCURVE",
"405 508 CURVE SMOOTH",
"495 508 OFFCURVE",
"552 433 OFFCURVE",
"552 350 CURVE SMOOTH",
"552 348 LINE SMOOTH",
"552 266 OFFCURVE",
"496 192 OFFCURVE",
"407 192 CURVE SMOOTH"
);
},
{
closed = 1;
nodes = (
"291 735 LINE",
"303 766 OFFCURVE",
"311 779 OFFCURVE",
"336 779 CURVE SMOOTH",
"365 779 OFFCURVE",
"440 740 OFFCURVE",
"498 740 CURVE SMOOTH",
"565 740 OFFCURVE",
"602 785 OFFCURVE",
"622 899 CURVE",
"521 924 LINE",
"509 893 OFFCURVE",
"501 880 OFFCURVE",
"476 880 CURVE SMOOTH",
"447 880 OFFCURVE",
"372 919 OFFCURVE",
"314 919 CURVE SMOOTH",
"247 919 OFFCURVE",
"210 874 OFFCURVE",
"190 760 CURVE"
);
}
);
};
components = (
{
name = O;
},
{
name = tilde;
transform = "{1, 0, 0, 1, 234, 154}";
}
);
layerId = "5DA6E103-6A94-47F2-987D-4952DB8EA68E";
width = 800;
},
{
components = (
{
name = O;
},
{
name = tilde;
transform = "{1, 0, 0, 1, 246, 169}";
}
);
layerId = "1C84A7F3-C40A-4DC1-B8B4-102D183C348F";
width = 810;
}
);
leftKerningGroup = O;
leftMetricsKey = O;
rightKerningGroup = O;
rightMetricsKey = O;
unicode = 00D5;
},
{
color = 0;
glyphname = OE;
lastChange = "2015-04-22 19:02:19 +0000";
layers = (
{
anchors = (
{
name = bottom;
position = "{734, 0}";
},
{
name = ogonek;
position = "{993, 10}";
},
{
name = top;
position = "{598, 699}";
}
);
background = {
paths = (
{
closed = 1;
nodes = (
"1000 699 LINE",
"409 699 LINE SMOOTH",
"208 699 OFFCURVE",
"53 550 OFFCURVE",
"53 350 CURVE SMOOTH",
"53 150 OFFCURVE",
"208 0 OFFCURVE",
"409 0 CURVE SMOOTH",
"1012 0 LINE",
"1012 111 LINE",
"627 111 LINE",
"627 298 LINE",
"962 298 LINE",
"962 403 LINE",
"627 403 LINE",
"627 588 LINE",
"1000 588 LINE"
);
},
{
closed = 1;
nodes = (
"181 485 OFFCURVE",
"285 596 OFFCURVE",
"420 596 CURVE SMOOTH",
"509 596 LINE",
"509 103 LINE",
"420 103 LINE SMOOTH",
"285 103 OFFCURVE",
"181 215 OFFCURVE",
"181 350 CURVE SMOOTH"
);
}
);
};
layerId = UUID0;
paths = (
{
closed = 1;
nodes = (
"462 699 LINE",
"265 699 OFFCURVE",
"84 542 OFFCURVE",
"60 351 CURVE SMOOTH",
"36 158 OFFCURVE",
"179 0 OFFCURVE",
"376 0 CURVE",
"546 0 LINE",
"547 17 LINE",
"378 19 LINE",
"191 19 OFFCURVE",
"57 168 OFFCURVE",
"79 349 CURVE SMOOTH",
"101 532 OFFCURVE",
"272 680 OFFCURVE",
"459 680 CURVE",
"629 680 LINE",
"634 699 LINE"
);
},
{
closed = 1;
nodes = (
"626 699 LINE",
"540 0 LINE",
"991 0 LINE",
"993 20 LINE",
"562 20 LINE",
"603 350 LINE",
"974 350 LINE",
"976 370 LINE",
"605 370 LINE",
"643 679 LINE",
"1060 679 LINE",
"1063 699 LINE"
);
}
);
width = 1089;
},
{
anchors = (
{
name = bottom;
position = "{755, 0}";
},
{
name = ogonek;
position = "{1049, 10}";
},
{
name = top;
position = "{610, 701}";
}
);
background = {
paths = (
{
closed = 1;
nodes = (
"1057 0 LINE",
"1057 192 LINE",
"705 192 LINE",
"705 268 LINE",
"1027 268 LINE",
"1027 437 LINE",
"705 437 LINE",
"705 508 LINE",
"1052 508 LINE",
"1052 700 LINE",
"449 700 LINE SMOOTH",
"166 700 OFFCURVE",
"24 554 OFFCURVE",
"24 346 CURVE SMOOTH",
"24 344 LINE SMOOTH",
"24 137 OFFCURVE",
"163 0 OFFCURVE",
"441 0 CURVE SMOOTH"
);
},
{
closed = 1;
nodes = (
"431 198 LINE SMOOTH",
"329 198 OFFCURVE",
"260 250 OFFCURVE",
"260 349 CURVE SMOOTH",
"260 351 LINE SMOOTH",
"260 453 OFFCURVE",
"329 502 OFFCURVE",
"431 502 CURVE SMOOTH",
"475 502 LINE",
"475 198 LINE"
);
}
);
};
layerId = "5DA6E103-6A94-47F2-987D-4952DB8EA68E";
paths = (
{
closed = 1;
nodes = (
"448 701 LINE",
"225 701 OFFCURVE",
"50 556 OFFCURVE",
"26 360 CURVE SMOOTH",
"1 151 OFFCURVE",
"149 0 OFFCURVE",
"370 0 CURVE",
"523 0 LINE",
"549 185 LINE",
"384 183 LINE",
"299 183 OFFCURVE",
"250 248 OFFCURVE",
"261 337 CURVE SMOOTH",
"274 439 OFFCURVE",
"348 514 OFFCURVE",
"433 514 CURVE",
"567 514 LINE",
"590 701 LINE"
);
},
{
closed = 1;
nodes = (
"540 701 LINE",
"454 0 LINE",
"1056 0 LINE",
"1078 176 LINE",
"708 176 LINE",
"718 263 LINE",
"1046 263 LINE",
"1068 439 LINE",
"740 439 LINE",
"750 525 LINE",
"1111 525 LINE",
"1133 701 LINE"
);
}
);
width = 1127;
},
{
anchors = (
{
name = bottom;
position = "{739, 0}";
},
{
name = ogonek;
position = "{1009, 10}";
},
{
name = top;
position = "{604, 700}";
}
);
layerId = "1C84A7F3-C40A-4DC1-B8B4-102D183C348F";
paths = (
{
closed = 1;
nodes = (
"455 700 LINE",
"246 700 OFFCURVE",
"68 549 OFFCURVE",
"45 356 CURVE SMOOTH",
"20 155 OFFCURVE",
"165 0 OFFCURVE",
"373 0 CURVE",
"535 0 LINE",
"548 100 LINE",
"382 100 LINE",
"241 100 OFFCURVE",
"146 204 OFFCURVE",
"163 343 CURVE SMOOTH",
"181 488 OFFCURVE",
"307 599 OFFCURVE",
"448 599 CURVE",
"601 599 LINE",
"614 700 LINE"
);
},
{
closed = 1;
nodes = (
"586 700 LINE",
"500 0 LINE",
"1012 0 LINE",
"1024 101 LINE",
"630 101 LINE",
"655 302 LINE",
"997 302 LINE",
"1009 402 LINE",
"667 402 LINE",
"692 599 LINE",
"1074 599 LINE",
"1086 700 LINE"
);
}
);
width = 1097;
}
);
leftKerningGroup = O;
leftMetricsKey = O;
rightKerningGroup = E;
rightMetricsKey = E;
unicode = 0152;
},
{
glyphname = P;
lastChange = "2015-04-22 19:02:19 +0000";
layers = (
{
background = {
paths = (
{
closed = 1;
nodes = (
"128 699 LINE",
"128 0 LINE",
"148 0 LINE",
"148 240 LINE",
"335 240 LINE SMOOTH",
"534 240 OFFCURVE",
"632 316 OFFCURVE",
"632 472 CURVE SMOOTH",
"632 624 OFFCURVE",
"534 699 OFFCURVE",
"335 699 CURVE SMOOTH"
);
},
{
closed = 1;
nodes = (
"521 679 OFFCURVE",
"612 611 OFFCURVE",
"612 472 CURVE SMOOTH",
"612 330 OFFCURVE",
"521 260 OFFCURVE",
"335 260 CURVE SMOOTH",
"148 260 LINE",
"148 679 LINE",
"335 679 LINE SMOOTH"
);
}
);
};
layerId = UUID0;
paths = (
{
closed = 1;
nodes = (
"181 699 LINE",
"95 0 LINE",
"115 0 LINE",
"144 240 LINE",
"361 240 LINE SMOOTH",
"531 240 OFFCURVE",
"639 325 OFFCURVE",
"657 471 CURVE SMOOTH",
"675 616 OFFCURVE",
"588 699 OFFCURVE",
"418 699 CURVE SMOOTH"
);
},
{
closed = 1;
nodes = (
"572 679 OFFCURVE",
"653 604 OFFCURVE",
"637 473 CURVE SMOOTH",
"620 337 OFFCURVE",
"521 260 OFFCURVE",
"364 260 CURVE SMOOTH",
"147 260 LINE",
"198 679 LINE",
"415 679 LINE SMOOTH"
);
}
);
width = 662;
},
{
background = {
paths = (
{
closed = 1;
nodes = (
"40 0 LINE",
"274 0 LINE",
"274 190 LINE",
"350 190 LINE SMOOTH",
"539 190 OFFCURVE",
"668 280 OFFCURVE",
"668 449 CURVE SMOOTH",
"668 451 LINE SMOOTH",
"668 617 OFFCURVE",
"541 700 OFFCURVE",
"355 700 CURVE SMOOTH",
"40 700 LINE"
);
},
{
closed = 1;
nodes = (
"274 357 LINE",
"274 513 LINE",
"338 513 LINE SMOOTH",
"400 513 OFFCURVE",
"437 487 OFFCURVE",
"437 436 CURVE SMOOTH",
"437 434 LINE SMOOTH",
"437 384 OFFCURVE",
"397 357 OFFCURVE",
"337 357 CURVE SMOOTH"
);
}
);
};
layerId = "5DA6E103-6A94-47F2-987D-4952DB8EA68E";
paths = (
{
closed = 1;
nodes = (
"103 701 LINE",
"17 0 LINE",
"249 0 LINE",
"271 182 LINE",
"372 182 LINE SMOOTH",
"554 182 OFFCURVE",
"667 275 OFFCURVE",
"687 439 CURVE SMOOTH",
"707 605 OFFCURVE",
"610 701 OFFCURVE",
"428 701 CURVE SMOOTH"
);
},
{
closed = 1;
nodes = (
"452 525 OFFCURVE",
"474 500 OFFCURVE",
"469 454 CURVE SMOOTH",
"461 394 OFFCURVE",
"424 358 OFFCURVE",
"374 358 CURVE SMOOTH",
"293 358 LINE",
"313 525 LINE",
"402 525 LINE SMOOTH"
);
}
);
width = 686;
},
{
layerId = "1C84A7F3-C40A-4DC1-B8B4-102D183C348F";
paths = (
{
closed = 1;
nodes = (
"145 700 LINE",
"59 0 LINE",
"177 0 LINE",
"203 213 LINE",
"367 213 LINE SMOOTH",
"542 213 OFFCURVE",
"652 301 OFFCURVE",
"671 456 CURVE SMOOTH",
"690 610 OFFCURVE",
"598 700 OFFCURVE",
"422 700 CURVE SMOOTH"
);
},
{
closed = 1;
nodes = (
"517 599 OFFCURVE",
"570 557 OFFCURVE",
"559 464 CURVE SMOOTH",
"547 364 OFFCURVE",
"478 314 OFFCURVE",
"370 314 CURVE SMOOTH",
"215 314 LINE",
"250 599 LINE",
"409 599 LINE SMOOTH"
);
}
);
width = 673;
}
);
leftKerningGroup = H;
rightKerningGroup = P;
unicode = 0050;
},
{
color = 0;
glyphname = Thorn;
lastChange = "2015-04-22 19:02:19 +0000";
layers = (
{
background = {
paths = (
{
closed = 1;
nodes = (
"642 525 OFFCURVE",
"544 611 OFFCURVE",
"327 611 CURVE SMOOTH",
"215 611 LINE",
"215 699 LINE",
"97 699 LINE",
"97 0 LINE",
"215 0 LINE",
"215 117 LINE",
"329 117 LINE SMOOTH",
"529 117 OFFCURVE",
"642 187 OFFCURVE",
"642 369 CURVE SMOOTH"
);
},
{
closed = 1;
nodes = (
"521 287 OFFCURVE",
"483 224 OFFCURVE",
"342 224 CURVE SMOOTH",
"215 224 LINE",
"215 504 LINE",
"325 504 LINE SMOOTH",
"448 504 OFFCURVE",
"521 473 OFFCURVE",
"521 369 CURVE SMOOTH"
);
}
);
};
layerId = UUID0;
paths = (
{
closed = 1;
nodes = (
"178 587 LINE",
"178 567 LINE",
"372 567 LINE SMOOTH",
"558 567 OFFCURVE",
"641 501 OFFCURVE",
"624 368 CURVE SMOOTH",
"607 229 OFFCURVE",
"508 162 OFFCURVE",
"322 162 CURVE SMOOTH",
"130 162 LINE",
"127 142 LINE",
"319 142 LINE SMOOTH",
"518 142 OFFCURVE",
"626 216 OFFCURVE",
"644 366 CURVE SMOOTH",
"662 515 OFFCURVE",
"573 587 OFFCURVE",
"374 587 CURVE SMOOTH"
);
},
{
closed = 1;
nodes = (
"181 699 LINE",
"95 0 LINE",
"115 0 LINE",
"201 699 LINE"
);
}
);
width = 662;
},
{
background = {
paths = (
{
closed = 1;
nodes = (
"40 0 LINE",
"274 0 LINE",
"274 102 LINE",
"350 102 LINE SMOOTH",
"539 102 OFFCURVE",
"668 187 OFFCURVE",
"668 356 CURVE SMOOTH",
"668 358 LINE SMOOTH",
"668 524 OFFCURVE",
"541 602 OFFCURVE",
"355 602 CURVE SMOOTH",
"274 602 LINE",
"274 700 LINE",
"40 700 LINE"
);
},
{
closed = 1;
nodes = (
"274 274 LINE",
"274 430 LINE",
"338 430 LINE SMOOTH",
"400 430 OFFCURVE",
"437 404 OFFCURVE",
"437 353 CURVE SMOOTH",
"437 351 LINE SMOOTH",
"437 301 OFFCURVE",
"397 274 OFFCURVE",
"337 274 CURVE SMOOTH"
);
}
);
};
layerId = "5DA6E103-6A94-47F2-987D-4952DB8EA68E";
paths = (
{
closed = 1;
nodes = (
"282 615 LINE",
"292 439 LINE",
"397 439 LINE SMOOTH",
"438 439 OFFCURVE",
"458 413 OFFCURVE",
"453 371 CURVE SMOOTH",
"446 315 OFFCURVE",
"410 278 OFFCURVE",
"369 278 CURVE SMOOTH",
"271 278 LINE",
"250 102 LINE",
"366 102 LINE SMOOTH",
"546 102 OFFCURVE",
"670 201 OFFCURVE",
"689 356 CURVE SMOOTH",
"708 513 OFFCURVE",
"601 615 OFFCURVE",
"421 615 CURVE SMOOTH"
);
},
{
closed = 1;
nodes = (
"103 701 LINE",
"17 0 LINE",
"249 0 LINE",
"335 701 LINE"
);
}
);
width = 698;
},
{
layerId = "1C84A7F3-C40A-4DC1-B8B4-102D183C348F";
paths = (
{
closed = 1;
nodes = (
"226 600 LINE",
"230 508 LINE",
"383 508 LINE SMOOTH",
"502 508 OFFCURVE",
"557 461 OFFCURVE",
"545 369 CURVE SMOOTH",
"533 269 OFFCURVE",
"463 216 OFFCURVE",
"344 216 CURVE SMOOTH",
"195 216 LINE",
"184 124 LINE",
"341 124 LINE SMOOTH",
"531 124 OFFCURVE",
"646 209 OFFCURVE",
"664 361 CURVE SMOOTH",
"683 514 OFFCURVE",
"586 600 OFFCURVE",
"396 600 CURVE SMOOTH"
);
},
{
closed = 1;
nodes = (
"145 700 LINE",
"59 0 LINE",
"177 0 LINE",
"263 700 LINE"
);
}
);
width = 679;
}
);
leftKerningGroup = H;
leftMetricsKey = H;
rightKerningGroup = Thorn;
rightMetricsKey = P;
unicode = 00DE;
},
{
glyphname = Q;
lastChange = "2015-04-22 19:02:19 +0000";
layers = (
{
background = {
paths = (
{
closed = 1;
nodes = (
"425 -7 OFFCURVE",
"430 -6 OFFCURVE",
"435 -6 CURVE",
"469 -94 OFFCURVE",
"561 -141 OFFCURVE",
"641 -141 CURVE SMOOTH",
"709 -141 OFFCURVE",
"782 -110 OFFCURVE",
"840 -49 CURVE",
"773 44 LINE",
"747 1 OFFCURVE",
"693 -28 OFFCURVE",
"643 -28 CURVE SMOOTH",
"610 -28 OFFCURVE",
"578 -11 OFFCURVE",
"557 17 CURVE",
"694 69 OFFCURVE",
"788 196 OFFCURVE",
"788 355 CURVE SMOOTH",
"788 561 OFFCURVE",
"627 716 OFFCURVE",
"420 716 CURVE SMOOTH",
"213 716 OFFCURVE",
"52 561 OFFCURVE",
"52 355 CURVE SMOOTH",
"52 148 OFFCURVE",
"213 -7 OFFCURVE",
"420 -7 CURVE SMOOTH"
);
},
{
closed = 1;
nodes = (
"560 608 OFFCURVE",
"667 494 OFFCURVE",
"667 354 CURVE SMOOTH",
"667 215 OFFCURVE",
"560 101 OFFCURVE",
"420 101 CURVE SMOOTH",
"280 101 OFFCURVE",
"173 215 OFFCURVE",
"173 354 CURVE SMOOTH",
"173 494 OFFCURVE",
"280 608 OFFCURVE",
"420 608 CURVE SMOOTH"
);
}
);
};
components = (
{
name = O;
transform = "{1, 0, 0, 1, -33, 0}";
}
);
layerId = UUID0;
paths = (
{
closed = 1;
nodes = (
"396 3 LINE",
"465 -82 OFFCURVE",
"531 -124 OFFCURVE",
"601 -124 CURVE SMOOTH",
"653 -124 OFFCURVE",
"709 -99 OFFCURVE",
"769 -48 CURVE",
"756 -34 LINE",
"701 -81 OFFCURVE",
"650 -105 OFFCURVE",
"601 -105 CURVE SMOOTH",
"539 -105 OFFCURVE",
"479 -65 OFFCURVE",
"412 17 CURVE"
);
}
);
width = 839;
},
{
background = {
paths = (
{
closed = 1;
nodes = (
"700 -21 LINE",
"798 88 LINE",
"726 149 LINE",
"765 206 OFFCURVE",
"788 275 OFFCURVE",
"788 350 CURVE SMOOTH",
"788 352 LINE SMOOTH",
"788 555 OFFCURVE",
"623 715 OFFCURVE",
"407 715 CURVE SMOOTH",
"191 715 OFFCURVE",
"24 553 OFFCURVE",
"24 350 CURVE SMOOTH",
"24 348 LINE SMOOTH",
"24 145 OFFCURVE",
"189 -15 OFFCURVE",
"405 -15 CURVE SMOOTH",
"487 -15 OFFCURVE",
"562 8 OFFCURVE",
"623 48 CURVE"
);
},
{
closed = 1;
nodes = (
"316 185 OFFCURVE",
"260 263 OFFCURVE",
"260 346 CURVE SMOOTH",
"260 348 LINE SMOOTH",
"260 430 OFFCURVE",
"316 508 OFFCURVE",
"405 508 CURVE SMOOTH",
"496 508 OFFCURVE",
"554 430 OFFCURVE",
"554 347 CURVE SMOOTH",
"554 345 LINE SMOOTH",
"554 331 OFFCURVE",
"552 317 OFFCURVE",
"549 304 CURVE",
"474 371 LINE",
"376 261 LINE",
"456 193 LINE",
"441 188 OFFCURVE",
"424 185 OFFCURVE",
"407 185 CURVE SMOOTH"
);
}
);
};
components = (
{
name = O;
transform = "{1, 0, 0, 1, -33, 0}";
}
);
layerId = "5DA6E103-6A94-47F2-987D-4952DB8EA68E";
paths = (
{
closed = 1;
nodes = (
"338 3 LINE",
"360 -103 OFFCURVE",
"442 -177 OFFCURVE",
"554 -177 CURVE SMOOTH",
"623 -177 OFFCURVE",
"713 -150 OFFCURVE",
"772 -103 CURVE",
"705 41 LINE",
"663 12 OFFCURVE",
"616 -10 OFFCURVE",
"584 -10 CURVE SMOOTH",
"554 -10 OFFCURVE",
"532 13 OFFCURVE",
"522 50 CURVE"
);
}
);
width = 797;
},
{
components = (
{
name = O;
transform = "{1, 0, 0, 1, -33, 0}";
}
);
layerId = "1C84A7F3-C40A-4DC1-B8B4-102D183C348F";
paths = (
{
closed = 1;
nodes = (
"369 2 LINE",
"413 -94 OFFCURVE",
"487 -152 OFFCURVE",
"579 -152 CURVE SMOOTH",
"642 -152 OFFCURVE",
"717 -126 OFFCURVE",
"777 -77 CURVE",
"736 6 LINE",
"685 -31 OFFCURVE",
"636 -55 OFFCURVE",
"597 -55 CURVE SMOOTH",
"551 -55 OFFCURVE",
"510 -23 OFFCURVE",
"473 35 CURVE"
);
}
);
width = 825;
}
);
leftKerningGroup = O;
rightKerningGroup = O;
unicode = 0051;
},
{
glyphname = Q.ss01;
lastChange = "2015-04-22 19:02:19 +0000";
layers = (
{
background = {
paths = (
{
closed = 1;
nodes = (
"399 -135 LINE",
"419 -135 LINE",
"419 224 LINE",
"399 224 LINE"
);
},
{
closed = 1;
nodes = (
"212 699 OFFCURVE",
"50 542 OFFCURVE",
"50 350 CURVE SMOOTH",
"50 158 OFFCURVE",
"212 0 OFFCURVE",
"409 0 CURVE SMOOTH",
"606 0 OFFCURVE",
"768 158 OFFCURVE",
"768 350 CURVE SMOOTH",
"768 542 OFFCURVE",
"606 699 OFFCURVE",
"409 699 CURVE SMOOTH"
);
},
{
closed = 1;
nodes = (
"595 679 OFFCURVE",
"748 531 OFFCURVE",
"748 350 CURVE SMOOTH",
"748 169 OFFCURVE",
"595 20 OFFCURVE",
"409 20 CURVE SMOOTH",
"223 20 OFFCURVE",
"70 169 OFFCURVE",
"70 350 CURVE SMOOTH",
"70 531 OFFCURVE",
"223 679 OFFCURVE",
"409 679 CURVE SMOOTH"
);
}
);
};
components = (
{
name = O;
transform = "{1, 0, 0, 1, -33, 0}";
}
);
layerId = UUID0;
paths = (
{
closed = 1;
nodes = (
"349 -135 LINE",
"369 -135 LINE",
"414 224 LINE",
"394 224 LINE"
);
}
);
width = 818;
},
{
background = {
paths = (
{
closed = 1;
nodes = (
"316 -116 LINE",
"456 -116 LINE",
"456 314 LINE",
"316 314 LINE"
);
},
{
closed = 1;
nodes = (
"170 708 OFFCURVE",
"10 555 OFFCURVE",
"10 351 CURVE SMOOTH",
"10 145 OFFCURVE",
"170 -10 OFFCURVE",
"384 -10 CURVE SMOOTH",
"599 -10 OFFCURVE",
"760 145 OFFCURVE",
"760 351 CURVE SMOOTH",
"760 555 OFFCURVE",
"599 708 OFFCURVE",
"384 708 CURVE SMOOTH"
);
},
{
closed = 1;
nodes = (
"463 515 OFFCURVE",
"522 445 OFFCURVE",
"522 351 CURVE SMOOTH",
"522 249 OFFCURVE",
"463 173 OFFCURVE",
"384 173 CURVE SMOOTH",
"306 173 OFFCURVE",
"248 249 OFFCURVE",
"248 351 CURVE SMOOTH",
"248 445 OFFCURVE",
"306 515 OFFCURVE",
"384 515 CURVE SMOOTH"
);
}
);
};
components = (
{
name = O;
transform = "{1, 0, 0, 1, -33, 0}";
}
);
layerId = "5DA6E103-6A94-47F2-987D-4952DB8EA68E";
paths = (
{
closed = 1;
nodes = (
"279 -116 LINE",
"419 -116 LINE",
"472 314 LINE",
"332 314 LINE"
);
}
);
width = 800;
},
{
components = (
{
name = O;
transform = "{1, 0, 0, 1, -33, 0}";
}
);
layerId = "1C84A7F3-C40A-4DC1-B8B4-102D183C348F";
paths = (
{
closed = 1;
nodes = (
"300 -126 LINE",
"401 -126 LINE",
"449 266 LINE",
"348 266 LINE"
);
}
);
width = 810;
}
);
leftKerningGroup = O;
leftMetricsKey = O;
rightKerningGroup = O;
rightMetricsKey = O;
},
{
glyphname = R;
lastChange = "2015-04-22 19:02:19 +0000";
layers = (
{
anchors = (
{
name = bottom;
position = "{328, 0}";
},
{
name = top;
position = "{394, 699}";
}
);
background = {
paths = (
{
closed = 1;
nodes = (
"655 628 OFFCURVE",
"574 699 OFFCURVE",
"357 699 CURVE SMOOTH",
"97 699 LINE",
"97 0 LINE",
"215 0 LINE",
"215 235 LINE",
"370 235 LINE",
"537 0 LINE",
"687 0 LINE",
"504 254 LINE",
"601 283 OFFCURVE",
"655 348 OFFCURVE",
"655 472 CURVE SMOOTH"
);
},
{
closed = 1;
nodes = (
"534 388 OFFCURVE",
"503 342 OFFCURVE",
"362 342 CURVE SMOOTH",
"215 342 LINE",
"215 592 LINE",
"365 592 LINE SMOOTH",
"490 592 OFFCURVE",
"534 566 OFFCURVE",
"534 472 CURVE SMOOTH"
);
}
);
};
layerId = UUID0;
paths = (
{
closed = 1;
nodes = (
"181 699 LINE",
"95 0 LINE",
"115 0 LINE",
"144 240 LINE",
"361 240 LINE SMOOTH",
"531 240 OFFCURVE",
"639 325 OFFCURVE",
"657 471 CURVE SMOOTH",
"675 616 OFFCURVE",
"588 699 OFFCURVE",
"418 699 CURVE SMOOTH"
);
},
{
closed = 1;
nodes = (
"420 254 LINE",
"574 0 LINE",
"599 0 LINE",
"445 254 LINE"
);
},
{
closed = 1;
nodes = (
"572 679 OFFCURVE",
"653 604 OFFCURVE",
"637 473 CURVE SMOOTH",
"620 337 OFFCURVE",
"521 260 OFFCURVE",
"364 260 CURVE SMOOTH",
"147 260 LINE",
"198 679 LINE",
"415 679 LINE SMOOTH"
);
}
);
width = 722;
},
{
anchors = (
{
name = bottom;
position = "{326, 0}";
},
{
name = top;
position = "{425, 701}";
}
);
background = {
paths = (
{
closed = 1;
nodes = (
"40 0 LINE",
"274 0 LINE",
"274 200 LINE",
"322 200 LINE",
"324 200 LINE",
"456 0 LINE",
"723 0 LINE",
"560 238 LINE",
"645 279 OFFCURVE",
"698 350 OFFCURVE",
"698 452 CURVE SMOOTH",
"698 454 LINE SMOOTH",
"698 526 OFFCURVE",
"676 578 OFFCURVE",
"634 620 CURVE SMOOTH",
"585 669 OFFCURVE",
"506 700 OFFCURVE",
"382 700 CURVE SMOOTH",
"40 700 LINE"
);
},
{
closed = 1;
nodes = (
"274 367 LINE",
"274 504 LINE",
"376 504 LINE SMOOTH",
"430 504 OFFCURVE",
"465 482 OFFCURVE",
"465 437 CURVE SMOOTH",
"465 435 LINE SMOOTH",
"465 392 OFFCURVE",
"431 367 OFFCURVE",
"375 367 CURVE SMOOTH"
);
}
);
};
layerId = "5DA6E103-6A94-47F2-987D-4952DB8EA68E";
paths = (
{
closed = 1;
nodes = (
"103 701 LINE",
"17 0 LINE",
"249 0 LINE",
"271 182 LINE",
"382 182 LINE SMOOTH",
"572 182 OFFCURVE",
"689 275 OFFCURVE",
"709 439 CURVE SMOOTH",
"729 605 OFFCURVE",
"628 701 OFFCURVE",
"438 701 CURVE SMOOTH"
);
},
{
closed = 1;
nodes = (
"331 265 LINE",
"421 0 LINE",
"680 0 LINE",
"552 265 LINE"
);
},
{
closed = 1;
nodes = (
"474 525 OFFCURVE",
"496 500 OFFCURVE",
"491 454 CURVE SMOOTH",
"483 394 OFFCURVE",
"446 358 OFFCURVE",
"396 358 CURVE SMOOTH",
"293 358 LINE",
"313 525 LINE",
"424 525 LINE SMOOTH"
);
}
);
width = 725;
},
{
anchors = (
{
name = bottom;
position = "{327, 0}";
},
{
name = top;
position = "{408, 700}";
}
);
layerId = "1C84A7F3-C40A-4DC1-B8B4-102D183C348F";
paths = (
{
closed = 1;
nodes = (
"145 700 LINE",
"59 0 LINE",
"177 0 LINE",
"203 213 LINE",
"371 213 LINE SMOOTH",
"550 213 OFFCURVE",
"662 301 OFFCURVE",
"681 456 CURVE SMOOTH",
"700 610 OFFCURVE",
"606 700 OFFCURVE",
"427 700 CURVE SMOOTH"
);
},
{
closed = 1;
nodes = (
"379 259 LINE",
"504 0 LINE",
"636 0 LINE",
"495 259 LINE"
);
},
{
closed = 1;
nodes = (
"527 599 OFFCURVE",
"581 557 OFFCURVE",
"570 464 CURVE SMOOTH",
"558 364 OFFCURVE",
"488 314 OFFCURVE",
"380 314 CURVE SMOOTH",
"215 314 LINE",
"250 599 LINE",
"420 599 LINE SMOOTH"
);
}
);
width = 723;
}
);
leftKerningGroup = H;
rightKerningGroup = R;
unicode = 0052;
},
{
glyphname = S;
lastChange = "2015-04-22 19:02:19 +0000";
layers = (
{
anchors = (
{
name = bottom;
position = "{264, 0}";
},
{
name = top;
position = "{340, 699}";
}
);
background = {
paths = (
{
closed = 1;
nodes = (
"191 583 OFFCURVE",
"245 607 OFFCURVE",
"309 607 CURVE SMOOTH",
"376 607 OFFCURVE",
"455 581 OFFCURVE",
"497 543 CURVE",
"560 632 LINE",
"494 687 OFFCURVE",
"400 716 OFFCURVE",
"313 716 CURVE SMOOTH",
"184 716 OFFCURVE",
"68 652 OFFCURVE",
"68 511 CURVE SMOOTH",
"68 381 OFFCURVE",
"152 335 OFFCURVE",
"301 300 CURVE SMOOTH",
"430 269 OFFCURVE",
"458 243 OFFCURVE",
"458 192 CURVE SMOOTH",
"458 138 OFFCURVE",
"410 102 OFFCURVE",
"334 102 CURVE SMOOTH",
"248 102 OFFCURVE",
"181 136 OFFCURVE",
"114 194 CURVE",
"40 105 LINE",
"124 30 OFFCURVE",
"225 -8 OFFCURVE",
"331 -8 CURVE SMOOTH",
"478 -8 OFFCURVE",
"581 71 OFFCURVE",
"581 204 CURVE SMOOTH",
"581 321 OFFCURVE",
"504 375 OFFCURVE",
"356 411 CURVE SMOOTH",
"223 443 OFFCURVE",
"191 467 OFFCURVE",
"191 522 CURVE SMOOTH"
);
}
);
};
layerId = UUID0;
paths = (
{
closed = 1;
nodes = (
"220 699 OFFCURVE",
"124 638 OFFCURVE",
"113 545 CURVE",
"82 290 OFFCURVE",
"516 410 OFFCURVE",
"485 171 CURVE",
"474 79 OFFCURVE",
"381 20 OFFCURVE",
"248 20 CURVE",
"165 20 OFFCURVE",
"82 56 OFFCURVE",
"36 112 CURVE",
"20 98 LINE",
"71 39 OFFCURVE",
"159 0 OFFCURVE",
"248 0 CURVE",
"391 0 OFFCURVE",
"492 67 OFFCURVE",
"505 169 CURVE",
"539 430 OFFCURVE",
"104 310 OFFCURVE",
"133 543 CURVE",
"143 626 OFFCURVE",
"229 679 OFFCURVE",
"353 679 CURVE",
"414 679 OFFCURVE",
"481 661 OFFCURVE",
"523 632 CURVE",
"535 648 LINE",
"490 679 OFFCURVE",
"420 699 OFFCURVE",
"354 699 CURVE"
);
}
);
width = 593;
},
{
anchors = (
{
name = bottom;
position = "{312, 0}";
},
{
name = top;
position = "{412, 701}";
}
);
background = {
paths = (
{
closed = 1;
nodes = (
"172 711 OFFCURVE",
"54 623 OFFCURVE",
"54 483 CURVE SMOOTH",
"54 237 OFFCURVE",
"417 297 OFFCURVE",
"417 206 CURVE SMOOTH",
"417 183 OFFCURVE",
"394 170 OFFCURVE",
"358 170 CURVE SMOOTH",
"289 170 OFFCURVE",
"170 217 OFFCURVE",
"94 279 CURVE",
"8 105 LINE",
"101 34 OFFCURVE",
"237 -7 OFFCURVE",
"359 -7 CURVE SMOOTH",
"517 -7 OFFCURVE",
"654 62 OFFCURVE",
"654 218 CURVE SMOOTH",
"654 472 OFFCURVE",
"291 417 OFFCURVE",
"291 505 CURVE SMOOTH",
"291 524 OFFCURVE",
"307 534 OFFCURVE",
"334 534 CURVE SMOOTH",
"387 534 OFFCURVE",
"486 495 OFFCURVE",
"575 452 CURVE",
"659 628 LINE",
"580 678 OFFCURVE",
"465 711 OFFCURVE",
"354 711 CURVE SMOOTH"
);
}
);
};
layerId = "5DA6E103-6A94-47F2-987D-4952DB8EA68E";
paths = (
{
closed = 1;
nodes = (
"222 711 OFFCURVE",
"98 628 OFFCURVE",
"82 494 CURVE SMOOTH",
"51 242 OFFCURVE",
"421 302 OFFCURVE",
"411 217 CURVE SMOOTH",
"407 186 OFFCURVE",
"379 170 OFFCURVE",
"341 170 CURVE SMOOTH",
"274 170 OFFCURVE",
"156 215 OFFCURVE",
"92 275 CURVE",
"-10 108 LINE",
"76 37 OFFCURVE",
"207 -7 OFFCURVE",
"333 -7 CURVE SMOOTH",
"487 -7 OFFCURVE",
"628 57 OFFCURVE",
"646 207 CURVE SMOOTH",
"678 467 OFFCURVE",
"309 412 OFFCURVE",
"319 494 CURVE SMOOTH",
"322 521 OFFCURVE",
"345 534 OFFCURVE",
"375 534 CURVE SMOOTH",
"432 534 OFFCURVE",
"536 494 OFFCURVE",
"602 455 CURVE",
"701 625 LINE",
"627 675 OFFCURVE",
"515 711 OFFCURVE",
"400 711 CURVE SMOOTH"
);
}
);
width = 664;
},
{
anchors = (
{
name = bottom;
position = "{283, 0}";
},
{
name = top;
position = "{372, 700}";
}
);
background = {
paths = (
{
closed = 1;
nodes = (
"173 705 OFFCURVE",
"67 630 OFFCURVE",
"67 512 CURVE",
"67 263 OFFCURVE",
"445 352 OFFCURVE",
"445 191 CURVE",
"445 135 OFFCURVE",
"393 102 OFFCURVE",
"311 102 CURVE",
"236 102 OFFCURVE",
"149 138 OFFCURVE",
"77 204 CURVE",
"26 107 LINE",
"98 42 OFFCURVE",
"202 -4 OFFCURVE",
"312 -4 CURVE",
"466 -4 OFFCURVE",
"576 74 OFFCURVE",
"576 197 CURVE",
"577 448 OFFCURVE",
"199 365 OFFCURVE",
"199 522 CURVE",
"199 571 OFFCURVE",
"244 598 OFFCURVE",
"313 598 CURVE",
"366 598 OFFCURVE",
"442 581 OFFCURVE",
"518 534 CURVE",
"567 633 LINE",
"503 676 OFFCURVE",
"416 705 OFFCURVE",
"325 705 CURVE"
);
}
);
};
layerId = "1C84A7F3-C40A-4DC1-B8B4-102D183C348F";
paths = (
{
closed = 1;
nodes = (
"222 705 OFFCURVE",
"112 633 OFFCURVE",
"98 518 CURVE",
"67 266 OFFCURVE",
"456 355 OFFCURVE",
"436 197 CURVE",
"429 138 OFFCURVE",
"374 102 OFFCURVE",
"290 102 CURVE",
"217 102 OFFCURVE",
"131 136 OFFCURVE",
"67 202 CURVE",
"7 109 LINE",
"72 44 OFFCURVE",
"171 -4 OFFCURVE",
"283 -4 CURVE",
"435 -4 OFFCURVE",
"552 71 OFFCURVE",
"566 191 CURVE",
"599 445 OFFCURVE",
"210 362 OFFCURVE",
"229 516 CURVE",
"236 568 OFFCURVE",
"286 598 OFFCURVE",
"357 598 CURVE",
"408 598 OFFCURVE",
"482 582 OFFCURVE",
"553 535 CURVE",
"610 631 LINE",
"550 674 OFFCURVE",
"465 705 OFFCURVE",
"372 705 CURVE"
);
}
);
width = 622;
}
);
leftKerningGroup = S;
rightKerningGroup = S;
unicode = 0053;
},
{
glyphname = Scaron;
lastChange = "2015-04-22 19:02:19 +0000";
layers = (
{
components = (
{
name = S;
},
{
name = caron;
transform = "{1, 0, 0, 1, 135, 182}";
}
);
layerId = UUID0;
width = 593;
},
{
background = {
paths = (
{
closed = 1;
nodes = (
"529 -13 OFFCURVE",
"650 77 OFFCURVE",
"650 224 CURVE SMOOTH",
"650 226 LINE SMOOTH",
"650 367 OFFCURVE",
"530 419 OFFCURVE",
"351 452 CURVE SMOOTH",
"277 466 OFFCURVE",
"258 478 OFFCURVE",
"258 497 CURVE SMOOTH",
"258 499 LINE SMOOTH",
"258 516 OFFCURVE",
"274 528 OFFCURVE",
"309 528 CURVE SMOOTH",
"374 528 OFFCURVE",
"453 507 OFFCURVE",
"519 459 CURVE",
"633 617 LINE",
"552 681 OFFCURVE",
"452 713 OFFCURVE",
"317 713 CURVE SMOOTH",
"124 713 OFFCURVE",
"20 610 OFFCURVE",
"20 477 CURVE SMOOTH",
"20 475 LINE SMOOTH",
"20 327 OFFCURVE",
"158 282 OFFCURVE",
"315 250 CURVE SMOOTH",
"390 235 OFFCURVE",
"412 224 OFFCURVE",
"412 204 CURVE SMOOTH",
"412 202 LINE SMOOTH",
"412 183 OFFCURVE",
"394 172 OFFCURVE",
"352 172 CURVE SMOOTH",
"270 172 OFFCURVE",
"183 196 OFFCURVE",
"107 254 CURVE",
"-18 105 LINE",
"71 27 OFFCURVE",
"199 -13 OFFCURVE",
"341 -13 CURVE SMOOTH"
);
},
{
closed = 1;
nodes = (
"241 740 LINE",
"405 740 LINE",
"538 912 LINE",
"413 912 LINE",
"324 856 LINE",
"235 912 LINE",
"108 912 LINE"
);
}
);
};
components = (
{
name = S;
},
{
name = caron;
transform = "{1, 0, 0, 1, 197, 154}";
}
);
layerId = "5DA6E103-6A94-47F2-987D-4952DB8EA68E";
width = 664;
},
{
components = (
{
name = S;
},
{
name = caron;
transform = "{1, 0, 0, 1, 161, 166}";
}
);
layerId = "1C84A7F3-C40A-4DC1-B8B4-102D183C348F";
width = 622;
}
);
leftKerningGroup = S;
leftMetricsKey = S;
rightKerningGroup = S;
rightMetricsKey = S;
unicode = 0160;
},
{
glyphname = T;
lastChange = "2015-04-22 19:02:19 +0000";
layers = (
{
anchors = (
{
name = bottom;
position = "{215, 0}";
},
{
name = center;
position = "{273, 350}";
},
{
name = top;
position = "{316, 699}";
}
);
background = {
paths = (
{
closed = 1;
nodes = (
"361 591 LINE",
"573 591 LINE",
"573 699 LINE",
"31 699 LINE",
"31 591 LINE",
"243 591 LINE",
"243 0 LINE",
"361 0 LINE"
);
}
);
};
layerId = UUID0;
paths = (
{
closed = 1;
nodes = (
"66 699 LINE",
"63 679 LINE",
"303 679 LINE",
"220 0 LINE",
"240 0 LINE",
"323 679 LINE",
"563 679 LINE",
"566 699 LINE"
);
}
);
width = 526;
},
{
anchors = (
{
name = bottom;
position = "{276, 0}";
},
{
name = center;
position = "{317, 351}";
},
{
name = top;
position = "{390, 701}";
}
);
background = {
paths = (
{
closed = 1;
nodes = (
"219 0 LINE",
"453 0 LINE",
"453 502 LINE",
"659 502 LINE",
"659 700 LINE",
"13 700 LINE",
"13 502 LINE",
"219 502 LINE"
);
}
);
};
layerId = "5DA6E103-6A94-47F2-987D-4952DB8EA68E";
paths = (
{
closed = 1;
nodes = (
"58 701 LINE",
"36 518 LINE",
"235 518 LINE",
"171 0 LINE",
"403 0 LINE",
"467 518 LINE",
"667 518 LINE",
"689 701 LINE"
);
}
);
width = 641;
},
{
anchors = (
{
name = bottom;
position = "{243, 0}";
},
{
name = center;
position = "{293, 350}";
},
{
name = top;
position = "{350, 700}";
}
);
layerId = "1C84A7F3-C40A-4DC1-B8B4-102D183C348F";
paths = (
{
closed = 1;
nodes = (
"62 700 LINE",
"50 599 LINE",
"271 599 LINE",
"197 0 LINE",
"315 0 LINE",
"389 599 LINE",
"611 599 LINE",
"623 700 LINE"
);
}
);
width = 579;
}
);
leftKerningGroup = T;
rightKerningGroup = T;
unicode = 0054;
},
{
glyphname = T.ss01;
lastChange = "2015-04-22 19:02:19 +0000";
layers = (
{
anchors = (
{
name = bottom;
position = "{253, 0}";
},
{
name = center;
position = "{311, 350}";
},
{
name = top;
position = "{354, 699}";
}
);
background = {
anchors = (
{
name = bottom;
position = "{307, 0}";
},
{
name = center;
position = "{307, 350}";
},
{
name = top;
position = "{307, 699}";
}
);
paths = (
{
closed = 1;
nodes = (
"210 699 OFFCURVE",
"115 669 OFFCURVE",
"39 617 CURVE",
"50 600 LINE",
"125 650 OFFCURVE",
"215 679 OFFCURVE",
"300 679 CURVE SMOOTH",
"387 679 OFFCURVE",
"478 650 OFFCURVE",
"552 600 CURVE",
"563 616 LINE",
"486 669 OFFCURVE",
"391 699 OFFCURVE",
"300 699 CURVE SMOOTH"
);
},
{
closed = 1;
nodes = (
"291 686 LINE",
"291 0 LINE",
"311 0 LINE",
"311 686 LINE"
);
}
);
};
layerId = UUID0;
paths = (
{
closed = 1;
nodes = (
"263 699 OFFCURVE",
"168 677 OFFCURVE",
"87 637 CURVE",
"94 620 LINE",
"173 658 OFFCURVE",
"265 679 OFFCURVE",
"351 679 CURVE SMOOTH",
"437 679 OFFCURVE",
"526 658 OFFCURVE",
"595 620 CURVE",
"605 636 LINE",
"533 677 OFFCURVE",
"444 699 OFFCURVE",
"352 699 CURVE SMOOTH"
);
},
{
closed = 1;
nodes = (
"342 686 LINE",
"258 0 LINE",
"278 0 LINE",
"362 686 LINE"
);
}
);
width = 602;
},
{
anchors = (
{
name = bottom;
position = "{303, 0}";
},
{
name = center;
position = "{366, 351}";
},
{
name = top;
position = "{409, 701}";
}
);
background = {
paths = (
{
closed = 1;
nodes = (
"235 601 LINE",
"235 0 LINE",
"467 0 LINE",
"467 601 LINE"
);
}
);
};
layerId = "5DA6E103-6A94-47F2-987D-4952DB8EA68E";
paths = (
{
closed = 1;
nodes = (
"277 711 OFFCURVE",
"155 684 OFFCURVE",
"50 630 CURVE",
"96 454 LINE",
"180 494 OFFCURVE",
"280 521 OFFCURVE",
"389 521 CURVE SMOOTH",
"489 521 OFFCURVE",
"582 499 OFFCURVE",
"661 458 CURVE",
"733 623 LINE",
"638 678 OFFCURVE",
"523 711 OFFCURVE",
"396 711 CURVE SMOOTH"
);
},
{
closed = 1;
nodes = (
"276 601 LINE",
"202 0 LINE",
"434 0 LINE",
"508 601 LINE"
);
}
);
width = 712;
},
{
anchors = (
{
name = bottom;
position = "{280, 0}";
},
{
name = center;
position = "{337, 350}";
},
{
name = top;
position = "{380, 700}";
}
);
layerId = "1C84A7F3-C40A-4DC1-B8B4-102D183C348F";
paths = (
{
closed = 1;
nodes = (
"270 705 OFFCURVE",
"161 680 OFFCURVE",
"70 634 CURVE",
"103 533 LINE",
"181 572 OFFCURVE",
"275 597 OFFCURVE",
"367 597 CURVE SMOOTH",
"457 597 OFFCURVE",
"544 576 OFFCURVE",
"615 536 CURVE",
"664 630 LINE",
"581 678 OFFCURVE",
"481 705 OFFCURVE",
"373 705 CURVE SMOOTH"
);
},
{
closed = 1;
nodes = (
"312 647 LINE",
"232 0 LINE",
"350 0 LINE",
"429 647 LINE"
);
}
);
width = 653;
}
);
leftKerningGroup = T;
rightKerningGroup = T;
},
{
glyphname = U;
lastChange = "2015-04-22 19:02:19 +0000";
layers = (
{
anchors = (
{
name = ogonek;
position = "{495, 10}";
},
{
name = top;
position = "{440, 699}";
}
);
background = {
paths = (
{
closed = 1;
nodes = (
"275 104 OFFCURVE",
"206 183 OFFCURVE",
"206 312 CURVE SMOOTH",
"206 699 LINE",
"88 699 LINE",
"88 307 LINE SMOOTH",
"88 98 OFFCURVE",
"219 -7 OFFCURVE",
"384 -7 CURVE SMOOTH",
"549 -7 OFFCURVE",
"680 98 OFFCURVE",
"680 307 CURVE SMOOTH",
"680 699 LINE",
"562 699 LINE",
"562 312 LINE SMOOTH",
"562 183 OFFCURVE",
"493 104 OFFCURVE",
"384 104 CURVE"
);
}
);
};
layerId = UUID0;
paths = (
{
closed = 1;
nodes = (
"697 699 LINE",
"646 284 LINE",
"625 116 OFFCURVE",
"519 20 OFFCURVE",
"355 20 CURVE",
"193 20 OFFCURVE",
"111 116 OFFCURVE",
"132 284 CURVE",
"183 699 LINE",
"163 699 LINE",
"112 284 LINE",
"90 103 OFFCURVE",
"178 0 OFFCURVE",
"355 0 CURVE",
"530 0 OFFCURVE",
"644 103 OFFCURVE",
"666 284 CURVE",
"717 699 LINE"
);
}
);
width = 774;
},
{
anchors = (
{
name = ogonek;
position = "{550, 10}";
},
{
name = top;
position = "{430, 701}";
}
);
background = {
paths = (
{
closed = 1;
nodes = (
"587 -14 OFFCURVE",
"726 80 OFFCURVE",
"726 319 CURVE SMOOTH",
"726 700 LINE",
"488 700 LINE",
"488 312 LINE SMOOTH",
"488 227 OFFCURVE",
"443 193 OFFCURVE",
"380 193 CURVE SMOOTH",
"317 193 OFFCURVE",
"272 230 OFFCURVE",
"272 317 CURVE SMOOTH",
"272 700 LINE",
"34 700 LINE",
"34 314 LINE SMOOTH",
"34 82 OFFCURVE",
"169 -14 OFFCURVE",
"378 -14 CURVE SMOOTH"
);
}
);
};
layerId = "5DA6E103-6A94-47F2-987D-4952DB8EA68E";
paths = (
{
closed = 1;
nodes = (
"534 701 LINE",
"485 302 LINE SMOOTH",
"476 232 OFFCURVE",
"422 183 OFFCURVE",
"361 183 CURVE SMOOTH",
"307 183 OFFCURVE",
"266 223 OFFCURVE",
"275 292 CURVE SMOOTH",
"325 701 LINE",
"93 701 LINE",
"44 302 LINE SMOOTH",
"21 116 OFFCURVE",
"145 -10 OFFCURVE",
"353 -10 CURVE SMOOTH",
"552 -10 OFFCURVE",
"693 106 OFFCURVE",
"716 292 CURVE SMOOTH",
"766 701 LINE"
);
}
);
width = 753;
},
{
anchors = (
{
name = ogonek;
position = "{511, 10}";
},
{
name = top;
position = "{435, 700}";
}
);
layerId = "1C84A7F3-C40A-4DC1-B8B4-102D183C348F";
paths = (
{
closed = 1;
nodes = (
"622 700 LINE",
"572 293 LINE",
"557 170 OFFCURVE",
"475 95 OFFCURVE",
"358 95 CURVE",
"246 95 OFFCURVE",
"183 165 OFFCURVE",
"198 287 CURVE",
"248 700 LINE",
"131 700 LINE",
"81 293 LINE",
"59 110 OFFCURVE",
"163 -5 OFFCURVE",
"354 -5 CURVE",
"540 -5 OFFCURVE",
"667 104 OFFCURVE",
"689 287 CURVE",
"740 700 LINE"
);
}
);
width = 764;
}
);
leftKerningGroup = U;
rightKerningGroup = U;
unicode = 0055;
},
{
glyphname = U.ss01;
lastChange = "2015-04-22 19:02:41 +0000";
layers = (
{
anchors = (
{
name = ogonek;
position = "{690, 10}";
},
{
name = top;
position = "{449, 699}";
}
);
background = {
paths = (
{
closed = 1;
nodes = (
"664 0 LINE",
"664 699 LINE",
"644 699 LINE",
"644 0 LINE"
);
},
{
closed = 1;
nodes = (
"535 4 OFFCURVE",
"663 119 OFFCURVE",
"663 274 CURVE",
"645 274 LINE",
"645 131 OFFCURVE",
"525 24 OFFCURVE",
"360 20 CURVE",
"227 20 OFFCURVE",
"130 119 OFFCURVE",
"130 254 CURVE",
"130 699 LINE SMOOTH",
"110 699 LINE",
"110 254 LINE",
"110 107 OFFCURVE",
"215 0 OFFCURVE",
"360 0 CURVE"
);
}
);
};
components = (
{
name = N.ss01;
transform = "{-1, 0, 0, -1, 814, 699}";
}
);
layerId = UUID0;
width = 792;
},
{
anchors = (
{
name = ogonek;
position = "{673, 10}";
},
{
name = top;
position = "{434, 701}";
}
);
background = {
paths = (
{
closed = 1;
nodes = (
"704 0 LINE",
"704 701 LINE",
"479 701 LINE",
"479 0 LINE"
);
},
{
closed = 1;
nodes = (
"411 0 OFFCURVE",
"529 125 OFFCURVE",
"529 296 CURVE",
"479 296 LINE",
"479 239 OFFCURVE",
"427 198 OFFCURVE",
"365 198 CURVE SMOOTH",
"305 198 OFFCURVE",
"268 237 OFFCURVE",
"265 293 CURVE SMOOTH",
"265 701 LINE",
"40 701 LINE",
"40 228 LINE SMOOTH",
"40 96 OFFCURVE",
"139 0 OFFCURVE",
"264 0 CURVE SMOOTH"
);
}
);
};
components = (
{
name = N.ss01;
transform = "{-1, 0, 0, -1, 780, 701}";
}
);
layerId = "5DA6E103-6A94-47F2-987D-4952DB8EA68E";
width = 761;
},
{
anchors = (
{
name = ogonek;
position = "{687, 10}";
},
{
name = top;
position = "{443, 700}";
}
);
components = (
{
name = N.ss01;
transform = "{-1, 0, 0, -1, 791, 700}";
}
);
layerId = "1C84A7F3-C40A-4DC1-B8B4-102D183C348F";
width = 770;
}
);
leftKerningGroup = U.ss01;
leftMetricsKey = U;
rightKerningGroup = U.ss01;
rightMetricsKey = H;
},
{
color = 0;
glyphname = Uacute;
lastChange = "2015-04-22 19:02:19 +0000";
layers = (
{
background = {
components = (
{
name = U;
},
{
name = acute;
transform = "{1, 0, 0, 1, -24, 130}";
}
);
};
components = (
{
name = U;
},
{
name = acute;
transform = "{1, 0, 0, 1, 283, 182}";
}
);
layerId = UUID0;
width = 774;
},
{
background = {
paths = (
{
closed = 1;
nodes = (
"587 -14 OFFCURVE",
"726 80 OFFCURVE",
"726 319 CURVE SMOOTH",
"726 700 LINE",
"488 700 LINE",
"488 312 LINE SMOOTH",
"488 227 OFFCURVE",
"443 193 OFFCURVE",
"380 193 CURVE SMOOTH",
"317 193 OFFCURVE",
"272 230 OFFCURVE",
"272 317 CURVE SMOOTH",
"272 700 LINE",
"34 700 LINE",
"34 314 LINE SMOOTH",
"34 82 OFFCURVE",
"169 -14 OFFCURVE",
"378 -14 CURVE SMOOTH"
);
},
{
closed = 1;
nodes = (
"293 735 LINE",
"445 735 LINE",
"610 870 LINE",
"389 927 LINE"
);
}
);
};
components = (
{
name = U;
},
{
name = acute;
transform = "{1, 0, 0, 1, 264, 154}";
}
);
layerId = "5DA6E103-6A94-47F2-987D-4952DB8EA68E";
width = 753;
},
{
components = (
{
name = U;
},
{
name = acute;
transform = "{1, 0, 0, 1, 274, 169}";
}
);
layerId = "1C84A7F3-C40A-4DC1-B8B4-102D183C348F";
width = 764;
}
);
leftKerningGroup = U;
leftMetricsKey = U;
rightKerningGroup = U;
rightMetricsKey = U;
unicode = 00DA;
},
{
color = 0;
glyphname = Ucircumflex;
lastChange = "2015-04-22 19:02:19 +0000";
layers = (
{
components = (
{
name = U;
},
{
name = circumflex;
transform = "{1, 0, 0, 1, 235, 182}";
}
);
layerId = UUID0;
width = 774;
},
{
background = {
paths = (
{
closed = 1;
nodes = (
"587 -14 OFFCURVE",
"726 80 OFFCURVE",
"726 319 CURVE SMOOTH",
"726 700 LINE",
"488 700 LINE",
"488 312 LINE SMOOTH",
"488 227 OFFCURVE",
"443 193 OFFCURVE",
"380 193 CURVE SMOOTH",
"317 193 OFFCURVE",
"272 230 OFFCURVE",
"272 317 CURVE SMOOTH",
"272 700 LINE",
"34 700 LINE",
"34 314 LINE SMOOTH",
"34 82 OFFCURVE",
"169 -14 OFFCURVE",
"378 -14 CURVE SMOOTH"
);
},
{
closed = 1;
nodes = (
"165 740 LINE",
"290 740 LINE",
"379 796 LINE",
"468 740 LINE",
"595 740 LINE",
"462 912 LINE",
"298 912 LINE"
);
}
);
};
components = (
{
name = U;
},
{
name = circumflex;
transform = "{1, 0, 0, 1, 221, 154}";
}
);
layerId = "5DA6E103-6A94-47F2-987D-4952DB8EA68E";
width = 753;
},
{
components = (
{
name = U;
},
{
name = circumflex;
transform = "{1, 0, 0, 1, 227, 166}";
}
);
layerId = "1C84A7F3-C40A-4DC1-B8B4-102D183C348F";
width = 764;
}
);
leftKerningGroup = U;
leftMetricsKey = U;
rightKerningGroup = U;
rightMetricsKey = U;
unicode = 00DB;
},
{
color = 0;
glyphname = Udieresis;
lastChange = "2015-04-22 19:02:19 +0000";
layers = (
{
components = (
{
name = U;
},
{
name = dieresis;
transform = "{1, 0, 0, 1, 235, 182}";
}
);
layerId = UUID0;
width = 774;
},
{
background = {
paths = (
{
closed = 1;
nodes = (
"587 -14 OFFCURVE",
"726 80 OFFCURVE",
"726 319 CURVE SMOOTH",
"726 700 LINE",
"488 700 LINE",
"488 312 LINE SMOOTH",
"488 227 OFFCURVE",
"443 193 OFFCURVE",
"380 193 CURVE SMOOTH",
"317 193 OFFCURVE",
"272 230 OFFCURVE",
"272 317 CURVE SMOOTH",
"272 700 LINE",
"34 700 LINE",
"34 314 LINE SMOOTH",
"34 82 OFFCURVE",
"169 -14 OFFCURVE",
"378 -14 CURVE SMOOTH"
);
},
{
closed = 1;
nodes = (
"400 740 LINE",
"584 740 LINE",
"584 890 LINE",
"400 890 LINE"
);
},
{
closed = 1;
nodes = (
"176 740 LINE",
"360 740 LINE",
"360 890 LINE",
"176 890 LINE"
);
}
);
};
components = (
{
name = U;
},
{
name = dieresis;
transform = "{1, 0, 0, 1, 221, 154}";
}
);
layerId = "5DA6E103-6A94-47F2-987D-4952DB8EA68E";
width = 753;
},
{
components = (
{
name = U;
},
{
name = dieresis;
transform = "{1, 0, 0, 1, 228, 169}";
}
);
layerId = "1C84A7F3-C40A-4DC1-B8B4-102D183C348F";
width = 764;
}
);
leftKerningGroup = U;
leftMetricsKey = U;
rightKerningGroup = U;
rightMetricsKey = U;
unicode = 00DC;
},
{
color = 0;
glyphname = Ugrave;
lastChange = "2015-04-22 19:02:19 +0000";
layers = (
{
components = (
{
name = U;
},
{
name = grave;
transform = "{1, 0, 0, 1, 186, 182}";
}
);
layerId = UUID0;
width = 774;
},
{
background = {
paths = (
{
closed = 1;
nodes = (
"587 -14 OFFCURVE",
"726 80 OFFCURVE",
"726 319 CURVE SMOOTH",
"726 700 LINE",
"488 700 LINE",
"488 312 LINE SMOOTH",
"488 227 OFFCURVE",
"443 193 OFFCURVE",
"380 193 CURVE SMOOTH",
"317 193 OFFCURVE",
"272 230 OFFCURVE",
"272 317 CURVE SMOOTH",
"272 700 LINE",
"34 700 LINE",
"34 314 LINE SMOOTH",
"34 82 OFFCURVE",
"169 -14 OFFCURVE",
"378 -14 CURVE SMOOTH"
);
},
{
closed = 1;
nodes = (
"315 735 LINE",
"467 735 LINE",
"371 927 LINE",
"150 870 LINE"
);
}
);
};
components = (
{
name = U;
},
{
name = grave;
transform = "{1, 0, 0, 1, 184, 154}";
}
);
layerId = "5DA6E103-6A94-47F2-987D-4952DB8EA68E";
width = 753;
},
{
components = (
{
name = U;
},
{
name = grave;
transform = "{1, 0, 0, 1, 184, 169}";
}
);
layerId = "1C84A7F3-C40A-4DC1-B8B4-102D183C348F";
width = 764;
}
);
leftKerningGroup = U;
leftMetricsKey = U;
rightKerningGroup = U;
rightMetricsKey = U;
unicode = 00D9;
},
{
color = 0;
glyphname = Uogonek;
lastChange = "2015-04-22 19:02:19 +0000";
layers = (
{
background = {
paths = (
{
closed = 1;
nodes = (
"644 699 LINE",
"644 284 LINE",
"644 116 OFFCURVE",
"550 20 OFFCURVE",
"387 20 CURVE",
"224 20 OFFCURVE",
"130 116 OFFCURVE",
"130 284 CURVE",
"130 699 LINE",
"110 699 LINE",
"110 284 LINE",
"110 103 OFFCURVE",
"211 0 OFFCURVE",
"387 0 CURVE",
"563 0 OFFCURVE",
"664 103 OFFCURVE",
"664 284 CURVE",
"664 699 LINE"
);
},
{
closed = 1;
nodes = (
"449 0 LINE",
"405 -62 OFFCURVE",
"389 -99 OFFCURVE",
"389 -131 CURVE SMOOTH",
"389 -172 OFFCURVE",
"417 -199 OFFCURVE",
"453 -199 CURVE SMOOTH",
"480 -199 OFFCURVE",
"508 -181 OFFCURVE",
"527 -159 CURVE",
"513 -145 LINE",
"495 -165 OFFCURVE",
"475 -179 OFFCURVE",
"453 -179 CURVE SMOOTH",
"428 -179 OFFCURVE",
"409 -162 OFFCURVE",
"409 -131 CURVE SMOOTH",
"409 -100 OFFCURVE",
"421 -66 OFFCURVE",
"469 0 CURVE"
);
}
);
};
layerId = UUID0;
paths = (
{
closed = 1;
nodes = (
"697 699 LINE",
"646 284 LINE",
"625 116 OFFCURVE",
"519 20 OFFCURVE",
"355 20 CURVE",
"193 20 OFFCURVE",
"111 116 OFFCURVE",
"132 284 CURVE",
"183 699 LINE",
"163 699 LINE",
"112 284 LINE",
"90 103 OFFCURVE",
"178 0 OFFCURVE",
"355 0 CURVE",
"530 0 OFFCURVE",
"644 103 OFFCURVE",
"666 284 CURVE",
"717 699 LINE"
);
},
{
closed = 1;
nodes = (
"434 23 LINE",
"370 -50 OFFCURVE",
"345 -93 OFFCURVE",
"340 -130 CURVE SMOOTH",
"335 -172 OFFCURVE",
"360 -199 OFFCURVE",
"397 -199 CURVE SMOOTH",
"423 -199 OFFCURVE",
"453 -181 OFFCURVE",
"474 -159 CURVE",
"462 -145 LINE",
"442 -165 OFFCURVE",
"420 -179 OFFCURVE",
"397 -179 CURVE SMOOTH",
"373 -179 OFFCURVE",
"356 -162 OFFCURVE",
"360 -132 CURVE SMOOTH",
"364 -95 OFFCURVE",
"384 -55 OFFCURVE",
"454 23 CURVE"
);
}
);
width = 774;
},
{
background = {
paths = (
{
closed = 1;
nodes = (
"481 701 LINE",
"481 297 LINE SMOOTH",
"481 227 OFFCURVE",
"437 183 OFFCURVE",
"380 183 CURVE SMOOTH",
"322 183 OFFCURVE",
"272 228 OFFCURVE",
"272 297 CURVE SMOOTH",
"272 701 LINE",
"40 701 LINE",
"40 297 LINE SMOOTH",
"40 111 OFFCURVE",
"175 -10 OFFCURVE",
"379 -10 CURVE SMOOTH",
"582 -10 OFFCURVE",
"713 111 OFFCURVE",
"713 297 CURVE SMOOTH",
"713 701 LINE"
);
},
{
closed = 1;
nodes = (
"577 152 LINE",
"520 74 OFFCURVE",
"466 -20 OFFCURVE",
"466 -116 CURVE SMOOTH",
"466 -185 OFFCURVE",
"520 -204 OFFCURVE",
"562 -204 CURVE SMOOTH",
"611 -204 OFFCURVE",
"654 -179 OFFCURVE",
"682 -128 CURVE",
"627 -64 LINE",
"616 -83 OFFCURVE",
"603 -94 OFFCURVE",
"590 -94 CURVE SMOOTH",
"582 -94 OFFCURVE",
"576 -89 OFFCURVE",
"576 -79 CURVE SMOOTH",
"576 -34 OFFCURVE",
"622 56 OFFCURVE",
"682 152 CURVE"
);
}
);
};
layerId = "5DA6E103-6A94-47F2-987D-4952DB8EA68E";
paths = (
{
closed = 1;
nodes = (
"534 701 LINE",
"485 302 LINE SMOOTH",
"476 232 OFFCURVE",
"422 183 OFFCURVE",
"361 183 CURVE SMOOTH",
"307 183 OFFCURVE",
"266 223 OFFCURVE",
"275 292 CURVE SMOOTH",
"325 701 LINE",
"93 701 LINE",
"44 302 LINE SMOOTH",
"21 116 OFFCURVE",
"145 -10 OFFCURVE",
"353 -10 CURVE SMOOTH",
"552 -10 OFFCURVE",
"693 106 OFFCURVE",
"716 292 CURVE SMOOTH",
"766 701 LINE"
);
},
{
closed = 1;
nodes = (
"394 28 LINE",
"358 -13 OFFCURVE",
"326 -61 OFFCURVE",
"320 -105 CURVE SMOOTH",
"311 -180 OFFCURVE",
"366 -204 OFFCURVE",
"412 -204 CURVE SMOOTH",
"457 -204 OFFCURVE",
"500 -184 OFFCURVE",
"535 -133 CURVE",
"484 -59 LINE",
"471 -78 OFFCURVE",
"454 -94 OFFCURVE",
"437 -94 CURVE SMOOTH",
"433 -94 OFFCURVE",
"431 -94 OFFCURVE",
"432 -90 CURVE SMOOTH",
"435 -64 OFFCURVE",
"466 -23 OFFCURVE",
"502 20 CURVE"
);
}
);
width = 753;
},
{
layerId = "1C84A7F3-C40A-4DC1-B8B4-102D183C348F";
paths = (
{
closed = 1;
nodes = (
"622 700 LINE",
"572 293 LINE",
"557 170 OFFCURVE",
"475 95 OFFCURVE",
"359 95 CURVE",
"246 95 OFFCURVE",
"182 165 OFFCURVE",
"197 287 CURVE",
"248 700 LINE",
"131 700 LINE",
"81 293 LINE",
"59 110 OFFCURVE",
"162 -5 OFFCURVE",
"353 -5 CURVE",
"539 -5 OFFCURVE",
"667 104 OFFCURVE",
"689 287 CURVE",
"740 700 LINE"
);
},
{
closed = 1;
nodes = (
"398 15 LINE",
"352 -39 OFFCURVE",
"326 -81 OFFCURVE",
"322 -118 CURVE SMOOTH",
"315 -175 OFFCURVE",
"353 -201 OFFCURVE",
"394 -201 CURVE SMOOTH",
"429 -201 OFFCURVE",
"466 -182 OFFCURVE",
"493 -147 CURVE",
"462 -106 LINE",
"446 -125 OFFCURVE",
"427 -140 OFFCURVE",
"406 -140 CURVE SMOOTH",
"391 -140 OFFCURVE",
"382 -131 OFFCURVE",
"384 -113 CURVE SMOOTH",
"388 -84 OFFCURVE",
"411 -46 OFFCURVE",
"458 11 CURVE"
);
}
);
width = 765;
}
);
leftKerningGroup = U;
rightKerningGroup = U;
unicode = 0172;
},
{
glyphname = V;
lastChange = "2015-04-22 19:02:19 +0000";
layers = (
{
background = {
paths = (
{
closed = 1;
nodes = (
"284 0 LINE",
"3 699 LINE",
"135 699 LINE",
"350 177 LINE",
"565 699 LINE",
"697 699 LINE",
"416 0 LINE"
);
}
);
};
layerId = UUID0;
paths = (
{
closed = 1;
nodes = (
"645 699 LINE",
"283 23 LINE",
"86 699 LINE",
"63 699 LINE",
"269 0 LINE",
"291 0 LINE",
"669 699 LINE"
);
}
);
width = 626;
},
{
background = {
paths = (
{
closed = 1;
nodes = (
"273 -5 LINE",
"497 -5 LINE",
"781 700 LINE",
"523 700 LINE",
"387 307 LINE",
"251 700 LINE",
"-11 700 LINE"
);
}
);
};
layerId = "5DA6E103-6A94-47F2-987D-4952DB8EA68E";
paths = (
{
closed = 1;
nodes = (
"584 701 LINE",
"383 241 LINE",
"295 701 LINE",
"49 701 LINE",
"229 0 LINE",
"469 0 LINE",
"823 701 LINE"
);
}
);
width = 764;
},
{
layerId = "1C84A7F3-C40A-4DC1-B8B4-102D183C348F";
paths = (
{
closed = 1;
nodes = (
"617 700 LINE",
"327 124 LINE",
"182 700 LINE",
"57 700 LINE",
"250 0 LINE",
"372 0 LINE",
"740 700 LINE"
);
}
);
width = 690;
}
);
leftKerningGroup = V;
rightKerningGroup = V;
unicode = 0056;
},
{
glyphname = W;
lastChange = "2015-04-22 19:02:19 +0000";
layers = (
{
anchors = (
{
name = top;
position = "{447, 699}";
}
);
background = {
paths = (
{
closed = 1;
nodes = (
"954 699 LINE",
"724 26 LINE",
"504 699 LINE",
"482 699 LINE",
"262 26 LINE",
"32 699 LINE",
"10 699 LINE",
"251 0 LINE",
"273 0 LINE",
"493 672 LINE",
"713 0 LINE",
"735 0 LINE",
"976 699 LINE"
);
}
);
};
layerId = UUID0;
paths = (
{
closed = 1;
nodes = (
"1007 699 LINE",
"700 23 LINE",
"558 699 LINE",
"535 699 LINE",
"228 23 LINE",
"86 699 LINE",
"63 699 LINE",
"214 0 LINE",
"235 0 LINE",
"543 671 LINE",
"686 0 LINE",
"707 0 LINE",
"1030 699 LINE"
);
}
);
width = 987;
},
{
anchors = (
{
name = top;
position = "{559, 701}";
}
);
background = {
paths = (
{
closed = 1;
nodes = (
"882 701 LINE",
"798 261 LINE",
"680 701 LINE",
"453 701 LINE",
"358 261 LINE",
"241 701 LINE",
"-5 701 LINE",
"230 0 LINE",
"463 0 LINE",
"564 401 LINE",
"683 0 LINE",
"916 0 LINE",
"1122 701 LINE"
);
}
);
};
layerId = "5DA6E103-6A94-47F2-987D-4952DB8EA68E";
paths = (
{
closed = 1;
nodes = (
"941 701 LINE",
"780 241 LINE",
"731 701 LINE",
"505 700 LINE",
"344 241 LINE",
"295 701 LINE",
"49 701 LINE",
"190 0 LINE",
"429 0 LINE",
"581 419 LINE",
"626 0 LINE",
"865 0 LINE",
"1180 701 LINE"
);
}
);
width = 1121;
},
{
anchors = (
{
name = top;
position = "{576, 700}";
}
);
layerId = "1C84A7F3-C40A-4DC1-B8B4-102D183C348F";
paths = (
{
closed = 1;
nodes = (
"976 700 LINE",
"736 124 LINE",
"638 700 LINE",
"521 699 LINE",
"281 124 LINE",
"182 700 LINE",
"57 700 LINE",
"203 0 LINE",
"325 0 LINE",
"561 555 LINE",
"658 0 LINE",
"780 0 LINE",
"1099 700 LINE"
);
}
);
width = 1036;
}
);
leftKerningGroup = V;
rightKerningGroup = V;
unicode = 0057;
},
{
glyphname = W.ss01;
lastChange = "2015-04-22 19:02:19 +0000";
layers = (
{
anchors = (
{
name = top;
position = "{654, 699}";
}
);
background = {
components = (
{
name = M.ss01;
}
);
};
layerId = UUID0;
paths = (
{
closed = 1;
nodes = (
"1125 699 LINE",
"1068 234 LINE SMOOTH",
"1052 104 OFFCURVE",
"952 20 OFFCURVE",
"813 20 CURVE SMOOTH",
"673 20 OFFCURVE",
"592 104 OFFCURVE",
"608 234 CURVE SMOOTH",
"665 699 LINE",
"645 699 LINE",
"588 234 LINE SMOOTH",
"572 104 OFFCURVE",
"469 20 OFFCURVE",
"325 20 CURVE SMOOTH",
"188 20 OFFCURVE",
"110 104 OFFCURVE",
"126 234 CURVE SMOOTH",
"183 699 LINE",
"163 699 LINE",
"106 234 LINE SMOOTH",
"88 92 OFFCURVE",
"174 0 OFFCURVE",
"325 0 CURVE SMOOTH",
"445 0 OFFCURVE",
"548 61 OFFCURVE",
"588 155 CURVE",
"603 61 OFFCURVE",
"691 0 OFFCURVE",
"813 0 CURVE SMOOTH",
"962 0 OFFCURVE",
"1070 92 OFFCURVE",
"1088 234 CURVE SMOOTH",
"1145 699 LINE"
);
}
);
width = 1202;
},
{
anchors = (
{
name = top;
position = "{630, 701}";
}
);
background = {
components = (
{
name = M.ss01;
}
);
};
layerId = "5DA6E103-6A94-47F2-987D-4952DB8EA68E";
paths = (
{
closed = 1;
nodes = (
"935 701 LINE",
"885 292 LINE SMOOTH",
"877 232 OFFCURVE",
"830 183 OFFCURVE",
"772 183 CURVE SMOOTH",
"722 183 OFFCURVE",
"687 222 OFFCURVE",
"695 282 CURVE SMOOTH",
"746 701 LINE",
"514 701 LINE",
"464 292 LINE SMOOTH",
"455 232 OFFCURVE",
"406 183 OFFCURVE",
"349 183 CURVE SMOOTH",
"299 183 OFFCURVE",
"266 222 OFFCURVE",
"274 282 CURVE SMOOTH",
"325 701 LINE",
"93 701 LINE",
"43 292 LINE SMOOTH",
"22 120 OFFCURVE",
"133 -10 OFFCURVE",
"304 -10 CURVE SMOOTH",
"405 -10 OFFCURVE",
"502 36 OFFCURVE",
"563 108 CURVE",
"602 44 OFFCURVE",
"694 -10 OFFCURVE",
"802 -10 CURVE SMOOTH",
"963 -10 OFFCURVE",
"1095 110 OFFCURVE",
"1116 282 CURVE SMOOTH",
"1167 701 LINE"
);
}
);
width = 1154;
},
{
anchors = (
{
name = top;
position = "{643, 700}";
}
);
layerId = "1C84A7F3-C40A-4DC1-B8B4-102D183C348F";
paths = (
{
closed = 1;
nodes = (
"1037 700 LINE",
"983 261 LINE SMOOTH",
"971 164 OFFCURVE",
"896 95 OFFCURVE",
"795 95 CURVE SMOOTH",
"696 95 OFFCURVE",
"635 158 OFFCURVE",
"647 256 CURVE SMOOTH",
"702 700 LINE",
"584 700 LINE",
"531 261 LINE SMOOTH",
"518 164 OFFCURVE",
"440 95 OFFCURVE",
"337 95 CURVE SMOOTH",
"240 95 OFFCURVE",
"182 158 OFFCURVE",
"194 256 CURVE SMOOTH",
"248 700 LINE",
"131 700 LINE",
"77 261 LINE SMOOTH",
"58 105 OFFCURVE",
"155 -5 OFFCURVE",
"315 -5 CURVE SMOOTH",
"426 -5 OFFCURVE",
"527 49 OFFCURVE",
"576 133 CURVE",
"603 54 OFFCURVE",
"692 -5 OFFCURVE",
"807 -5 CURVE SMOOTH",
"962 -5 OFFCURVE",
"1081 100 OFFCURVE",
"1100 256 CURVE SMOOTH",
"1155 700 LINE"
);
}
);
width = 1180;
}
);
leftKerningGroup = W.ss01;
leftMetricsKey = U;
rightKerningGroup = W.ss01;
rightMetricsKey = U;
},
{
glyphname = X;
lastChange = "2015-04-22 19:02:19 +0000";
layers = (
{
background = {
paths = (
{
closed = 1;
nodes = (
"511 0 LINE",
"658 0 LINE",
"418 359 LINE",
"641 699 LINE",
"495 699 LINE",
"339 463 LINE",
"334 463 LINE",
"178 699 LINE",
"32 699 LINE",
"255 359 LINE",
"15 0 LINE",
"162 0 LINE",
"334 263 LINE",
"339 263 LINE"
);
}
);
};
layerId = UUID0;
paths = (
{
closed = 1;
nodes = (
"590 699 LINE",
"320 379 LINE",
"129 699 LINE",
"105 699 LINE",
"305 362 LINE",
"0 0 LINE",
"24 0 LINE",
"315 346 LINE",
"523 0 LINE",
"547 0 LINE",
"329 362 LINE",
"614 699 LINE"
);
}
);
width = 623;
},
{
background = {
paths = (
{
closed = 1;
nodes = (
"-9 0 LINE",
"252 0 LINE",
"364 182 LINE",
"475 0 LINE",
"741 0 LINE",
"504 358 LINE",
"731 700 LINE",
"470 700 LINE",
"368 533 LINE",
"267 700 LINE",
"1 700 LINE",
"228 356 LINE"
);
}
);
};
layerId = "5DA6E103-6A94-47F2-987D-4952DB8EA68E";
paths = (
{
closed = 1;
nodes = (
"535 701 LINE",
"412 536 LINE",
"331 701 LINE",
"65 701 LINE",
"252 356 LINE",
"-40 0 LINE",
"235 0 LINE",
"374 181 LINE",
"469 0 LINE",
"743 0 LINE",
"542 367 LINE",
"812 701 LINE"
);
}
);
width = 773;
},
{
associatedMasterId = UUID0;
background = {
paths = (
{
closed = 0;
nodes = (
"551 699 LINE",
"47 0 LINE"
);
},
{
closed = 0;
nodes = (
"66 699 LINE",
"570 0 LINE"
);
}
);
};
layerId = "BC3F43BB-9F1F-4863-A9A9-2B20CB3BE0AF";
name = "Light Mar 13 12, 18:48";
paths = (
{
closed = 1;
nodes = (
"59 0 LINE",
"563 699 LINE",
"539 699 LINE",
"35 0 LINE"
);
},
{
closed = 1;
nodes = (
"582 0 LINE",
"78 699 LINE",
"54 699 LINE",
"558 0 LINE"
);
}
);
width = 617;
},
{
layerId = "1C84A7F3-C40A-4DC1-B8B4-102D183C348F";
paths = (
{
closed = 1;
nodes = (
"565 700 LINE",
"361 451 LINE",
"222 700 LINE",
"86 700 LINE",
"281 359 LINE",
"-18 0 LINE",
"121 0 LINE",
"343 270 LINE",
"498 0 LINE",
"638 0 LINE",
"428 364 LINE",
"705 700 LINE"
);
}
);
width = 692;
}
);
leftKerningGroup = X;
rightKerningGroup = X;
unicode = 0058;
},
{
glyphname = Y;
lastChange = "2015-04-22 19:02:19 +0000";
layers = (
{
anchors = (
{
name = top;
position = "{356, 699}";
}
);
background = {
paths = (
{
closed = 1;
nodes = (
"252 0 LINE",
"252 276 LINE",
"-8 699 LINE",
"121 699 LINE",
"312 381 LINE",
"503 699 LINE",
"632 699 LINE",
"372 276 LINE",
"372 0 LINE"
);
}
);
};
layerId = UUID0;
paths = (
{
closed = 1;
nodes = (
"625 699 LINE",
"307 289 LINE",
"87 699 LINE",
"63 699 LINE",
"301 258 LINE",
"307 258 LINE",
"649 699 LINE"
);
},
{
closed = 1;
nodes = (
"296 277 LINE",
"262 0 LINE",
"282 0 LINE",
"316 277 LINE"
);
}
);
width = 606;
},
{
anchors = (
{
name = top;
position = "{413, 701}";
}
);
background = {
paths = (
{
closed = 1;
nodes = (
"248 0 LINE",
"482 0 LINE",
"482 251 LINE",
"746 700 LINE",
"487 700 LINE",
"366 470 LINE",
"246 700 LINE",
"-16 700 LINE",
"248 248 LINE"
);
}
);
};
layerId = "5DA6E103-6A94-47F2-987D-4952DB8EA68E";
paths = (
{
closed = 1;
nodes = (
"550 701 LINE",
"379 431 LINE",
"273 701 LINE",
"44 701 LINE",
"317 20 LINE",
"345 20 LINE",
"783 701 LINE"
);
},
{
closed = 1;
nodes = (
"252 317 LINE",
"213 0 LINE",
"445 0 LINE",
"484 317 LINE"
);
}
);
width = 719;
},
{
anchors = (
{
name = top;
position = "{371, 700}";
}
);
layerId = "1C84A7F3-C40A-4DC1-B8B4-102D183C348F";
paths = (
{
closed = 1;
nodes = (
"568 700 LINE",
"329 354 LINE",
"172 700 LINE",
"55 700 LINE",
"297 148 LINE",
"314 148 LINE",
"690 700 LINE"
);
},
{
closed = 1;
nodes = (
"265 295 LINE",
"229 0 LINE",
"346 0 LINE",
"383 295 LINE"
);
}
);
width = 637;
}
);
leftKerningGroup = V;
rightKerningGroup = V;
unicode = 0059;
},
{
glyphname = Y.ss01;
lastChange = "2015-04-22 19:02:19 +0000";
layers = (
{
anchors = (
{
name = top;
position = "{420, 699}";
}
);
background = {
paths = (
{
closed = 1;
nodes = (
"593 703 LINE",
"593 398 LINE",
"546 300 OFFCURVE",
"496 227 OFFCURVE",
"341 227 CURVE SMOOTH",
"173 227 OFFCURVE",
"99 318 OFFCURVE",
"99 488 CURVE SMOOTH",
"99 702 LINE",
"78 702 LINE",
"78 534 LINE SMOOTH",
"78 308 OFFCURVE",
"148 202 OFFCURVE",
"329 180 CURVE SMOOTH",
"358 176 OFFCURVE",
"390 174 OFFCURVE",
"425 175 CURVE SMOOTH",
"439 176 OFFCURVE",
"553 225 OFFCURVE",
"582 272 CURVE",
"582 255 OFFCURVE",
"577 244 OFFCURVE",
"577 237 CURVE SMOOTH",
"577 9 OFFCURVE",
"450 -68 OFFCURVE",
"325 -68 CURVE SMOOTH",
"227 -68 OFFCURVE",
"131 -54 OFFCURVE",
"92 52 CURVE",
"63 14 LINE",
"108 -66 OFFCURVE",
"210 -112 OFFCURVE",
"325 -112 CURVE SMOOTH",
"496 -112 OFFCURVE",
"614 -52 OFFCURVE",
"614 217 CURVE SMOOTH",
"614 703 LINE"
);
}
);
};
layerId = UUID0;
paths = (
{
closed = 1;
nodes = (
"497 163 OFFCURVE",
"625 278 OFFCURVE",
"644 434 CURVE",
"626 434 LINE",
"609 290 OFFCURVE",
"488 183 OFFCURVE",
"341 180 CURVE",
"213 180 OFFCURVE",
"131 279 OFFCURVE",
"148 414 CURVE",
"183 699 LINE SMOOTH",
"163 699 LINE",
"128 414 LINE",
"110 267 OFFCURVE",
"199 160 OFFCURVE",
"341 160 CURVE"
);
},
{
closed = 1;
nodes = (
"658 699 LINE",
"590 147 LINE",
"574 16 OFFCURVE",
"464 -80 OFFCURVE",
"329 -80 CURVE",
"234 -80 OFFCURVE",
"136 -34 OFFCURVE",
"97 28 CURVE",
"81 14 LINE",
"120 -52 OFFCURVE",
"224 -100 OFFCURVE",
"329 -100 CURVE",
"473 -100 OFFCURVE",
"591 4 OFFCURVE",
"609 147 CURVE",
"677 699 LINE"
);
}
);
width = 734;
},
{
anchors = (
{
name = top;
position = "{426, 701}";
}
);
background = {
paths = (
{
closed = 1;
nodes = (
"67 78 LINE",
"112 -52 OFFCURVE",
"217 -116 OFFCURVE",
"343 -116 CURVE SMOOTH",
"521 -116 OFFCURVE",
"642 10 OFFCURVE",
"642 220 CURVE SMOOTH",
"642 699 LINE",
"486 699 LINE",
"486 437 LINE SMOOTH",
"486 346 OFFCURVE",
"421 294 OFFCURVE",
"355 294 CURVE SMOOTH",
"269 294 OFFCURVE",
"230 354 OFFCURVE",
"230 467 CURVE SMOOTH",
"230 698 LINE",
"74 698 LINE",
"74 446 LINE SMOOTH",
"74 254 OFFCURVE",
"190 160 OFFCURVE",
"325 160 CURVE SMOOTH",
"401 160 OFFCURVE",
"437 178 OFFCURVE",
"490 215 CURVE",
"490 215 OFFCURVE",
"492 206 OFFCURVE",
"492 191 CURVE SMOOTH",
"492 101 OFFCURVE",
"446 21 OFFCURVE",
"343 21 CURVE SMOOTH",
"270 21 OFFCURVE",
"227 74 OFFCURVE",
"206 134 CURVE"
);
}
);
};
layerId = "5DA6E103-6A94-47F2-987D-4952DB8EA68E";
paths = (
{
closed = 1;
nodes = (
"420 152 OFFCURVE",
"523 262 OFFCURVE",
"545 443 CURVE",
"497 453 LINE",
"489 393 OFFCURVE",
"439 350 OFFCURVE",
"373 350 CURVE SMOOTH",
"316 350 OFFCURVE",
"286 382 OFFCURVE",
"293 440 CURVE SMOOTH",
"325 701 LINE",
"93 701 LINE",
"60 428 LINE SMOOTH",
"39 264 OFFCURVE",
"126 152 OFFCURVE",
"274 152 CURVE SMOOTH"
);
},
{
closed = 1;
nodes = (
"527 701 LINE",
"466 207 LINE SMOOTH",
"458 135 OFFCURVE",
"390 83 OFFCURVE",
"299 83 CURVE",
"242 83 OFFCURVE",
"169 102 OFFCURVE",
"116 136 CURVE",
"17 -14 LINE",
"87 -70 OFFCURVE",
"203 -110 OFFCURVE",
"322 -110 CURVE SMOOTH",
"526 -110 OFFCURVE",
"674 6 OFFCURVE",
"697 192 CURVE SMOOTH",
"759 701 LINE"
);
}
);
width = 746;
},
{
anchors = (
{
name = top;
position = "{423, 700}";
}
);
layerId = "1C84A7F3-C40A-4DC1-B8B4-102D183C348F";
paths = (
{
closed = 1;
nodes = (
"480 158 OFFCURVE",
"598 278 OFFCURVE",
"620 457 CURVE",
"571 481 LINE",
"555 353 OFFCURVE",
"466 260 OFFCURVE",
"356 258 CURVE",
"261 258 OFFCURVE",
"203 326 OFFCURVE",
"215 425 CURVE",
"248 700 LINE SMOOTH",
"131 700 LINE",
"97 421 LINE",
"78 266 OFFCURVE",
"173 156 OFFCURVE",
"328 156 CURVE"
);
},
{
closed = 1;
nodes = (
"597 700 LINE",
"533 175 LINE",
"521 71 OFFCURVE",
"429 -5 OFFCURVE",
"315 -5 CURVE",
"241 -5 OFFCURVE",
"160 32 OFFCURVE",
"117 87 CURVE",
"52 11 LINE",
"105 -56 OFFCURVE",
"215 -105 OFFCURVE",
"326 -105 CURVE",
"498 -105 OFFCURVE",
"629 4 OFFCURVE",
"650 167 CURVE",
"715 700 LINE"
);
}
);
width = 739;
}
);
leftKerningGroup = Y.ss01;
leftMetricsKey = U;
rightKerningGroup = Y.ss01;
rightMetricsKey = J;
},
{
color = 0;
glyphname = Yacute;
lastChange = "2015-04-22 19:02:19 +0000";
layers = (
{
components = (
{
name = Y;
},
{
name = acute;
transform = "{1, 0, 0, 1, 199, 182}";
}
);
layerId = UUID0;
width = 606;
},
{
background = {
paths = (
{
closed = 1;
nodes = (
"248 0 LINE",
"482 0 LINE",
"482 251 LINE",
"746 700 LINE",
"487 700 LINE",
"366 470 LINE",
"246 700 LINE",
"-16 700 LINE",
"248 248 LINE"
);
},
{
closed = 1;
nodes = (
"262 740 LINE",
"414 740 LINE",
"579 875 LINE",
"358 932 LINE"
);
}
);
};
components = (
{
name = Y;
},
{
name = acute;
transform = "{1, 0, 0, 1, 247, 154}";
}
);
layerId = "5DA6E103-6A94-47F2-987D-4952DB8EA68E";
width = 719;
},
{
components = (
{
name = Y;
},
{
name = acute;
transform = "{1, 0, 0, 1, 210, 169}";
}
);
layerId = "1C84A7F3-C40A-4DC1-B8B4-102D183C348F";
width = 637;
}
);
leftKerningGroup = V;
leftMetricsKey = Y;
rightKerningGroup = V;
rightMetricsKey = Y;
unicode = 00DD;
},
{
color = 0;
glyphname = Ydieresis;
lastChange = "2015-04-22 19:02:19 +0000";
layers = (
{
components = (
{
name = Y;
},
{
name = dieresis;
transform = "{1, 0, 0, 1, 151, 182}";
}
);
layerId = UUID0;
width = 606;
},
{
background = {
paths = (
{
closed = 1;
nodes = (
"248 0 LINE",
"482 0 LINE",
"482 251 LINE",
"746 700 LINE",
"487 700 LINE",
"366 470 LINE",
"246 700 LINE",
"-16 700 LINE",
"248 248 LINE"
);
},
{
closed = 1;
nodes = (
"385 740 LINE",
"569 740 LINE",
"569 890 LINE",
"385 890 LINE"
);
},
{
closed = 1;
nodes = (
"161 740 LINE",
"345 740 LINE",
"345 890 LINE",
"161 890 LINE"
);
}
);
};
components = (
{
name = Y;
},
{
name = dieresis;
transform = "{1, 0, 0, 1, 204, 154}";
}
);
layerId = "5DA6E103-6A94-47F2-987D-4952DB8EA68E";
width = 719;
},
{
components = (
{
name = Y;
},
{
name = dieresis;
transform = "{1, 0, 0, 1, 164, 169}";
}
);
layerId = "1C84A7F3-C40A-4DC1-B8B4-102D183C348F";
width = 637;
}
);
leftKerningGroup = V;
leftMetricsKey = Y;
rightKerningGroup = V;
rightMetricsKey = Y;
unicode = 0178;
},
{
glyphname = Z;
lastChange = "2015-04-22 19:02:19 +0000";
layers = (
{
anchors = (
{
name = top;
position = "{378, 699}";
}
);
background = {
paths = (
{
closed = 1;
nodes = (
"454 591 LINE",
"454 588 LINE",
"47 91 LINE",
"47 0 LINE",
"624 0 LINE",
"624 109 LINE",
"212 109 LINE",
"212 112 LINE",
"618 607 LINE",
"618 699 LINE",
"60 699 LINE",
"60 591 LINE"
);
}
);
};
layerId = UUID0;
paths = (
{
closed = 1;
nodes = (
"119 699 LINE",
"116 679 LINE",
"625 679 LINE",
"22 25 LINE",
"19 0 LINE",
"565 0 LINE",
"567 20 LINE",
"41 20 LINE",
"645 674 LINE",
"648 699 LINE"
);
}
);
width = 650;
},
{
anchors = (
{
name = top;
position = "{415, 701}";
}
);
background = {
paths = (
{
closed = 1;
nodes = (
"18 0 LINE",
"671 0 LINE",
"671 192 LINE",
"354 192 LINE",
"671 536 LINE",
"671 700 LINE",
"30 700 LINE",
"30 508 LINE",
"335 508 LINE",
"18 164 LINE"
);
}
);
};
layerId = "5DA6E103-6A94-47F2-987D-4952DB8EA68E";
paths = (
{
closed = 1;
nodes = (
"85 701 LINE",
"63 523 LINE",
"376 523 LINE",
"4 145 LINE",
"-13 0 LINE",
"630 0 LINE",
"652 178 LINE",
"320 178 LINE",
"692 556 LINE",
"709 701 LINE"
);
}
);
width = 683;
},
{
anchors = (
{
name = top;
position = "{395, 700}";
}
);
layerId = "1C84A7F3-C40A-4DC1-B8B4-102D183C348F";
paths = (
{
closed = 1;
nodes = (
"103 700 LINE",
"90 599 LINE",
"504 599 LINE",
"13 80 LINE",
"4 0 LINE",
"595 0 LINE",
"608 101 LINE",
"177 101 LINE",
"667 620 LINE",
"676 700 LINE"
);
}
);
width = 666;
}
);
leftKerningGroup = Z;
rightKerningGroup = Z;
unicode = 005A;
},
{
glyphname = Z.ss01;
lastChange = "2015-04-22 19:02:19 +0000";
layers = (
{
anchors = (
{
name = top;
position = "{378, 699}";
}
);
background = {
anchors = (
{
name = top;
position = "{335, 699}";
}
);
paths = (
{
closed = 1;
nodes = (
"605 648 LINE",
"344 341 LINE",
"542 341 LINE",
"542 347 LINE",
"342 347 LINE",
"95 51 LINE",
"95 40 LINE",
"611 40 LINE",
"611 0 LINE",
"55 0 LINE",
"55 50 LINE",
"304 347 LINE",
"102 347 LINE",
"102 341 LINE",
"306 341 LINE",
"566 649 LINE",
"566 660 LINE",
"70 660 LINE",
"70 699 LINE",
"605 699 LINE"
);
}
);
};
layerId = UUID0;
paths = (
{
closed = 1;
nodes = (
"334 359 LINE",
"332 339 LINE",
"544 339 LINE",
"546 359 LINE"
);
},
{
closed = 1;
nodes = (
"127 362 LINE",
"125 342 LINE",
"336 342 LINE",
"338 362 LINE"
);
},
{
closed = 1;
nodes = (
"119 699 LINE",
"116 679 LINE",
"625 679 LINE",
"22 25 LINE",
"19 0 LINE",
"565 0 LINE",
"567 20 LINE",
"41 20 LINE",
"645 674 LINE",
"648 699 LINE"
);
}
);
width = 650;
},
{
anchors = (
{
name = top;
position = "{395, 701}";
}
);
background = {
paths = (
{
closed = 1;
nodes = (
"32 701 LINE",
"32 523 LINE",
"317 523 LINE",
"20 145 LINE",
"20 0 LINE",
"623 0 LINE",
"623 178 LINE",
"319 178 LINE",
"616 556 LINE",
"616 701 LINE"
);
},
{
closed = 1;
nodes = (
"64 290 LINE",
"315 290 LINE",
"315 446 LINE",
"64 446 LINE"
);
},
{
closed = 1;
nodes = (
"311 288 LINE",
"586 288 LINE",
"586 437 LINE",
"311 437 LINE"
);
}
);
};
layerId = "5DA6E103-6A94-47F2-987D-4952DB8EA68E";
paths = (
{
closed = 1;
nodes = (
"89 436 LINE",
"71 297 LINE",
"363 297 LINE",
"381 436 LINE"
);
},
{
closed = 1;
nodes = (
"348 416 LINE",
"331 277 LINE",
"606 277 LINE",
"623 416 LINE"
);
},
{
closed = 1;
nodes = (
"85 701 LINE",
"63 523 LINE",
"376 523 LINE",
"4 145 LINE",
"-13 0 LINE",
"630 0 LINE",
"652 178 LINE",
"320 178 LINE",
"692 556 LINE",
"709 701 LINE"
);
}
);
width = 683;
},
{
anchors = (
{
name = top;
position = "{386, 700}";
}
);
layerId = "1C84A7F3-C40A-4DC1-B8B4-102D183C348F";
paths = (
{
closed = 1;
nodes = (
"338 390 LINE",
"327 299 LINE",
"550 299 LINE",
"561 390 LINE"
);
},
{
closed = 1;
nodes = (
"122 395 LINE",
"111 304 LINE",
"331 304 LINE",
"343 395 LINE"
);
},
{
closed = 1;
nodes = (
"103 700 LINE",
"90 599 LINE",
"504 599 LINE",
"13 80 LINE",
"4 0 LINE",
"595 0 LINE",
"608 101 LINE",
"177 101 LINE",
"667 620 LINE",
"676 700 LINE"
);
}
);
width = 666;
}
);
leftKerningGroup = Z.ss01;
leftMetricsKey = Z;
rightKerningGroup = Z.ss01;
rightMetricsKey = Z;
},
{
glyphname = Zcaron;
lastChange = "2015-04-22 19:02:19 +0000";
layers = (
{
components = (
{
name = Z;
},
{
name = caron;
transform = "{1, 0, 0, 1, 173, 182}";
}
);
layerId = UUID0;
width = 650;
},
{
background = {
paths = (
{
closed = 1;
nodes = (
"18 0 LINE",
"671 0 LINE",
"671 192 LINE",
"354 192 LINE",
"671 536 LINE",
"671 700 LINE",
"30 700 LINE",
"30 508 LINE",
"335 508 LINE",
"18 164 LINE"
);
},
{
closed = 1;
nodes = (
"268 740 LINE",
"432 740 LINE",
"565 912 LINE",
"440 912 LINE",
"351 856 LINE",
"262 912 LINE",
"135 912 LINE"
);
}
);
};
components = (
{
name = Z;
},
{
name = caron;
transform = "{1, 0, 0, 1, 200, 154}";
}
);
layerId = "5DA6E103-6A94-47F2-987D-4952DB8EA68E";
width = 683;
},
{
components = (
{
name = Z;
},
{
name = caron;
transform = "{1, 0, 0, 1, 184, 166}";
}
);
layerId = "1C84A7F3-C40A-4DC1-B8B4-102D183C348F";
width = 666;
}
);
leftKerningGroup = Z;
leftMetricsKey = Z;
rightKerningGroup = Z;
rightMetricsKey = Z;
unicode = 017D;
},
{
glyphname = a;
lastChange = "2015-04-22 19:11:10 +0000";
layers = (
{
anchors = (
{
name = ogonek;
position = "{584, 10}";
},
{
name = top;
position = "{362, 517}";
}
);
background = {
paths = (
{
closed = 1;
nodes = (
"81 532 LINE",
"81 0 LINE",
"193 0 LINE",
"193 532 LINE"
);
}
);
};
layerId = UUID0;
paths = (
{
closed = 1;
nodes = (
"568 517 LINE",
"505 0 LINE",
"525 0 LINE",
"588 517 LINE"
);
},
{
closed = 1;
nodes = (
"190 519 OFFCURVE",
"69 409 OFFCURVE",
"51 259 CURVE SMOOTH",
"32 108 OFFCURVE",
"126 -2 OFFCURVE",
"273 -2 CURVE SMOOTH",
"418 -2 OFFCURVE",
"538 108 OFFCURVE",
"557 257 CURVE",
"575 409 OFFCURVE",
"482 519 OFFCURVE",
"335 519 CURVE SMOOTH"
);
},
{
closed = 1;
nodes = (
"468 499 OFFCURVE",
"554 397 OFFCURVE",
"537 259 CURVE SMOOTH",
"520 119 OFFCURVE",
"409 18 OFFCURVE",
"273 18 CURVE SMOOTH",
"139 18 OFFCURVE",
"54 119 OFFCURVE",
"71 257 CURVE SMOOTH",
"88 397 OFFCURVE",
"198 499 OFFCURVE",
"334 499 CURVE SMOOTH"
);
}
);
width = 668;
},
{
anchors = (
{
name = ogonek;
position = "{610, 10}";
},
{
name = top;
position = "{371, 547}";
}
);
background = {
paths = (
{
closed = 1;
nodes = (
"71 538 LINE",
"71 0 LINE",
"221 0 LINE",
"221 538 LINE"
);
}
);
};
layerId = "5DA6E103-6A94-47F2-987D-4952DB8EA68E";
paths = (
{
closed = 1;
nodes = (
"439 547 LINE",
"372 0 LINE",
"597 0 LINE",
"664 547 LINE"
);
},
{
closed = 1;
nodes = (
"142 555 OFFCURVE",
"37 451 OFFCURVE",
"17 288 CURVE SMOOTH",
"-5 109 OFFCURVE",
"84 -8 OFFCURVE",
"240 -8 CURVE SMOOTH",
"362 -8 OFFCURVE",
"452 99 OFFCURVE",
"473 265 CURVE",
"494 440 OFFCURVE",
"420 555 OFFCURVE",
"287 555 CURVE SMOOTH"
);
},
{
closed = 1;
nodes = (
"390 377 OFFCURVE",
"414 340 OFFCURVE",
"407 282 CURVE SMOOTH",
"398 212 OFFCURVE",
"356 165 OFFCURVE",
"303 165 CURVE SMOOTH",
"257 165 OFFCURVE",
"234 202 OFFCURVE",
"241 260 CURVE SMOOTH",
"250 330 OFFCURVE",
"291 377 OFFCURVE",
"345 377 CURVE SMOOTH"
);
}
);
width = 685;
},
{
anchors = (
{
name = ogonek;
position = "{595, 10}";
},
{
name = top;
position = "{365, 531}";
}
);
layerId = "1C84A7F3-C40A-4DC1-B8B4-102D183C348F";
paths = (
{
closed = 1;
nodes = (
"508 531 LINE",
"443 0 LINE",
"557 0 LINE",
"622 531 LINE"
);
},
{
closed = 1;
nodes = (
"167 535 OFFCURVE",
"55 429 OFFCURVE",
"36 273 CURVE SMOOTH",
"15 109 OFFCURVE",
"105 -5 OFFCURVE",
"260 -5 CURVE SMOOTH",
"404 -5 OFFCURVE",
"499 94 OFFCURVE",
"518 260 CURVE",
"540 432 OFFCURVE",
"465 537 OFFCURVE",
"315 536 CURVE SMOOTH"
);
},
{
closed = 1;
nodes = (
"433 443 OFFCURVE",
"489 372 OFFCURVE",
"477 270 CURVE SMOOTH",
"463 163 OFFCURVE",
"386 86 OFFCURVE",
"288 86 CURVE SMOOTH",
"193 86 OFFCURVE",
"137 157 OFFCURVE",
"149 258 CURVE SMOOTH",
"163 365 OFFCURVE",
"241 443 OFFCURVE",
"339 443 CURVE SMOOTH"
);
}
);
width = 675;
}
);
leftKerningGroup = o;
leftMetricsKey = o;
rightKerningGroup = dotlessi;
rightMetricsKey = dotlessi;
unicode = 0061;
},
{
color = 0;
glyphname = ae;
lastChange = "2015-04-22 19:02:19 +0000";
layers = (
{
anchors = (
{
name = top;
position = "{524, 517}";
}
);
background = {
paths = (
{
closed = 0;
nodes = (
"558 124 LINE"
);
},
{
closed = 1;
nodes = (
"211 517 OFFCURVE",
"149 487 OFFCURVE",
"90 441 CURVE",
"102 425 LINE",
"159 469 OFFCURVE",
"215 497 OFFCURVE",
"285 497 CURVE",
"395 497 OFFCURVE",
"450 440 OFFCURVE",
"451 345 CURVE",
"453 160 LINE",
"473 160 LINE",
"471 345 LINE",
"470 450 OFFCURVE",
"405 517 OFFCURVE",
"285 517 CURVE"
);
},
{
closed = 1;
nodes = (
"257 282 LINE",
"138 282 OFFCURVE",
"63 233 OFFCURVE",
"63 149 CURVE",
"63 63 OFFCURVE",
"132 0 OFFCURVE",
"233 0 CURVE",
"341 0 OFFCURVE",
"427 47 OFFCURVE",
"471 156 CURVE",
"453 164 LINE",
"411 61 OFFCURVE",
"335 20 OFFCURVE",
"233 20 CURVE",
"142 20 OFFCURVE",
"83 73 OFFCURVE",
"83 149 CURVE",
"83 221 OFFCURVE",
"146 262 OFFCURVE",
"257 262 CURVE",
"462 262 LINE",
"462 282 LINE"
);
},
{
closed = 1;
nodes = (
"464 259 LINE",
"944 259 LINE",
"944 409 OFFCURVE",
"847 517 OFFCURVE",
"703 517 CURVE SMOOTH",
"559 517 OFFCURVE",
"452 409 OFFCURVE",
"452 259 CURVE SMOOTH",
"452 108 OFFCURVE",
"559 0 OFFCURVE",
"703 0 CURVE SMOOTH",
"783 0 OFFCURVE",
"853 30 OFFCURVE",
"901 81 CURVE",
"887 95 LINE",
"843 47 OFFCURVE",
"778 20 OFFCURVE",
"703 20 CURVE SMOOTH",
"569 20 OFFCURVE",
"472 118 OFFCURVE",
"472 259 CURVE SMOOTH",
"472 399 OFFCURVE",
"569 497 OFFCURVE",
"703 497 CURVE SMOOTH",
"831 497 OFFCURVE",
"915 408 OFFCURVE",
"924 279 CURVE",
"464 279 LINE"
);
}
);
};
layerId = UUID0;
paths = (
{
closed = 0;
nodes = (
"538 124 LINE"
);
},
{
closed = 1;
nodes = (
"239 517 OFFCURVE",
"175 487 OFFCURVE",
"110 441 CURVE",
"121 425 LINE",
"183 469 OFFCURVE",
"241 497 OFFCURVE",
"312 497 CURVE",
"420 497 OFFCURVE",
"468 440 OFFCURVE",
"457 345 CURVE",
"449 259 LINE",
"469 259 LINE",
"477 345 LINE",
"489 450 OFFCURVE",
"432 517 OFFCURVE",
"312 517 CURVE"
);
},
{
closed = 1;
nodes = (
"258 282 LINE",
"140 282 OFFCURVE",
"59 233 OFFCURVE",
"48 150 CURVE",
"38 63 OFFCURVE",
"99 0 OFFCURVE",
"200 0 CURVE",
"308 0 OFFCURVE",
"400 48 OFFCURVE",
"458 161 CURVE",
"456 199 LINE",
"395 65 OFFCURVE",
"309 20 OFFCURVE",
"200 20 CURVE",
"111 20 OFFCURVE",
"59 73 OFFCURVE",
"68 148 CURVE",
"77 221 OFFCURVE",
"145 262 OFFCURVE",
"255 262 CURVE",
"459 262 LINE",
"462 282 LINE"
);
},
{
closed = 1;
nodes = (
"461 259 LINE",
"939 259 LINE",
"957 409 OFFCURVE",
"873 517 OFFCURVE",
"729 517 CURVE SMOOTH",
"587 517 OFFCURVE",
"467 409 OFFCURVE",
"449 260 CURVE SMOOTH",
"430 108 OFFCURVE",
"524 0 OFFCURVE",
"668 0 CURVE SMOOTH",
"747 0 OFFCURVE",
"820 30 OFFCURVE",
"874 81 CURVE",
"861 95 LINE",
"812 47 OFFCURVE",
"744 20 OFFCURVE",
"668 20 CURVE SMOOTH",
"536 20 OFFCURVE",
"451 118 OFFCURVE",
"469 258 CURVE SMOOTH",
"486 399 OFFCURVE",
"595 497 OFFCURVE",
"729 497 CURVE SMOOTH",
"855 497 OFFCURVE",
"928 408 OFFCURVE",
"921 279 CURVE",
"463 279 LINE"
);
}
);
width = 988;
},
{
anchors = (
{
name = top;
position = "{515, 547}";
}
);
background = {
paths = (
{
closed = 1;
nodes = (
"288 -13 OFFCURVE",
"363 17 OFFCURVE",
"428 68 CURVE",
"480 16 OFFCURVE",
"557 -13 OFFCURVE",
"648 -13 CURVE SMOOTH",
"766 -13 OFFCURVE",
"843 36 OFFCURVE",
"897 106 CURVE",
"775 203 LINE",
"739 166 OFFCURVE",
"705 147 OFFCURVE",
"664 147 CURVE SMOOTH",
"615 147 OFFCURVE",
"577 172 OFFCURVE",
"561 220 CURVE",
"912 220 LINE",
"913 232 OFFCURVE",
"913 246 OFFCURVE",
"913 258 CURVE SMOOTH",
"913 424 OFFCURVE",
"821 559 OFFCURVE",
"634 559 CURVE SMOOTH",
"569 559 OFFCURVE",
"515 538 OFFCURVE",
"472 502 CURVE",
"431 536 OFFCURVE",
"376 555 OFFCURVE",
"288 555 CURVE SMOOTH",
"193 555 OFFCURVE",
"121 539 OFFCURVE",
"58 515 CURVE",
"98 364 LINE",
"146 383 OFFCURVE",
"193 395 OFFCURVE",
"249 395 CURVE SMOOTH",
"319 395 OFFCURVE",
"350 366 OFFCURVE",
"350 316 CURVE SMOOTH",
"350 307 LINE",
"326 317 OFFCURVE",
"267 327 OFFCURVE",
"221 327 CURVE SMOOTH",
"94 327 OFFCURVE",
"13 266 OFFCURVE",
"13 157 CURVE SMOOTH",
"13 155 LINE SMOOTH",
"13 39 OFFCURVE",
"107 -13 OFFCURVE",
"212 -13 CURVE SMOOTH"
);
},
{
closed = 1;
nodes = (
"558 320 LINE",
"565 370 OFFCURVE",
"592 402 OFFCURVE",
"630 402 CURVE SMOOTH",
"670 402 OFFCURVE",
"701 372 OFFCURVE",
"706 320 CURVE"
);
},
{
closed = 1;
nodes = (
"254 120 OFFCURVE",
"230 139 OFFCURVE",
"230 171 CURVE SMOOTH",
"230 173 LINE SMOOTH",
"230 207 OFFCURVE",
"255 234 OFFCURVE",
"300 234 CURVE SMOOTH",
"319 234 OFFCURVE",
"338 230 OFFCURVE",
"351 225 CURVE",
"354 201 OFFCURVE",
"360 178 OFFCURVE",
"369 157 CURVE",
"342 134 OFFCURVE",
"315 120 OFFCURVE",
"287 120 CURVE SMOOTH"
);
}
);
};
layerId = "5DA6E103-6A94-47F2-987D-4952DB8EA68E";
paths = (
{
closed = 0;
nodes = (
"537 124 LINE"
);
},
{
closed = 1;
nodes = (
"272 557 OFFCURVE",
"174 540 OFFCURVE",
"76 506 CURVE",
"116 352 LINE",
"180 375 OFFCURVE",
"246 389 OFFCURVE",
"292 389 CURVE SMOOTH",
"344 389 OFFCURVE",
"368 371 OFFCURVE",
"363 332 CURVE",
"339 140 LINE",
"554 87 LINE",
"586 349 LINE SMOOTH",
"602 478 OFFCURVE",
"512 557 OFFCURVE",
"349 557 CURVE SMOOTH"
);
},
{
closed = 1;
nodes = (
"231 329 LINE SMOOTH",
"92 327 OFFCURVE",
"16 275 OFFCURVE",
"3 173 CURVE SMOOTH",
"-10 63 OFFCURVE",
"61 -11 OFFCURVE",
"194 -11 CURVE SMOOTH",
"309 -11 OFFCURVE",
"391 36 OFFCURVE",
"438 122 CURVE",
"341 180 LINE",
"320 153 OFFCURVE",
"285 133 OFFCURVE",
"252 133 CURVE SMOOTH",
"224 133 OFFCURVE",
"211 146 OFFCURVE",
"214 170 CURVE SMOOTH",
"218 205 OFFCURVE",
"243 225 OFFCURVE",
"274 225 CURVE SMOOTH",
"369 225 LINE",
"381 329 LINE"
);
},
{
closed = 1;
nodes = (
"541 223 LINE",
"936 218 LINE",
"973 420 OFFCURVE",
"873 555 OFFCURVE",
"677 555 CURVE SMOOTH",
"516 555 OFFCURVE",
"410 449 OFFCURVE",
"390 282 CURVE SMOOTH",
"368 107 OFFCURVE",
"450 -8 OFFCURVE",
"630 -8 CURVE SMOOTH",
"733 -8 OFFCURVE",
"820 24 OFFCURVE",
"886 88 CURVE",
"777 211 LINE",
"740 179 OFFCURVE",
"697 158 OFFCURVE",
"654 158 CURVE SMOOTH",
"597 158 OFFCURVE",
"567 197 OFFCURVE",
"577 273 CURVE SMOOTH",
"586 347 OFFCURVE",
"623 405 OFFCURVE",
"677 405 CURVE SMOOTH",
"713 405 OFFCURVE",
"733 377 OFFCURVE",
"725 332 CURVE",
"554 327 LINE"
);
}
);
width = 958;
},
{
anchors = (
{
name = top;
position = "{520, 531}";
}
);
layerId = "1C84A7F3-C40A-4DC1-B8B4-102D183C348F";
paths = (
{
closed = 0;
nodes = (
"538 124 LINE"
);
},
{
closed = 1;
nodes = (
"255 535 OFFCURVE",
"175 512 OFFCURVE",
"95 471 CURVE",
"119 391 LINE",
"181 426 OFFCURVE",
"244 447 OFFCURVE",
"303 447 CURVE",
"385 447 OFFCURVE",
"422 409 OFFCURVE",
"414 340 CURVE",
"398 204 LINE",
"508 180 LINE",
"527 346 LINE",
"541 462 OFFCURVE",
"470 535 OFFCURVE",
"330 535 CURVE"
);
},
{
closed = 1;
nodes = (
"245 304 LINE",
"118 303 OFFCURVE",
"39 253 OFFCURVE",
"28 161 CURVE",
"16 64 OFFCURVE",
"81 -5 OFFCURVE",
"197 -5 CURVE",
"308 -5 OFFCURVE",
"396 42 OFFCURVE",
"448 142 CURVE",
"403 191 LINE",
"360 106 OFFCURVE",
"298 72 OFFCURVE",
"225 72 CURVE",
"164 72 OFFCURVE",
"129 106 OFFCURVE",
"135 158 CURVE",
"142 213 OFFCURVE",
"190 245 OFFCURVE",
"264 245 CURVE",
"417 245 LINE",
"424 304 LINE"
);
},
{
closed = 1;
nodes = (
"498 242 LINE",
"937 239 LINE",
"965 413 OFFCURVE",
"874 535 OFFCURVE",
"706 535 CURVE SMOOTH",
"555 535 OFFCURVE",
"442 428 OFFCURVE",
"422 271 CURVE SMOOTH",
"402 108 OFFCURVE",
"491 -4 OFFCURVE",
"651 -4 CURVE SMOOTH",
"741 -4 OFFCURVE",
"819 27 OFFCURVE",
"879 84 CURVE",
"822 149 LINE",
"779 108 OFFCURVE",
"722 84 OFFCURVE",
"662 84 CURVE SMOOTH",
"564 84 OFFCURVE",
"505 154 OFFCURVE",
"519 265 CURVE SMOOTH",
"532 374 OFFCURVE",
"608 455 OFFCURVE",
"705 455 CURVE SMOOTH",
"790 455 OFFCURVE",
"838 394 OFFCURVE",
"830 304 CURVE",
"505 301 LINE"
);
}
);
width = 974;
}
);
leftKerningGroup = a;
leftMetricsKey = a;
rightKerningGroup = e;
rightMetricsKey = e;
unicode = 00E6;
},
{
color = 0;
glyphname = ae.ss01;
lastChange = "2015-04-22 19:02:19 +0000";
layers = (
{
anchors = (
{
name = top;
position = "{517, 517}";
}
);
background = {
paths = (
{
closed = 1;
nodes = (
"464 259 LINE",
"944 259 LINE",
"944 409 OFFCURVE",
"847 517 OFFCURVE",
"703 517 CURVE SMOOTH",
"559 517 OFFCURVE",
"452 409 OFFCURVE",
"452 259 CURVE SMOOTH",
"452 108 OFFCURVE",
"559 0 OFFCURVE",
"703 0 CURVE SMOOTH",
"783 0 OFFCURVE",
"853 30 OFFCURVE",
"901 81 CURVE",
"887 95 LINE",
"843 47 OFFCURVE",
"778 20 OFFCURVE",
"703 20 CURVE SMOOTH",
"569 20 OFFCURVE",
"472 118 OFFCURVE",
"472 259 CURVE SMOOTH",
"472 399 OFFCURVE",
"569 497 OFFCURVE",
"703 497 CURVE SMOOTH",
"831 497 OFFCURVE",
"915 408 OFFCURVE",
"924 279 CURVE",
"464 279 LINE"
);
}
);
};
layerId = UUID0;
paths = (
{
closed = 0;
nodes = (
"540 124 LINE"
);
},
{
closed = 1;
nodes = (
"259 282 LINE",
"140 282 OFFCURVE",
"59 233 OFFCURVE",
"48 150 CURVE",
"38 63 OFFCURVE",
"99 0 OFFCURVE",
"201 0 CURVE",
"309 0 OFFCURVE",
"402 48 OFFCURVE",
"460 161 CURVE",
"458 199 LINE",
"397 65 OFFCURVE",
"310 20 OFFCURVE",
"201 20 CURVE",
"111 20 OFFCURVE",
"59 73 OFFCURVE",
"68 148 CURVE",
"77 221 OFFCURVE",
"145 262 OFFCURVE",
"256 262 CURVE",
"461 262 LINE",
"464 282 LINE"
);
},
{
closed = 1;
nodes = (
"121 425 LINE",
"183 469 OFFCURVE",
"242 497 OFFCURVE",
"313 497 CURVE",
"422 497 OFFCURVE",
"470 440 OFFCURVE",
"459 345 CURVE",
"449 259 LINE",
"469 259 LINE",
"479 345 LINE",
"491 450 OFFCURVE",
"434 517 OFFCURVE",
"313 517 CURVE",
"240 517 OFFCURVE",
"175 487 OFFCURVE",
"110 441 CURVE"
);
},
{
closed = 1;
nodes = (
"816 50 OFFCURVE",
"749 20 OFFCURVE",
"673 20 CURVE SMOOTH",
"537 20 OFFCURVE",
"454 119 OFFCURVE",
"471 258 CURVE SMOOTH",
"488 398 OFFCURVE",
"596 497 OFFCURVE",
"731 497 CURVE SMOOTH",
"823 497 OFFCURVE",
"893 451 OFFCURVE",
"913 371 CURVE",
"455 193 LINE",
"459 175 LINE",
"937 360 LINE",
"920 457 OFFCURVE",
"839 517 OFFCURVE",
"732 517 CURVE SMOOTH",
"588 517 OFFCURVE",
"469 408 OFFCURVE",
"451 260 CURVE SMOOTH",
"432 109 OFFCURVE",
"525 0 OFFCURVE",
"672 0 CURVE SMOOTH",
"752 0 OFFCURVE",
"825 33 OFFCURVE",
"889 104 CURVE",
"873 115 LINE"
);
}
);
width = 974;
},
{
anchors = (
{
name = top;
position = "{510, 547}";
}
);
background = {
paths = (
{
closed = 0;
nodes = (
"558 124 LINE"
);
},
{
closed = 1;
nodes = (
"242 557 OFFCURVE",
"145 538 OFFCURVE",
"51 504 CURVE",
"101 354 LINE",
"164 377 OFFCURVE",
"228 389 OFFCURVE",
"270 389 CURVE SMOOTH",
"327 389 OFFCURVE",
"357 366 OFFCURVE",
"357 327 CURVE",
"357 140 LINE",
"578 87 LINE",
"578 354 LINE SMOOTH",
"578 483 OFFCURVE",
"483 557 OFFCURVE",
"323 557 CURVE SMOOTH"
);
},
{
closed = 1;
nodes = (
"229 329 LINE SMOOTH",
"89 327 OFFCURVE",
"15 270 OFFCURVE",
"15 162 CURVE SMOOTH",
"15 58 OFFCURVE",
"91 -11 OFFCURVE",
"221 -11 CURVE SMOOTH",
"341 -11 OFFCURVE",
"420 41 OFFCURVE",
"456 127 CURVE",
"357 175 LINE",
"338 148 OFFCURVE",
"308 133 OFFCURVE",
"278 133 CURVE SMOOTH",
"245 133 OFFCURVE",
"226 151 OFFCURVE",
"226 181 CURVE SMOOTH",
"226 210 OFFCURVE",
"244 225 OFFCURVE",
"276 225 CURVE SMOOTH",
"376 225 LINE",
"376 329 LINE"
);
},
{
closed = 1;
nodes = (
"549 223 LINE",
"947 223 LINE",
"959 425 OFFCURVE",
"846 555 OFFCURVE",
"654 555 CURVE SMOOTH",
"488 555 OFFCURVE",
"400 444 OFFCURVE",
"400 271 CURVE SMOOTH",
"400 102 OFFCURVE",
"483 -8 OFFCURVE",
"660 -8 CURVE SMOOTH",
"767 -8 OFFCURVE",
"851 28 OFFCURVE",
"910 92 CURVE",
"793 207 LINE",
"758 175 OFFCURVE",
"719 158 OFFCURVE",
"680 158 CURVE SMOOTH",
"618 158 OFFCURVE",
"578 202 OFFCURVE",
"578 284 CURVE SMOOTH",
"578 352 OFFCURVE",
"605 405 OFFCURVE",
"656 405 CURVE SMOOTH",
"696 405 OFFCURVE",
"725 372 OFFCURVE",
"722 327 CURVE",
"549 327 LINE"
);
}
);
};
layerId = "5DA6E103-6A94-47F2-987D-4952DB8EA68E";
paths = (
{
closed = 0;
nodes = (
"540 124 LINE"
);
},
{
closed = 1;
nodes = (
"232 329 LINE SMOOTH",
"92 327 OFFCURVE",
"16 274 OFFCURVE",
"3 175 CURVE SMOOTH",
"-10 63 OFFCURVE",
"59 -11 OFFCURVE",
"197 -11 CURVE SMOOTH",
"310 -11 OFFCURVE",
"393 36 OFFCURVE",
"440 122 CURVE",
"343 180 LINE",
"322 153 OFFCURVE",
"287 133 OFFCURVE",
"253 133 CURVE SMOOTH",
"224 133 OFFCURVE",
"211 146 OFFCURVE",
"214 170 CURVE SMOOTH",
"218 205 OFFCURVE",
"243 225 OFFCURVE",
"275 225 CURVE SMOOTH",
"371 225 LINE",
"383 329 LINE"
);
},
{
closed = 1;
nodes = (
"116 352 LINE",
"181 375 OFFCURVE",
"247 389 OFFCURVE",
"293 389 CURVE SMOOTH",
"346 389 OFFCURVE",
"370 371 OFFCURVE",
"365 332 CURVE",
"341 140 LINE",
"556 87 LINE",
"588 349 LINE SMOOTH",
"604 478 OFFCURVE",
"514 557 OFFCURVE",
"350 557 CURVE SMOOTH",
"273 557 OFFCURVE",
"174 540 OFFCURVE",
"76 506 CURVE"
);
},
{
closed = 1;
nodes = (
"742 183 OFFCURVE",
"696 158 OFFCURVE",
"653 158 CURVE SMOOTH",
"598 158 OFFCURVE",
"570 199 OFFCURVE",
"580 276 CURVE SMOOTH",
"589 354 OFFCURVE",
"628 405 OFFCURVE",
"681 405 CURVE SMOOTH",
"709 405 OFFCURVE",
"732 391 OFFCURVE",
"731 344 CURVE",
"547 307 LINE",
"533 197 LINE",
"936 268 LINE",
"957 439 OFFCURVE",
"865 555 OFFCURVE",
"688 555 CURVE SMOOTH",
"518 555 OFFCURVE",
"412 448 OFFCURVE",
"392 286 CURVE SMOOTH",
"370 107 OFFCURVE",
"462 -8 OFFCURVE",
"636 -8 CURVE SMOOTH",
"728 -8 OFFCURVE",
"825 23 OFFCURVE",
"901 100 CURVE",
"784 220 LINE"
);
}
);
width = 951;
},
{
anchors = (
{
name = top;
position = "{509, 531}";
}
);
layerId = "1C84A7F3-C40A-4DC1-B8B4-102D183C348F";
paths = (
{
closed = 0;
nodes = (
"534 124 LINE"
);
},
{
closed = 1;
nodes = (
"245 319 LINE",
"118 318 OFFCURVE",
"40 259 OFFCURVE",
"28 166 CURVE",
"17 70 OFFCURVE",
"81 -5 OFFCURVE",
"198 -5 CURVE",
"312 -5 OFFCURVE",
"402 42 OFFCURVE",
"455 142 CURVE",
"396 201 LINE",
"387 135 OFFCURVE",
"312 83 OFFCURVE",
"225 83 CURVE",
"163 83 OFFCURVE",
"130 112 OFFCURVE",
"135 158 CURVE",
"142 213 OFFCURVE",
"182 237 OFFCURVE",
"257 237 CURVE",
"414 237 LINE",
"424 319 LINE"
);
},
{
closed = 1;
nodes = (
"137 390 LINE",
"193 426 OFFCURVE",
"249 447 OFFCURVE",
"301 447 CURVE",
"384 447 OFFCURVE",
"419 409 OFFCURVE",
"412 339 CURVE",
"390 152 LINE",
"503 152 LINE",
"525 346 LINE",
"539 462 OFFCURVE",
"469 535 OFFCURVE",
"330 535 CURVE",
"230 535 OFFCURVE",
"174 512 OFFCURVE",
"94 467 CURVE"
);
},
{
closed = 1;
nodes = (
"792 112 OFFCURVE",
"734 83 OFFCURVE",
"673 83 CURVE SMOOTH",
"575 83 OFFCURVE",
"516 156 OFFCURVE",
"530 265 CURVE SMOOTH",
"544 382 OFFCURVE",
"616 446 OFFCURVE",
"715 446 CURVE SMOOTH",
"777 446 OFFCURVE",
"818 423 OFFCURVE",
"835 362 CURVE",
"508 261 LINE",
"502 176 LINE",
"938 303 LINE",
"947 446 OFFCURVE",
"859 537 OFFCURVE",
"712 535 CURVE SMOOTH",
"549 533 OFFCURVE",
"435 424 OFFCURVE",
"416 272 CURVE SMOOTH",
"396 108 OFFCURVE",
"497 -4 OFFCURVE",
"663 -4 CURVE SMOOTH",
"754 -4 OFFCURVE",
"835 29 OFFCURVE",
"904 102 CURVE",
"841 163 LINE"
);
}
);
width = 967;
}
);
leftKerningGroup = ae.ss01;
leftMetricsKey = a;
rightKerningGroup = ae.ss01;
rightMetricsKey = e;
},
